<svg width="3044" height="1559" xmlns="http://www.w3.org/2000/svg" xmlns:xlink="http://www.w3.org/1999/xlink" xml:space="preserve" overflow="hidden"><defs><clipPath id="clip0"><rect x="641" y="618" width="3044" height="1559"/></clipPath><clipPath id="clip1"><rect x="2082" y="1207" width="165" height="190"/></clipPath><clipPath id="clip2"><rect x="2082" y="1207" width="165" height="190"/></clipPath><clipPath id="clip3"><rect x="2082" y="1207" width="165" height="190"/></clipPath><clipPath id="clip4"><rect x="2082" y="1749" width="165" height="190"/></clipPath><clipPath id="clip5"><rect x="2082" y="1749" width="165" height="190"/></clipPath><clipPath id="clip6"><rect x="2082" y="1749" width="165" height="190"/></clipPath><clipPath id="clip7"><rect x="2082" y="666" width="165" height="190"/></clipPath><clipPath id="clip8"><rect x="2082" y="666" width="165" height="190"/></clipPath><clipPath id="clip9"><rect x="2082" y="666" width="165" height="190"/></clipPath><clipPath id="clip10"><rect x="696" y="1316" width="157" height="156"/></clipPath><clipPath id="clip11"><rect x="696" y="1316" width="157" height="156"/></clipPath><clipPath id="clip12"><rect x="696" y="1316" width="157" height="156"/></clipPath><clipPath id="clip13"><rect x="2769" y="1312" width="160" height="157"/></clipPath><clipPath id="clip14"><rect x="2769" y="1312" width="160" height="157"/></clipPath><clipPath id="clip15"><rect x="2769" y="1312" width="160" height="157"/></clipPath></defs><g clip-path="url(#clip0)" transform="translate(-641 -618)"><path d="M38.4089 15.7273 806.311 434.537 801.922 442.585 34.0198 23.7749ZM29.2652 42.0645 0 0 51.2107 1.82656Z" fill="#000000" fill-rule="nonzero" fill-opacity="1" transform="matrix(-1 0 0 1 1930.62 856.5)"/><path d="M1074.5 972.5C1136.79 965.28 1170.55 988.463 1241.78 972.5 1313.01 956.537 1325.6 980.479 1395.12 972.5 1464.64 964.521 1503.94 992.159 1583.31 972.5 1662.68 952.841 1727.1 990.701 1771.5 972.5 1795 1039.96 1766.06 1083.41 1771.5 1172.5 1715.34 1177.77 1653.98 1164.35 1611.19 1172.5 1568.4 1180.65 1497.73 1159.82 1450.88 1172.5 1404.03 1185.18 1352.64 1153.38 1262.69 1172.5 1172.74 1191.62 1131.3 1149.97 1074.5 1172.5 1063.95 1108.37 1098.15 1047.88 1074.5 972.5Z" fill="#F2F2F2" fill-rule="evenodd" fill-opacity="1"/><path d="M1074.5 972.5C1130.96 964.018 1175.65 990.324 1241.78 972.5 1307.91 954.676 1353.27 980.217 1416.03 972.5 1478.79 964.783 1503.87 980.211 1590.28 972.5 1676.69 964.789 1717.85 980.316 1771.5 972.5 1775.82 1066.08 1751.42 1098.11 1771.5 1172.5 1702.52 1186.33 1634.3 1153.71 1597.25 1172.5 1560.2 1191.29 1483.95 1169.41 1436.94 1172.5 1389.93 1175.59 1328.75 1156.81 1276.63 1172.5 1224.51 1188.19 1119.81 1158.72 1074.5 1172.5 1061.34 1108.1 1078.57 1030.01 1074.5 972.5Z" stroke="#7F6000" stroke-width="3.4375" stroke-linecap="butt" stroke-linejoin="round" stroke-miterlimit="10" stroke-opacity="1" fill="none" fill-rule="evenodd"/><text fill="#7F6000" fill-opacity="1" font-family="Candara,Candara_MSFontService,sans-serif" font-style="normal" font-variant="normal" font-weight="400" font-stretch="normal" font-size="46" text-anchor="start" direction="ltr" writing-mode="lr-tb" unicode-bidi="normal" text-decoration="none" transform="matrix(1 0 0 1 1107.11 1032)">Sender sends encrypted </text><text fill="#7F6000" fill-opacity="1" font-family="Candara,Candara_MSFontService,sans-serif" font-style="normal" font-variant="normal" font-weight="400" font-stretch="normal" font-size="46" text-anchor="start" direction="ltr" writing-mode="lr-tb" unicode-bidi="normal" text-decoration="none" transform="matrix(1 0 0 1 1107.11 1087)">message to the receivers </text><text fill="#7F6000" fill-opacity="1" font-family="Candara,Candara_MSFontService,sans-serif" font-style="normal" font-variant="normal" font-weight="400" font-stretch="normal" font-size="46" text-anchor="start" direction="ltr" writing-mode="lr-tb" unicode-bidi="normal" text-decoration="none" transform="matrix(1 0 0 1 1107.11 1142)">(primary) delivery service</text><path d="M1930.5 1243.5C1930.5 1200.97 1964.97 1166.5 2007.5 1166.5L2321.5 1166.5C2364.03 1166.5 2398.5 1200.97 2398.5 1243.5L2398.5 1551.5C2398.5 1594.03 2364.03 1628.5 2321.5 1628.5L2007.5 1628.5C1964.97 1628.5 1930.5 1594.03 1930.5 1551.5Z" stroke="#FFFFFF" stroke-width="4.58333" stroke-linecap="butt" stroke-linejoin="miter" stroke-miterlimit="8" stroke-opacity="1" fill="#544393" fill-rule="evenodd" fill-opacity="0.301961"/><text fill="#FFFFFF" fill-opacity="1" font-family="Candara,Candara_MSFontService,sans-serif" font-style="normal" font-variant="normal" font-weight="400" font-stretch="normal" font-size="73" text-anchor="start" direction="ltr" writing-mode="lr-tb" unicode-bidi="normal" text-decoration="none" transform="matrix(1 0 0 1 2038.52 1482)">Delivery </text><text fill="#FFFFFF" fill-opacity="1" font-family="Candara,Candara_MSFontService,sans-serif" font-style="normal" font-variant="normal" font-weight="400" font-stretch="normal" font-size="73" text-anchor="start" direction="ltr" writing-mode="lr-tb" unicode-bidi="normal" text-decoration="none" transform="matrix(1 0 0 1 2052.27 1570)">Service</text><g clip-path="url(#clip1)"><g clip-path="url(#clip2)"><g clip-path="url(#clip3)"><path d="M29.11 29.93C29.11 33.9403 23.1009 33.9403 23.1009 29.93 23.1009 25.9197 29.11 25.9197 29.11 29.93" fill="#FFFFFF" fill-rule="nonzero" fill-opacity="1" transform="matrix(1 0 0 1.15244 2082 1208)"/><path d="M61.91 29.93C61.91 33.9403 55.9009 33.9403 55.9009 29.93 55.9009 25.9197 61.91 25.9197 61.91 29.93" fill="#FFFFFF" fill-rule="nonzero" fill-opacity="1" transform="matrix(1 0 0 1.15244 2082 1208)"/><path d="M45.51 29.93C45.51 33.9403 39.5009 33.9403 39.5009 29.93 39.5009 25.9197 45.51 25.9197 45.51 29.93" fill="#FFFFFF" fill-rule="nonzero" fill-opacity="1" transform="matrix(1 0 0 1.15244 2082 1208)"/><path d="M10.25 12.1655 10.25 47.3287 153.34 47.3287 153.34 12.1655ZM26.1055 37.0345C22.1849 37.0345 19.001 33.8442 19.001 29.93 19.001 26.0094 22.1913 22.8255 26.1055 22.8255 30.0261 22.8255 33.21 26.0158 33.21 29.93 33.21 33.8506 30.0197 37.0345 26.1055 37.0345ZM42.5055 37.0345C38.5849 37.0345 35.401 33.8442 35.401 29.93 35.401 26.0094 38.5913 22.8255 42.5055 22.8255 46.4261 22.8255 49.61 26.0158 49.61 29.93 49.61 33.8506 46.4197 37.0345 42.5055 37.0345ZM58.9055 37.0345C54.9849 37.0345 51.801 33.8442 51.801 29.93 51.801 26.0094 54.9913 22.8255 58.9055 22.8255 62.8261 22.8255 66.01 26.0158 66.01 29.93 66.01 33.8506 62.8197 37.0345 58.9055 37.0345ZM104.415 38.54 74.3182 38.54 74.3182 34.44 104.409 34.44ZM104.415 31.98 74.3182 31.98 74.3182 27.88 104.409 27.88ZM104.415 25.42 74.3182 25.42 74.3182 21.32 104.409 21.32ZM117.535 31.98 110.425 31.98 110.425 27.88 117.535 27.88ZM142.411 31.98 121.36 31.98 121.36 27.88 142.411 27.88Z" fill="#FFFFFF" fill-rule="nonzero" fill-opacity="1" transform="matrix(1 0 0 1.15244 2082 1208)"/><path d="M10.25 87.2857 153.34 87.2857 153.34 52.1225 10.25 52.1225ZM121.36 67.65 142.411 67.65 142.411 71.75 121.36 71.75ZM110.424 67.65 117.535 67.65 117.535 71.75 110.424 71.75ZM74.3182 61.09 104.409 61.09 104.409 65.19 74.3182 65.19ZM74.3182 67.65 104.409 67.65 104.409 71.75 74.3182 71.75ZM74.3182 74.21 104.409 74.21 104.409 78.31 74.3182 78.31ZM58.9049 62.5955C62.8254 62.5955 66.0093 65.7858 66.0093 69.7 66.0093 73.6206 62.819 76.8045 58.9049 76.8045 54.9843 76.8045 51.8004 73.6142 51.8004 69.7 51.794 65.7794 54.9843 62.5955 58.9049 62.5955ZM42.5049 62.5955C46.4254 62.5955 49.6093 65.7858 49.6093 69.7 49.6093 73.6206 46.419 76.8045 42.5049 76.8045 38.5843 76.8045 35.4004 73.6142 35.4004 69.7 35.394 65.7794 38.5843 62.5955 42.5049 62.5955ZM26.1049 62.5955C30.0254 62.5955 33.2093 65.7858 33.2093 69.7 33.2093 73.6206 30.019 76.8045 26.1049 76.8045 22.1843 76.8045 19.0004 73.6142 19.0004 69.7 18.994 65.7794 22.1843 62.5955 26.1049 62.5955Z" fill="#FFFFFF" fill-rule="nonzero" fill-opacity="1" transform="matrix(1 0 0 1.15244 2082 1208)"/><path d="M29.11 69.7C29.11 73.7103 23.1009 73.7103 23.1009 69.7 23.1009 65.6897 29.11 65.6897 29.11 69.7" fill="#FFFFFF" fill-rule="nonzero" fill-opacity="1" transform="matrix(1 0 0 1.15244 2082 1208)"/><path d="M61.91 69.7C61.91 73.7103 55.9009 73.7103 55.9009 69.7 55.9009 65.6897 61.91 65.6897 61.91 69.7" fill="#FFFFFF" fill-rule="nonzero" fill-opacity="1" transform="matrix(1 0 0 1.15244 2082 1208)"/><path d="M45.51 69.7C45.51 73.7103 39.5009 73.7103 39.5009 69.7 39.5009 65.6897 45.51 65.6897 45.51 69.7" fill="#FFFFFF" fill-rule="nonzero" fill-opacity="1" transform="matrix(1 0 0 1.15244 2082 1208)"/><path d="M45.51 111.18C45.51 115.184 39.5009 115.184 39.5009 111.18 39.5009 107.17 45.51 107.17 45.51 111.18" fill="#FFFFFF" fill-rule="nonzero" fill-opacity="1" transform="matrix(1 0 0 1.15244 2082 1208)"/><path d="M29.11 111.18C29.11 115.184 23.1009 115.184 23.1009 111.18 23.1009 107.17 29.11 107.17 29.11 111.18" fill="#FFFFFF" fill-rule="nonzero" fill-opacity="1" transform="matrix(1 0 0 1.15244 2082 1208)"/><path d="M10.25 127.241 79.95 127.241 79.95 137.363C77.0031 138.112 74.6969 140.419 73.9473 143.366L12.2997 143.366 12.2997 147.466 73.9473 147.466C74.8698 151.066 78.1114 153.757 82 153.757 85.8886 153.757 89.1366 151.072 90.0527 147.466L151.29 147.466 151.29 143.366 90.0527 143.366C89.3032 140.419 86.9969 138.113 84.05 137.363L84.05 127.241 153.34 127.241 153.34 92.0778 10.25 92.0778ZM121.36 109.124 142.411 109.124 142.411 113.224 121.36 113.224ZM110.424 109.124 117.535 109.124 117.535 113.224 110.424 113.224ZM74.3182 100.924 104.409 100.924 104.409 105.024 74.3182 105.024ZM74.3182 107.484 104.409 107.484 104.409 111.584 74.3182 111.584ZM74.3182 114.044 104.409 114.044 104.409 118.144 74.3182 118.144ZM58.9049 104.069C62.8254 104.069 66.0093 107.253 66.0093 111.174 66.0093 115.095 62.819 118.285 58.9049 118.285 54.9843 118.285 51.8004 115.095 51.8004 111.174 51.8004 107.26 54.9843 104.069 58.9049 104.069ZM42.5049 104.069C46.4254 104.069 49.6093 107.253 49.6093 111.174 49.6093 115.095 46.419 118.285 42.5049 118.285 38.5843 118.285 35.4004 115.095 35.4004 111.174 35.4004 107.26 38.5843 104.069 42.5049 104.069ZM26.1049 104.069C30.0254 104.069 33.2093 107.253 33.2093 111.174 33.2093 115.095 30.019 118.285 26.1049 118.285 22.1843 118.285 19.0004 115.095 19.0004 111.174 19.0004 107.26 22.1843 104.069 26.1049 104.069Z" fill="#FFFFFF" fill-rule="nonzero" fill-opacity="1" transform="matrix(1 0 0 1.15244 2082 1208)"/><path d="M61.91 111.18C61.91 115.184 55.9009 115.184 55.9009 111.18 55.9009 107.17 61.91 107.17 61.91 111.18" fill="#FFFFFF" fill-rule="nonzero" fill-opacity="1" transform="matrix(1 0 0 1.15244 2082 1208)"/></g></g></g><path d="M1930.5 1783.67C1930.5 1741.05 1965.05 1706.5 2007.67 1706.5L2321.33 1706.5C2363.95 1706.5 2398.5 1741.05 2398.5 1783.67L2398.5 2092.33C2398.5 2134.95 2363.95 2169.5 2321.33 2169.5L2007.67 2169.5C1965.05 2169.5 1930.5 2134.95 1930.5 2092.33Z" stroke="#FFFFFF" stroke-width="4.58333" stroke-linecap="butt" stroke-linejoin="miter" stroke-miterlimit="8" stroke-opacity="1" fill="#544393" fill-rule="evenodd" fill-opacity="0.74902"/><text fill="#FFFFFF" fill-opacity="1" font-family="Candara,Candara_MSFontService,sans-serif" font-style="normal" font-variant="normal" font-weight="400" font-stretch="normal" font-size="73" text-anchor="start" direction="ltr" writing-mode="lr-tb" unicode-bidi="normal" text-decoration="none" transform="matrix(1 0 0 1 2038.52 2023)">Delivery </text><text fill="#FFFFFF" fill-opacity="1" font-family="Candara,Candara_MSFontService,sans-serif" font-style="normal" font-variant="normal" font-weight="400" font-stretch="normal" font-size="73" text-anchor="start" direction="ltr" writing-mode="lr-tb" unicode-bidi="normal" text-decoration="none" transform="matrix(1 0 0 1 2052.27 2111)">Service</text><g clip-path="url(#clip4)"><g clip-path="url(#clip5)"><g clip-path="url(#clip6)"><path d="M29.11 29.93C29.11 33.9403 23.1009 33.9403 23.1009 29.93 23.1009 25.9197 29.11 25.9197 29.11 29.93" fill="#FFFFFF" fill-rule="nonzero" fill-opacity="1" transform="matrix(1 0 0 1.15244 2082 1749)"/><path d="M61.91 29.93C61.91 33.9403 55.9009 33.9403 55.9009 29.93 55.9009 25.9197 61.91 25.9197 61.91 29.93" fill="#FFFFFF" fill-rule="nonzero" fill-opacity="1" transform="matrix(1 0 0 1.15244 2082 1749)"/><path d="M45.51 29.93C45.51 33.9403 39.5009 33.9403 39.5009 29.93 39.5009 25.9197 45.51 25.9197 45.51 29.93" fill="#FFFFFF" fill-rule="nonzero" fill-opacity="1" transform="matrix(1 0 0 1.15244 2082 1749)"/><path d="M10.25 12.1655 10.25 47.3287 153.34 47.3287 153.34 12.1655ZM26.1055 37.0345C22.1849 37.0345 19.001 33.8442 19.001 29.93 19.001 26.0094 22.1913 22.8255 26.1055 22.8255 30.0261 22.8255 33.21 26.0158 33.21 29.93 33.21 33.8506 30.0197 37.0345 26.1055 37.0345ZM42.5055 37.0345C38.5849 37.0345 35.401 33.8442 35.401 29.93 35.401 26.0094 38.5913 22.8255 42.5055 22.8255 46.4261 22.8255 49.61 26.0158 49.61 29.93 49.61 33.8506 46.4197 37.0345 42.5055 37.0345ZM58.9055 37.0345C54.9849 37.0345 51.801 33.8442 51.801 29.93 51.801 26.0094 54.9913 22.8255 58.9055 22.8255 62.8261 22.8255 66.01 26.0158 66.01 29.93 66.01 33.8506 62.8197 37.0345 58.9055 37.0345ZM104.415 38.54 74.3182 38.54 74.3182 34.44 104.409 34.44ZM104.415 31.98 74.3182 31.98 74.3182 27.88 104.409 27.88ZM104.415 25.42 74.3182 25.42 74.3182 21.32 104.409 21.32ZM117.535 31.98 110.425 31.98 110.425 27.88 117.535 27.88ZM142.411 31.98 121.36 31.98 121.36 27.88 142.411 27.88Z" fill="#FFFFFF" fill-rule="nonzero" fill-opacity="1" transform="matrix(1 0 0 1.15244 2082 1749)"/><path d="M10.25 87.2857 153.34 87.2857 153.34 52.1225 10.25 52.1225ZM121.36 67.65 142.411 67.65 142.411 71.75 121.36 71.75ZM110.424 67.65 117.535 67.65 117.535 71.75 110.424 71.75ZM74.3182 61.09 104.409 61.09 104.409 65.19 74.3182 65.19ZM74.3182 67.65 104.409 67.65 104.409 71.75 74.3182 71.75ZM74.3182 74.21 104.409 74.21 104.409 78.31 74.3182 78.31ZM58.9049 62.5955C62.8254 62.5955 66.0093 65.7858 66.0093 69.7 66.0093 73.6206 62.819 76.8045 58.9049 76.8045 54.9843 76.8045 51.8004 73.6142 51.8004 69.7 51.794 65.7794 54.9843 62.5955 58.9049 62.5955ZM42.5049 62.5955C46.4254 62.5955 49.6093 65.7858 49.6093 69.7 49.6093 73.6206 46.419 76.8045 42.5049 76.8045 38.5843 76.8045 35.4004 73.6142 35.4004 69.7 35.394 65.7794 38.5843 62.5955 42.5049 62.5955ZM26.1049 62.5955C30.0254 62.5955 33.2093 65.7858 33.2093 69.7 33.2093 73.6206 30.019 76.8045 26.1049 76.8045 22.1843 76.8045 19.0004 73.6142 19.0004 69.7 18.994 65.7794 22.1843 62.5955 26.1049 62.5955Z" fill="#FFFFFF" fill-rule="nonzero" fill-opacity="1" transform="matrix(1 0 0 1.15244 2082 1749)"/><path d="M29.11 69.7C29.11 73.7103 23.1009 73.7103 23.1009 69.7 23.1009 65.6897 29.11 65.6897 29.11 69.7" fill="#FFFFFF" fill-rule="nonzero" fill-opacity="1" transform="matrix(1 0 0 1.15244 2082 1749)"/><path d="M61.91 69.7C61.91 73.7103 55.9009 73.7103 55.9009 69.7 55.9009 65.6897 61.91 65.6897 61.91 69.7" fill="#FFFFFF" fill-rule="nonzero" fill-opacity="1" transform="matrix(1 0 0 1.15244 2082 1749)"/><path d="M45.51 69.7C45.51 73.7103 39.5009 73.7103 39.5009 69.7 39.5009 65.6897 45.51 65.6897 45.51 69.7" fill="#FFFFFF" fill-rule="nonzero" fill-opacity="1" transform="matrix(1 0 0 1.15244 2082 1749)"/><path d="M45.51 111.18C45.51 115.184 39.5009 115.184 39.5009 111.18 39.5009 107.17 45.51 107.17 45.51 111.18" fill="#FFFFFF" fill-rule="nonzero" fill-opacity="1" transform="matrix(1 0 0 1.15244 2082 1749)"/><path d="M29.11 111.18C29.11 115.184 23.1009 115.184 23.1009 111.18 23.1009 107.17 29.11 107.17 29.11 111.18" fill="#FFFFFF" fill-rule="nonzero" fill-opacity="1" transform="matrix(1 0 0 1.15244 2082 1749)"/><path d="M10.25 127.241 79.95 127.241 79.95 137.363C77.0031 138.112 74.6969 140.419 73.9473 143.366L12.2997 143.366 12.2997 147.466 73.9473 147.466C74.8698 151.066 78.1114 153.757 82 153.757 85.8886 153.757 89.1366 151.072 90.0527 147.466L151.29 147.466 151.29 143.366 90.0527 143.366C89.3032 140.419 86.9969 138.113 84.05 137.363L84.05 127.241 153.34 127.241 153.34 92.0778 10.25 92.0778ZM121.36 109.124 142.411 109.124 142.411 113.224 121.36 113.224ZM110.424 109.124 117.535 109.124 117.535 113.224 110.424 113.224ZM74.3182 100.924 104.409 100.924 104.409 105.024 74.3182 105.024ZM74.3182 107.484 104.409 107.484 104.409 111.584 74.3182 111.584ZM74.3182 114.044 104.409 114.044 104.409 118.144 74.3182 118.144ZM58.9049 104.069C62.8254 104.069 66.0093 107.253 66.0093 111.174 66.0093 115.095 62.819 118.285 58.9049 118.285 54.9843 118.285 51.8004 115.095 51.8004 111.174 51.8004 107.26 54.9843 104.069 58.9049 104.069ZM42.5049 104.069C46.4254 104.069 49.6093 107.253 49.6093 111.174 49.6093 115.095 46.419 118.285 42.5049 118.285 38.5843 118.285 35.4004 115.095 35.4004 111.174 35.4004 107.26 38.5843 104.069 42.5049 104.069ZM26.1049 104.069C30.0254 104.069 33.2093 107.253 33.2093 111.174 33.2093 115.095 30.019 118.285 26.1049 118.285 22.1843 118.285 19.0004 115.095 19.0004 111.174 19.0004 107.26 22.1843 104.069 26.1049 104.069Z" fill="#FFFFFF" fill-rule="nonzero" fill-opacity="1" transform="matrix(1 0 0 1.15244 2082 1749)"/><path d="M61.91 111.18C61.91 115.184 55.9009 115.184 55.9009 111.18 55.9009 107.17 61.91 107.17 61.91 111.18" fill="#FFFFFF" fill-rule="nonzero" fill-opacity="1" transform="matrix(1 0 0 1.15244 2082 1749)"/></g></g></g><path d="M1930.5 702.502C1930.5 659.975 1964.97 625.5 2007.5 625.5L2321.5 625.5C2364.03 625.5 2398.5 659.975 2398.5 702.502L2398.5 1010.5C2398.5 1053.03 2364.03 1087.5 2321.5 1087.5L2007.5 1087.5C1964.97 1087.5 1930.5 1053.03 1930.5 1010.5Z" stroke="#FFFFFF" stroke-width="4.58333" stroke-linecap="butt" stroke-linejoin="miter" stroke-miterlimit="8" stroke-opacity="1" fill="#544393" fill-rule="evenodd" fill-opacity="1"/><text fill="#FFFFFF" fill-opacity="1" font-family="Candara,Candara_MSFontService,sans-serif" font-style="normal" font-variant="normal" font-weight="400" font-stretch="normal" font-size="73" text-anchor="start" direction="ltr" writing-mode="lr-tb" unicode-bidi="normal" text-decoration="none" transform="matrix(1 0 0 1 2038.52 941)">Delivery </text><text fill="#FFFFFF" fill-opacity="1" font-family="Candara,Candara_MSFontService,sans-serif" font-style="normal" font-variant="normal" font-weight="400" font-stretch="normal" font-size="73" text-anchor="start" direction="ltr" writing-mode="lr-tb" unicode-bidi="normal" text-decoration="none" transform="matrix(1 0 0 1 2052.27 1029)">Service</text><g clip-path="url(#clip7)"><g clip-path="url(#clip8)"><g clip-path="url(#clip9)"><path d="M29.11 29.93C29.11 33.9403 23.1009 33.9403 23.1009 29.93 23.1009 25.9197 29.11 25.9197 29.11 29.93" fill="#FFFFFF" fill-rule="nonzero" fill-opacity="1" transform="matrix(1 0 0 1.15244 2082 667)"/><path d="M61.91 29.93C61.91 33.9403 55.9009 33.9403 55.9009 29.93 55.9009 25.9197 61.91 25.9197 61.91 29.93" fill="#FFFFFF" fill-rule="nonzero" fill-opacity="1" transform="matrix(1 0 0 1.15244 2082 667)"/><path d="M45.51 29.93C45.51 33.9403 39.5009 33.9403 39.5009 29.93 39.5009 25.9197 45.51 25.9197 45.51 29.93" fill="#FFFFFF" fill-rule="nonzero" fill-opacity="1" transform="matrix(1 0 0 1.15244 2082 667)"/><path d="M10.25 12.1655 10.25 47.3287 153.34 47.3287 153.34 12.1655ZM26.1055 37.0345C22.1849 37.0345 19.001 33.8442 19.001 29.93 19.001 26.0094 22.1913 22.8255 26.1055 22.8255 30.0261 22.8255 33.21 26.0158 33.21 29.93 33.21 33.8506 30.0197 37.0345 26.1055 37.0345ZM42.5055 37.0345C38.5849 37.0345 35.401 33.8442 35.401 29.93 35.401 26.0094 38.5913 22.8255 42.5055 22.8255 46.4261 22.8255 49.61 26.0158 49.61 29.93 49.61 33.8506 46.4197 37.0345 42.5055 37.0345ZM58.9055 37.0345C54.9849 37.0345 51.801 33.8442 51.801 29.93 51.801 26.0094 54.9913 22.8255 58.9055 22.8255 62.8261 22.8255 66.01 26.0158 66.01 29.93 66.01 33.8506 62.8197 37.0345 58.9055 37.0345ZM104.415 38.54 74.3182 38.54 74.3182 34.44 104.409 34.44ZM104.415 31.98 74.3182 31.98 74.3182 27.88 104.409 27.88ZM104.415 25.42 74.3182 25.42 74.3182 21.32 104.409 21.32ZM117.535 31.98 110.425 31.98 110.425 27.88 117.535 27.88ZM142.411 31.98 121.36 31.98 121.36 27.88 142.411 27.88Z" fill="#FFFFFF" fill-rule="nonzero" fill-opacity="1" transform="matrix(1 0 0 1.15244 2082 667)"/><path d="M10.25 87.2857 153.34 87.2857 153.34 52.1225 10.25 52.1225ZM121.36 67.65 142.411 67.65 142.411 71.75 121.36 71.75ZM110.424 67.65 117.535 67.65 117.535 71.75 110.424 71.75ZM74.3182 61.09 104.409 61.09 104.409 65.19 74.3182 65.19ZM74.3182 67.65 104.409 67.65 104.409 71.75 74.3182 71.75ZM74.3182 74.21 104.409 74.21 104.409 78.31 74.3182 78.31ZM58.9049 62.5955C62.8254 62.5955 66.0093 65.7858 66.0093 69.7 66.0093 73.6206 62.819 76.8045 58.9049 76.8045 54.9843 76.8045 51.8004 73.6142 51.8004 69.7 51.794 65.7794 54.9843 62.5955 58.9049 62.5955ZM42.5049 62.5955C46.4254 62.5955 49.6093 65.7858 49.6093 69.7 49.6093 73.6206 46.419 76.8045 42.5049 76.8045 38.5843 76.8045 35.4004 73.6142 35.4004 69.7 35.394 65.7794 38.5843 62.5955 42.5049 62.5955ZM26.1049 62.5955C30.0254 62.5955 33.2093 65.7858 33.2093 69.7 33.2093 73.6206 30.019 76.8045 26.1049 76.8045 22.1843 76.8045 19.0004 73.6142 19.0004 69.7 18.994 65.7794 22.1843 62.5955 26.1049 62.5955Z" fill="#FFFFFF" fill-rule="nonzero" fill-opacity="1" transform="matrix(1 0 0 1.15244 2082 667)"/><path d="M29.11 69.7C29.11 73.7103 23.1009 73.7103 23.1009 69.7 23.1009 65.6897 29.11 65.6897 29.11 69.7" fill="#FFFFFF" fill-rule="nonzero" fill-opacity="1" transform="matrix(1 0 0 1.15244 2082 667)"/><path d="M61.91 69.7C61.91 73.7103 55.9009 73.7103 55.9009 69.7 55.9009 65.6897 61.91 65.6897 61.91 69.7" fill="#FFFFFF" fill-rule="nonzero" fill-opacity="1" transform="matrix(1 0 0 1.15244 2082 667)"/><path d="M45.51 69.7C45.51 73.7103 39.5009 73.7103 39.5009 69.7 39.5009 65.6897 45.51 65.6897 45.51 69.7" fill="#FFFFFF" fill-rule="nonzero" fill-opacity="1" transform="matrix(1 0 0 1.15244 2082 667)"/><path d="M45.51 111.18C45.51 115.184 39.5009 115.184 39.5009 111.18 39.5009 107.17 45.51 107.17 45.51 111.18" fill="#FFFFFF" fill-rule="nonzero" fill-opacity="1" transform="matrix(1 0 0 1.15244 2082 667)"/><path d="M29.11 111.18C29.11 115.184 23.1009 115.184 23.1009 111.18 23.1009 107.17 29.11 107.17 29.11 111.18" fill="#FFFFFF" fill-rule="nonzero" fill-opacity="1" transform="matrix(1 0 0 1.15244 2082 667)"/><path d="M10.25 127.241 79.95 127.241 79.95 137.363C77.0031 138.112 74.6969 140.419 73.9473 143.366L12.2997 143.366 12.2997 147.466 73.9473 147.466C74.8698 151.066 78.1114 153.757 82 153.757 85.8886 153.757 89.1366 151.072 90.0527 147.466L151.29 147.466 151.29 143.366 90.0527 143.366C89.3032 140.419 86.9969 138.113 84.05 137.363L84.05 127.241 153.34 127.241 153.34 92.0778 10.25 92.0778ZM121.36 109.124 142.411 109.124 142.411 113.224 121.36 113.224ZM110.424 109.124 117.535 109.124 117.535 113.224 110.424 113.224ZM74.3182 100.924 104.409 100.924 104.409 105.024 74.3182 105.024ZM74.3182 107.484 104.409 107.484 104.409 111.584 74.3182 111.584ZM74.3182 114.044 104.409 114.044 104.409 118.144 74.3182 118.144ZM58.9049 104.069C62.8254 104.069 66.0093 107.253 66.0093 111.174 66.0093 115.095 62.819 118.285 58.9049 118.285 54.9843 118.285 51.8004 115.095 51.8004 111.174 51.8004 107.26 54.9843 104.069 58.9049 104.069ZM42.5049 104.069C46.4254 104.069 49.6093 107.253 49.6093 111.174 49.6093 115.095 46.419 118.285 42.5049 118.285 38.5843 118.285 35.4004 115.095 35.4004 111.174 35.4004 107.26 38.5843 104.069 42.5049 104.069ZM26.1049 104.069C30.0254 104.069 33.2093 107.253 33.2093 111.174 33.2093 115.095 30.019 118.285 26.1049 118.285 22.1843 118.285 19.0004 115.095 19.0004 111.174 19.0004 107.26 22.1843 104.069 26.1049 104.069Z" fill="#FFFFFF" fill-rule="nonzero" fill-opacity="1" transform="matrix(1 0 0 1.15244 2082 667)"/><path d="M61.91 111.18C61.91 115.184 55.9009 115.184 55.9009 111.18 55.9009 107.17 61.91 107.17 61.91 111.18" fill="#FFFFFF" fill-rule="nonzero" fill-opacity="1" transform="matrix(1 0 0 1.15244 2082 667)"/></g></g></g><path d="M644 1379.15C644 1332.12 682.12 1294 729.145 1294L1522.86 1294C1569.88 1294 1608 1332.12 1608 1379.15L1608 1413.85C1608 1460.88 1569.88 1499 1522.86 1499L729.145 1499C682.12 1499 644 1460.88 644 1413.85Z" fill="#8B7FF4" fill-rule="evenodd" fill-opacity="1"/><text fill="#FFFFFF" fill-opacity="1" font-family="Candara,Candara_MSFontService,sans-serif" font-style="normal" font-variant="normal" font-weight="400" font-stretch="normal" font-size="64" text-anchor="start" direction="ltr" writing-mode="lr-tb" unicode-bidi="normal" text-decoration="none" transform="matrix(1 0 0 1 967.468 1418)">User 1 (Sender)</text><g clip-path="url(#clip10)"><g clip-path="url(#clip11)"><g clip-path="url(#clip12)"><path d="M78.7354 154.34C63.6591 154.273 48.2081 156.083 40.3124 153.94L40.3124 153.946C38.381 153.401 36.4132 152.99 34.4272 152.711 29.6924 152.045 28.0697 152.602 25.0424 152.281 24.0131 152.172 17.3772 151.391 12.491 146.529 8.61599 142.672 7.64724 138.053 7.13868 135.631 4.41409 122.583 12.8058 112.145 13.5445 111.254 14.4891 110.116 17.3712 107.621 23.6741 103.383L23.6801 103.377C30.5462 98.7753 37.9814 95.0759 45.7986 92.3695 47.6755 91.7155 48.166 92.0668 48.6565 94.2828 51.4961 106.949 59.2159 114.947 71.8461 117.896 87.4422 121.528 103.9 110.63 106.867 94.8873 106.915 94.6329 106.952 94.3787 107.006 94.1304 107.236 93.0406 107.49 92.4109 107.957 92.1688 108.647 91.8054 109.628 92.2656 109.961 92.4292 115.458 95.1537 120.296 94.7904 130.184 101.887L130.19 101.887C133.52 104.26 136.614 106.936 139.441 109.891 141.597 112.155 143.074 113.742 144.588 116.273 146.459 119.427 147.682 122.927 148.184 126.566 148.838 131.185 148.154 135.896 146.223 140.14 145.339 142.041 143.219 146.473 138.4 149.404 134.7 151.656 130.886 152.128 129.451 152.286 126.315 152.637 124.934 152.135 120.914 152.698 119.013 152.958 117.136 153.376 115.301 153.945 108.157 156.028 92.4574 154.393 78.7368 154.338Z" fill="#FFFFFF" fill-rule="nonzero" fill-opacity="1" transform="matrix(1.00645 0 0 1 696 1317)"/><path d="M53.2332 32.4834C47.4449 45.7794 48.3047 68.3085 62.5816 81.5626 62.2122 81.4838 61.8428 81.393 61.4797 81.278 46.9242 75.4413 37.0734 65.2448 34.1129 49.6487 31.0856 33.7255 36.5106 20.4281 48.8985 10.1485 66.0213-4.08005 92.4442-3.20817 108.773 11.8681 129.171 30.6866 126.059 62.4725 102.325 77.1974 99.5157 78.9412 96.4399 80.2733 93.3278 81.6053 101.538 73.4316 105.056 63.4409 105.704 52.1677 83.8161 57.0236 66.2097 51.0779 53.2331 32.4843Z" fill="#FFFFFF" fill-rule="nonzero" fill-opacity="1" transform="matrix(1.00645 0 0 1 696 1317)"/></g></g></g><path d="M2720 1379.15C2720 1332.12 2758.12 1294 2805.14 1294L3598.85 1294C3645.88 1294 3684 1332.12 3684 1379.15L3684 1413.85C3684 1460.88 3645.88 1499 3598.85 1499L2805.14 1499C2758.12 1499 2720 1460.88 2720 1413.85Z" fill="#8B7FF4" fill-rule="evenodd" fill-opacity="1"/><text fill="#FFFFFF" fill-opacity="1" font-family="Candara,Candara_MSFontService,sans-serif" font-style="normal" font-variant="normal" font-weight="400" font-stretch="normal" font-size="64" text-anchor="start" direction="ltr" writing-mode="lr-tb" unicode-bidi="normal" text-decoration="none" transform="matrix(1 0 0 1 3011.9 1418)">User 2 (Receiver)</text><g clip-path="url(#clip13)"><g clip-path="url(#clip14)"><g clip-path="url(#clip15)"><path d="M106.962 107.766C106.784 107.717 106.662 107.545 106.668 107.355L106.668 101.517C110.066 97.089 112.604 92.0601 114.156 86.6938 118.001 82.8792 119.712 76.8507 120.638 73.6004 122.208 68.3261 123.637 60.6785 119.51 55.2016L119.32 54.9501C121.313 45.3583 123.797 22.685 106.57 11.1927 108.594 9.13208 109.685 6.34172 109.599 3.45308 109.587 3.17711 109.452 2.9134 109.238 2.72941 109.023 2.55768 108.747 2.47184 108.471 2.49636 108.25 2.49636 86.7124 4.94336 76.3347 2.79687 65.6882 0.582862 53.9811 8.66599 51.5758 16.9269 47.5527 17.4543 43.8976 19.521 41.3708 22.6855 36.6609 28.4812 35.2318 37.7231 37.084 50.1118 37.2066 51.6818 37.3967 53.2518 37.6788 54.8218L37.4887 55.0549C33.3613 60.5193 34.8638 68.1669 36.3604 73.4537 37.2863 76.7041 38.9852 82.7327 42.8305 86.5288L42.8305 86.5411C44.3697 91.938 46.9089 97.0037 50.3186 101.468L50.3186 107.215C50.3308 107.405 50.2021 107.577 50.0181 107.626 35.2932 111.158 1.01684 122.019 1.01684 149.151 1.01684 152.107 3.4147 154.505 6.37085 154.505L150.627 154.505C153.583 154.505 155.981 152.107 155.981 149.151 155.981 122.019 121.705 111.158 106.961 107.767ZM78.4999 128.569C69.3681 128.697 60.7338 124.405 55.3236 117.045 57.6847 115.733 59.4815 113.599 60.3647 111.047 62.7811 112.642 65.3813 113.936 68.1043 114.911 74.832 117.29 82.1668 117.29 88.8942 114.911 91.6049 113.917 94.1929 112.611 96.6032 111.017 97.4802 113.598 99.2832 115.763 101.675 117.088 96.2537 124.435 87.6249 128.71 78.4988 128.569ZM45.61 70.9811C43.7089 64.2781 44.5123 61.8433 45.1561 60.9969 45.6039 60.4265 46.3152 60.1199 47.0388 60.1752L47.4927 60.1752C48.0448 60.2058 48.5168 59.7888 48.5599 59.2368 48.5599 59.0958 49.7557 44.6529 58.311 39.4517 62.5795 36.8452 68.0745 36.9557 74.6248 39.7522 88.0312 45.5293 98.0146 45.1184 104.094 43.7692 111.018 48.89 109.024 57.0528 108.552 58.6535L108.552 58.8559C108.436 59.1872 108.491 59.555 108.705 59.831 108.92 60.107 109.257 60.2542 109.601 60.2235 110.453 60.0703 111.324 60.3708 111.895 61.0269 112.538 61.8733 113.342 64.3079 111.441 71.0111 109.006 79.5971 107.031 80.4311 106.479 80.4311 106.007 80.4619 105.62 80.8236 105.553 81.2959 104.142 90.446 96.8568 101.816 85.677 105.852 81.0406 107.496 75.981 107.496 71.3446 105.852 59.6616 101.749 52.8783 90.2442 51.4983 81.2786 51.4308 80.8064 51.0444 80.4508 50.5721 80.4139 50.0203 80.371 48.0454 79.5676 45.6106 70.9816Z" fill="#FFFFFF" fill-rule="nonzero" fill-opacity="1" transform="matrix(1.00637 0 0 1 2770 1312)"/></g></g></g><path d="M3164.21 1279.33 2396.31 860.524 2400.69 852.476 3168.6 1271.29ZM3173.35 1253 3202.62 1295.06 3151.41 1293.23Z" fill="#000000" fill-rule="nonzero" fill-opacity="1"/><path d="M2606.5 939.5C2668.79 932.28 2702.55 955.463 2773.78 939.5 2845.01 923.537 2857.6 947.479 2927.12 939.5 2996.64 931.521 3035.94 959.159 3115.31 939.5 3194.68 919.841 3259.1 957.701 3303.5 939.5 3327 1006.96 3298.06 1050.41 3303.5 1139.5 3247.34 1144.77 3185.98 1131.35 3143.19 1139.5 3100.4 1147.65 3029.73 1126.82 2982.88 1139.5 2936.03 1152.18 2884.64 1120.38 2794.69 1139.5 2704.74 1158.62 2663.3 1116.97 2606.5 1139.5 2595.95 1075.37 2630.15 1014.88 2606.5 939.5Z" fill="#F2F2F2" fill-rule="evenodd" fill-opacity="1"/><path d="M2606.5 939.5C2662.96 931.018 2707.65 957.324 2773.78 939.5 2839.91 921.676 2885.27 947.217 2948.03 939.5 3010.79 931.783 3035.87 947.211 3122.28 939.5 3208.69 931.789 3249.85 947.316 3303.5 939.5 3307.82 1033.08 3283.42 1065.11 3303.5 1139.5 3234.52 1153.33 3166.3 1120.71 3129.25 1139.5 3092.2 1158.29 3015.95 1136.41 2968.94 1139.5 2921.93 1142.59 2860.75 1123.81 2808.63 1139.5 2756.51 1155.19 2651.81 1125.72 2606.5 1139.5 2593.34 1075.1 2610.57 997.01 2606.5 939.5Z" stroke="#7F6000" stroke-width="3.4375" stroke-linecap="butt" stroke-linejoin="round" stroke-miterlimit="10" stroke-opacity="1" fill="none" fill-rule="evenodd"/><text fill="#7F6000" fill-opacity="1" font-family="Candara,Candara_MSFontService,sans-serif" font-style="normal" font-variant="normal" font-weight="400" font-stretch="normal" font-size="46" text-anchor="start" direction="ltr" writing-mode="lr-tb" unicode-bidi="normal" text-decoration="none" transform="matrix(1 0 0 1 2638.86 999)">Receiver retrieves encrypted </text><text fill="#7F6000" fill-opacity="1" font-family="Candara,Candara_MSFontService,sans-serif" font-style="normal" font-variant="normal" font-weight="400" font-stretch="normal" font-size="46" text-anchor="start" direction="ltr" writing-mode="lr-tb" unicode-bidi="normal" text-decoration="none" transform="matrix(1 0 0 1 2638.86 1054)">message from his/her delivery </text><text fill="#7F6000" fill-opacity="1" font-family="Candara,Candara_MSFontService,sans-serif" font-style="normal" font-variant="normal" font-weight="400" font-stretch="normal" font-size="46" text-anchor="start" direction="ltr" writing-mode="lr-tb" unicode-bidi="normal" text-decoration="none" transform="matrix(1 0 0 1 2638.86 1109)">service</text><path d="M38.4077 15.7267 38.4157 15.7311C40.638 16.9431 41.457 19.7271 40.2451 21.9494 39.0331 24.1717 36.249 24.9907 34.0267 23.7788L34.0187 23.7744C31.7964 22.5624 30.9774 19.7784 32.1894 17.5561 33.4014 15.3338 36.1854 14.5147 38.4077 15.7267ZM54.5114 24.5096 54.5195 24.514C56.7416 25.7263 57.5602 28.5105 56.348 30.7326 55.1357 32.9547 52.3515 33.7734 50.1294 32.5611L50.1213 32.5567C47.8992 31.3444 47.0806 28.5603 48.2929 26.3381 49.5051 24.116 52.2893 23.2974 54.5114 24.5096ZM70.6146 33.2923 70.6227 33.2967C72.8448 34.5089 73.6634 37.2931 72.4512 39.5152 71.2389 41.7374 68.4547 42.556 66.2326 41.3437L66.2245 41.3393C64.0024 40.127 63.1838 37.3429 64.396 35.1208 65.6083 32.8986 68.3925 32.08 70.6146 33.2923ZM86.7178 42.0749 86.7259 42.0793C88.948 43.2916 89.7666 46.0757 88.5543 48.2979 87.3421 50.52 84.5579 51.3386 82.3358 50.1263L82.3277 50.122C80.1056 48.9097 79.287 46.1255 80.4992 43.9034 81.7115 41.6813 84.4957 40.8626 86.7178 42.0749ZM102.819 50.8563 102.827 50.8607C105.05 52.0717 105.87 54.8554 104.659 57.0782 103.448 59.301 100.664 60.1212 98.4413 58.9102L98.4332 58.9058C96.2104 57.6948 95.3902 54.9111 96.6012 52.6883 97.8122 50.4655 100.596 49.6453 102.819 50.8563ZM118.922 59.6389 118.93 59.6433C121.153 60.8543 121.973 63.638 120.762 65.8608 119.551 68.0836 116.767 68.9039 114.544 67.6928L114.536 67.6884C112.314 66.4774 111.493 63.6937 112.704 61.4709 113.915 59.2481 116.699 58.4279 118.922 59.6389ZM135.025 68.4215 135.033 68.4259C137.256 69.637 138.076 72.4206 136.865 74.6435 135.654 76.8663 132.87 77.6865 130.648 76.4755L130.64 76.4711C128.417 75.26 127.597 72.4764 128.808 70.2535 130.019 68.0307 132.802 67.2105 135.025 68.4215ZM151.128 77.2042 151.136 77.2086C153.359 78.4196 154.179 81.2033 152.968 83.4261 151.757 85.6489 148.974 86.4691 146.751 85.2581L146.743 85.2537C144.52 84.0427 143.7 81.259 144.911 79.0362 146.122 76.8134 148.906 75.9931 151.128 77.2042ZM167.232 85.9868 167.24 85.9912C169.462 87.2022 170.283 89.9859 169.072 92.2087 167.861 94.4315 165.077 95.2517 162.854 94.0407L162.846 94.0363C160.623 92.8253 159.803 90.0416 161.014 87.8188 162.225 85.596 165.009 84.7758 167.232 85.9868ZM183.335 94.7694 183.343 94.7738C185.566 95.9848 186.386 98.7685 185.175 100.991 183.964 103.214 181.18 104.034 178.957 102.823L178.949 102.819C176.726 101.608 175.906 98.8242 177.117 96.6014 178.328 94.3786 181.112 93.5584 183.335 94.7694ZM199.438 103.552 199.446 103.556C201.669 104.767 202.489 107.551 201.278 109.774 200.067 111.997 197.283 112.817 195.06 111.606L195.052 111.602C192.83 110.391 192.009 107.607 193.22 105.384 194.431 103.161 197.215 102.341 199.438 103.552ZM215.541 112.335 215.549 112.339C217.772 113.55 218.592 116.334 217.381 118.557 216.17 120.779 213.386 121.6 211.164 120.389L211.156 120.384C208.933 119.173 208.113 116.389 209.324 114.167 210.535 111.944 213.318 111.124 215.541 112.335ZM231.644 121.117 231.652 121.122C233.875 122.333 234.695 125.116 233.484 127.339 232.273 129.562 229.49 130.382 227.267 129.171L227.259 129.167C225.036 127.956 224.216 125.172 225.427 122.949 226.638 120.726 229.422 119.906 231.644 121.117ZM247.748 129.9 247.756 129.904C249.978 131.115 250.799 133.899 249.588 136.122 248.377 138.345 245.593 139.165 243.37 137.954L243.362 137.949C241.139 136.738 240.319 133.955 241.53 131.732 242.741 129.509 245.525 128.689 247.748 129.9ZM263.851 138.683 263.859 138.687C266.082 139.898 266.902 142.682 265.691 144.904 264.48 147.127 261.696 147.947 259.473 146.736L259.465 146.732C257.242 145.521 256.422 142.737 257.633 140.515 258.844 138.292 261.628 137.472 263.851 138.683ZM279.954 147.465 279.962 147.47C282.185 148.681 283.005 151.464 281.794 153.687 280.583 155.91 277.799 156.73 275.576 155.519L275.568 155.515C273.346 154.304 272.525 151.52 273.736 149.297 274.947 147.074 277.731 146.254 279.954 147.465ZM296.057 156.248 296.065 156.252C298.288 157.463 299.108 160.247 297.897 162.47 296.686 164.693 293.902 165.513 291.68 164.302L291.672 164.297C289.449 163.086 288.629 160.303 289.84 158.08 291.051 155.857 293.834 155.037 296.057 156.248ZM312.16 165.03 312.168 165.035C314.391 166.246 315.211 169.03 314 171.252 312.789 173.475 310.006 174.295 307.783 173.084L307.775 173.08C305.552 171.869 304.732 169.085 305.943 166.862 307.154 164.64 309.938 163.819 312.16 165.03ZM328.264 173.813 328.272 173.817C330.494 175.028 331.315 177.812 330.104 180.035 328.893 182.258 326.109 183.078 323.886 181.867L323.878 181.863C321.655 180.652 320.835 177.868 322.046 175.645 323.257 173.422 326.041 172.602 328.264 173.813ZM344.367 182.596 344.375 182.6C346.598 183.811 347.418 186.595 346.207 188.818 344.996 191.04 342.212 191.861 339.989 190.65L339.981 190.645C337.758 189.434 336.938 186.651 338.149 184.428 339.36 182.205 342.144 181.385 344.367 182.596ZM360.474 191.381 360.482 191.385C362.704 192.599 363.521 195.383 362.308 197.605 361.094 199.826 358.31 200.643 356.088 199.43L356.08 199.425C353.859 198.212 353.041 195.427 354.255 193.206 355.468 190.984 358.253 190.167 360.474 191.381ZM376.577 200.163 376.586 200.168C378.807 201.381 379.624 204.166 378.411 206.387 377.197 208.609 374.413 209.426 372.191 208.213L372.183 208.208C369.962 206.995 369.145 204.21 370.358 201.989 371.571 199.767 374.356 198.95 376.577 200.163ZM392.685 208.949 392.693 208.953C394.913 210.169 395.727 212.955 394.511 215.175 393.295 217.395 390.51 218.209 388.29 216.993L388.282 216.988C386.062 215.772 385.248 212.987 386.464 210.766 387.68 208.546 390.465 207.732 392.685 208.949ZM408.789 217.731 408.797 217.736C411.017 218.952 411.831 221.737 410.615 223.957 409.398 226.177 406.613 226.991 404.393 225.775L404.385 225.771C402.165 224.555 401.351 221.769 402.567 219.549 403.783 217.329 406.568 216.515 408.789 217.731ZM424.892 226.514 424.9 226.518C427.12 227.734 427.934 230.52 426.718 232.74 425.502 234.96 422.716 235.774 420.496 234.558L420.488 234.553C418.268 233.337 417.454 230.552 418.67 228.332 419.886 226.112 422.672 225.298 424.892 226.514ZM440.995 235.296 441.003 235.301C443.223 236.517 444.037 239.302 442.821 241.522 441.605 243.743 438.819 244.556 436.599 243.34L436.591 243.336C434.371 242.12 433.557 239.334 434.773 237.114 435.989 234.894 438.775 234.08 440.995 235.296ZM457.098 244.079 457.106 244.083C459.326 245.3 460.14 248.085 458.924 250.305 457.708 252.525 454.923 253.339 452.702 252.123L452.694 252.119C450.474 250.903 449.66 248.117 450.876 245.897 452.093 243.677 454.878 242.863 457.098 244.079ZM473.201 252.862 473.209 252.866C475.429 254.082 476.243 256.868 475.027 259.088 473.811 261.308 471.026 262.122 468.806 260.906L468.798 260.901C466.578 259.685 465.764 256.9 466.98 254.68 468.196 252.46 470.981 251.646 473.201 252.862ZM489.305 261.644 489.313 261.649C491.533 262.865 492.347 265.65 491.131 267.87 489.914 270.09 487.129 270.904 484.909 269.688L484.901 269.684C482.681 268.468 481.867 265.682 483.083 263.462 484.299 261.242 487.084 260.428 489.305 261.644ZM505.408 270.427 505.416 270.431C507.636 271.647 508.45 274.433 507.234 276.653 506.018 278.873 503.232 279.687 501.012 278.471L501.004 278.467C498.784 277.251 497.97 274.465 499.186 272.245 500.402 270.025 503.188 269.211 505.408 270.427ZM521.511 279.21 521.519 279.214C523.739 280.43 524.553 283.216 523.337 285.436 522.121 287.656 519.335 288.47 517.115 287.254L517.107 287.249C514.887 286.033 514.073 283.248 515.289 281.028 516.505 278.807 519.291 277.994 521.511 279.21ZM537.614 287.992 537.622 287.997C539.842 289.213 540.656 291.998 539.44 294.218 538.224 296.438 535.438 297.252 533.218 296.036L533.21 296.032C530.99 294.816 530.176 292.03 531.392 289.81 532.608 287.59 535.394 286.776 537.614 287.992ZM553.717 296.775 553.725 296.779C555.945 297.995 556.759 300.781 555.543 303.001 554.327 305.221 551.542 306.035 549.322 304.819L549.314 304.814C547.093 303.598 546.28 300.813 547.496 298.593 548.712 296.373 551.497 295.559 553.717 296.775ZM569.82 305.557 569.828 305.562C572.049 306.778 572.862 309.563 571.646 311.784 570.43 314.004 567.645 314.818 565.425 313.602L565.417 313.597C563.197 312.381 562.383 309.596 563.599 307.375 564.815 305.155 567.6 304.341 569.82 305.557ZM585.924 314.34 585.932 314.345C588.152 315.561 588.966 318.346 587.75 320.566 586.534 322.786 583.748 323.6 581.528 322.384L581.52 322.38C579.3 321.164 578.486 318.378 579.702 316.158 580.918 313.938 583.704 313.124 585.924 314.34ZM602.027 323.123 602.035 323.127C604.255 324.343 605.069 327.129 603.853 329.349 602.637 331.569 599.851 332.383 597.631 331.167L597.623 331.162C595.403 329.946 594.589 327.161 595.805 324.941 597.021 322.721 599.807 321.907 602.027 323.123ZM618.13 331.905 618.138 331.91C620.358 333.126 621.172 335.911 619.956 338.131 618.74 340.352 615.954 341.165 613.734 339.949L613.726 339.945C611.506 338.729 610.692 335.943 611.908 333.723 613.124 331.503 615.91 330.689 618.13 331.905ZM634.233 340.688 634.241 340.692C636.461 341.908 637.275 344.694 636.059 346.914 634.843 349.134 632.058 349.948 629.838 348.732L629.829 348.728C627.609 347.512 626.795 344.726 628.012 342.506 629.228 340.286 632.013 339.472 634.233 340.688ZM650.336 349.471 650.344 349.475C652.564 350.691 653.378 353.477 652.162 355.697 650.946 357.917 648.161 358.731 645.941 357.515L645.933 357.51C643.713 356.294 642.899 353.509 644.115 351.289 645.331 349.069 648.116 348.255 650.336 349.471ZM666.44 358.253 666.448 358.258C668.668 359.474 669.482 362.259 668.266 364.479 667.049 366.699 664.264 367.513 662.044 366.297L662.036 366.293C659.816 365.077 659.002 362.291 660.218 360.071 661.434 357.851 664.219 357.037 666.44 358.253ZM682.543 367.036 682.551 367.04C684.771 368.256 685.585 371.042 684.369 373.262 683.153 375.482 680.367 376.296 678.147 375.08L678.139 375.075C675.919 373.859 675.105 371.074 676.321 368.854 677.537 366.634 680.323 365.82 682.543 367.036ZM698.637 375.814 698.645 375.818C700.868 377.029 701.688 379.813 700.477 382.036 699.265 384.259 696.482 385.078 694.259 383.867L694.251 383.863C692.028 382.652 691.208 379.868 692.42 377.645 693.631 375.422 696.415 374.602 698.637 375.814ZM714.74 384.596 714.748 384.601C716.971 385.812 717.791 388.596 716.58 390.818 715.369 393.041 712.585 393.861 710.362 392.65L710.354 392.645C708.131 391.434 707.312 388.65 708.523 386.428 709.734 384.205 712.518 383.385 714.74 384.596ZM730.844 393.379 730.852 393.383C733.074 394.595 733.894 397.378 732.683 399.601 731.472 401.824 728.688 402.644 726.465 401.432L726.457 401.428C724.235 400.217 723.415 397.433 724.626 395.21 725.837 392.988 728.621 392.168 730.844 393.379ZM746.947 402.162 746.955 402.166C749.178 403.377 749.997 406.161 748.786 408.384 747.575 410.606 744.791 411.426 742.569 410.215L742.561 410.211C740.338 408.999 739.518 406.216 740.729 403.993 741.94 401.77 744.724 400.95 746.947 402.162ZM763.05 410.944 763.058 410.949C765.281 412.16 766.101 414.944 764.889 417.166 763.678 419.389 760.894 420.209 758.672 418.998L758.664 418.993C756.441 417.782 755.621 414.998 756.832 412.776 758.044 410.553 760.827 409.733 763.05 410.944ZM779.153 419.727 779.161 419.731C781.384 420.942 782.204 423.726 780.993 425.949 779.781 428.172 776.998 428.991 774.775 427.78L774.767 427.776C772.544 426.565 771.724 423.781 772.935 421.558 774.147 419.335 776.931 418.516 779.153 419.727ZM795.256 428.509 795.264 428.514C797.487 429.725 798.307 432.509 797.096 434.731 795.885 436.954 793.101 437.774 790.878 436.563L790.87 436.558C788.647 435.347 787.827 432.564 789.039 430.341 790.25 428.118 793.034 427.298 795.256 428.509ZM29.2651 42.0645 0 0 51.2107 1.82666Z" fill="#000000" fill-rule="nonzero" fill-opacity="1" transform="matrix(-1 0 0 1 3202.62 1499.5)"/><path d="M1892.21 1922.34 1892.2 1922.33C1889.98 1921.12 1889.16 1918.33 1890.37 1916.11 1891.58 1913.89 1894.37 1913.07 1896.59 1914.28L1896.6 1914.29C1898.82 1915.5 1899.64 1918.28 1898.43 1920.51 1897.21 1922.73 1894.43 1923.55 1892.21 1922.34ZM1876.1 1913.55 1876.1 1913.55C1873.87 1912.34 1873.06 1909.55 1874.27 1907.33 1875.48 1905.11 1878.26 1904.29 1880.49 1905.5L1880.49 1905.51C1882.72 1906.72 1883.54 1909.5 1882.32 1911.72 1881.11 1913.95 1878.33 1914.76 1876.1 1913.55ZM1860 1904.77 1859.99 1904.77C1857.77 1903.55 1856.95 1900.77 1858.17 1898.55 1859.38 1896.32 1862.16 1895.51 1864.38 1896.72L1864.39 1896.72C1866.61 1897.94 1867.43 1900.72 1866.22 1902.94 1865.01 1905.16 1862.22 1905.98 1860 1904.77ZM1843.9 1895.99 1843.89 1895.98C1841.67 1894.77 1840.85 1891.99 1842.06 1889.76 1843.27 1887.54 1846.06 1886.72 1848.28 1887.94L1848.29 1887.94C1850.51 1889.15 1851.33 1891.94 1850.12 1894.16 1848.9 1896.38 1846.12 1897.2 1843.9 1895.99ZM1827.8 1887.21 1827.79 1887.2C1825.57 1885.99 1824.75 1883.21 1825.96 1880.98 1827.17 1878.76 1829.95 1877.94 1832.17 1879.15L1832.18 1879.16C1834.41 1880.37 1835.23 1883.15 1834.02 1885.37 1832.8 1887.6 1830.02 1888.42 1827.8 1887.21ZM1811.69 1878.42 1811.69 1878.42C1809.46 1877.21 1808.64 1874.42 1809.85 1872.2 1811.07 1869.98 1813.85 1869.16 1816.07 1870.37L1816.08 1870.37C1818.3 1871.58 1819.12 1874.37 1817.91 1876.59 1816.7 1878.81 1813.92 1879.63 1811.69 1878.42ZM1795.59 1869.64 1795.58 1869.64C1793.36 1868.43 1792.54 1865.64 1793.75 1863.42 1794.96 1861.2 1797.75 1860.38 1799.97 1861.59L1799.98 1861.59C1802.2 1862.8 1803.02 1865.59 1801.81 1867.81 1800.6 1870.03 1797.81 1870.85 1795.59 1869.64ZM1779.49 1860.86 1779.48 1860.85C1777.26 1859.64 1776.44 1856.86 1777.65 1854.64 1778.86 1852.41 1781.64 1851.59 1783.87 1852.8L1783.87 1852.81C1786.1 1854.02 1786.92 1856.8 1785.71 1859.03 1784.49 1861.25 1781.71 1862.07 1779.49 1860.86ZM1763.38 1852.08 1763.38 1852.07C1761.15 1850.86 1760.33 1848.08 1761.54 1845.85 1762.76 1843.63 1765.54 1842.81 1767.76 1844.02L1767.77 1844.03C1769.99 1845.24 1770.81 1848.02 1769.6 1850.24 1768.39 1852.47 1765.61 1853.29 1763.38 1852.08ZM1747.28 1843.29 1747.27 1843.29C1745.05 1842.08 1744.23 1839.29 1745.44 1837.07 1746.65 1834.85 1749.44 1834.03 1751.66 1835.24L1751.67 1835.24C1753.89 1836.45 1754.71 1839.24 1753.5 1841.46 1752.29 1843.68 1749.5 1844.5 1747.28 1843.29ZM1731.18 1834.51 1731.17 1834.51C1728.95 1833.29 1728.13 1830.51 1729.34 1828.29 1730.55 1826.07 1733.33 1825.25 1735.56 1826.46L1735.56 1826.46C1737.79 1827.67 1738.61 1830.46 1737.4 1832.68 1736.18 1834.9 1733.4 1835.72 1731.18 1834.51ZM1715.08 1825.73 1715.07 1825.72C1712.84 1824.51 1712.02 1821.73 1713.23 1819.51 1714.45 1817.28 1717.23 1816.46 1719.45 1817.67L1719.46 1817.68C1721.68 1818.89 1722.5 1821.67 1721.29 1823.9 1720.08 1826.12 1717.3 1826.94 1715.08 1825.73ZM1698.97 1816.94 1698.96 1816.94C1696.74 1815.73 1695.92 1812.95 1697.13 1810.72 1698.34 1808.5 1701.13 1807.68 1703.35 1808.89L1703.36 1808.9C1705.58 1810.11 1706.4 1812.89 1705.19 1815.11 1703.98 1817.34 1701.19 1818.16 1698.97 1816.94ZM1682.87 1808.16 1682.86 1808.16C1680.64 1806.95 1679.82 1804.16 1681.03 1801.94 1682.24 1799.72 1685.02 1798.9 1687.25 1800.11L1687.25 1800.11C1689.48 1801.32 1690.3 1804.11 1689.09 1806.33 1687.88 1808.55 1685.09 1809.37 1682.87 1808.16ZM1666.77 1799.38 1666.76 1799.38C1664.53 1798.16 1663.71 1795.38 1664.93 1793.16 1666.14 1790.93 1668.92 1790.11 1671.14 1791.33L1671.15 1791.33C1673.37 1792.54 1674.19 1795.32 1672.98 1797.55 1671.77 1799.77 1668.99 1800.59 1666.77 1799.38ZM1650.66 1790.6 1650.65 1790.59C1648.43 1789.38 1647.61 1786.6 1648.82 1784.38 1650.03 1782.15 1652.82 1781.33 1655.04 1782.54L1655.05 1782.55C1657.27 1783.76 1658.09 1786.54 1656.88 1788.76 1655.67 1790.99 1652.89 1791.81 1650.66 1790.6ZM1634.56 1781.81 1634.55 1781.81C1632.33 1780.6 1631.51 1777.82 1632.72 1775.59 1633.93 1773.37 1636.71 1772.55 1638.94 1773.76L1638.94 1773.76C1641.17 1774.98 1641.99 1777.76 1640.78 1779.98 1639.57 1782.21 1636.78 1783.03 1634.56 1781.81ZM1618.46 1773.03 1618.45 1773.03C1616.22 1771.82 1615.4 1769.03 1616.62 1766.81 1617.83 1764.59 1620.61 1763.77 1622.83 1764.98L1622.84 1764.98C1625.06 1766.19 1625.88 1768.98 1624.67 1771.2 1623.46 1773.42 1620.68 1774.24 1618.46 1773.03ZM1602.35 1764.25 1602.34 1764.24C1600.12 1763.03 1599.3 1760.25 1600.51 1758.03 1601.72 1755.8 1604.51 1754.98 1606.73 1756.2L1606.74 1756.2C1608.96 1757.41 1609.78 1760.19 1608.57 1762.42 1607.36 1764.64 1604.58 1765.46 1602.35 1764.25ZM1586.25 1755.47 1586.24 1755.46C1584.02 1754.25 1583.2 1751.47 1584.41 1749.24 1585.62 1747.02 1588.4 1746.2 1590.63 1747.41L1590.64 1747.42C1592.86 1748.63 1593.68 1751.41 1592.47 1753.63 1591.26 1755.86 1588.47 1756.68 1586.25 1755.47ZM1570.14 1746.68 1570.13 1746.68C1567.91 1745.46 1567.1 1742.68 1568.31 1740.46 1569.52 1738.24 1572.31 1737.42 1574.53 1738.63L1574.54 1738.64C1576.76 1739.85 1577.57 1742.63 1576.36 1744.86 1575.15 1747.08 1572.36 1747.89 1570.14 1746.68ZM1554.04 1737.9 1554.03 1737.89C1551.81 1736.68 1550.99 1733.9 1552.21 1731.67 1553.42 1729.45 1556.2 1728.64 1558.42 1729.85L1558.43 1729.85C1560.65 1731.07 1561.47 1733.85 1560.26 1736.07 1559.04 1738.3 1556.26 1739.11 1554.04 1737.9ZM1537.93 1729.11 1537.92 1729.11C1535.7 1727.89 1534.89 1725.11 1536.1 1722.89 1537.32 1720.67 1540.11 1719.85 1542.33 1721.07L1542.33 1721.07C1544.55 1722.29 1545.37 1725.08 1544.15 1727.3 1542.94 1729.52 1540.15 1730.33 1537.93 1729.11ZM1521.83 1720.33 1521.82 1720.33C1519.6 1719.11 1518.79 1716.32 1520 1714.1 1521.22 1711.88 1524 1711.07 1526.22 1712.29L1526.23 1712.29C1528.45 1713.51 1529.27 1716.29 1528.05 1718.51 1526.83 1720.73 1524.05 1721.55 1521.83 1720.33ZM1505.72 1711.55 1505.72 1711.54C1503.5 1710.33 1502.68 1707.54 1503.9 1705.32 1505.11 1703.1 1507.9 1702.29 1510.12 1703.5L1510.13 1703.51C1512.35 1704.72 1513.16 1707.51 1511.95 1709.73 1510.73 1711.95 1507.94 1712.76 1505.72 1711.55ZM1489.62 1702.77 1489.61 1702.76C1487.39 1701.55 1486.58 1698.76 1487.8 1696.54 1489.01 1694.32 1491.8 1693.51 1494.02 1694.72L1494.03 1694.73C1496.24 1695.94 1497.06 1698.73 1495.84 1700.95 1494.63 1703.17 1491.84 1703.98 1489.62 1702.77ZM1473.52 1693.98 1473.51 1693.98C1471.29 1692.76 1470.48 1689.98 1471.69 1687.76 1472.91 1685.54 1475.69 1684.72 1477.91 1685.94L1477.92 1685.94C1480.14 1687.16 1480.96 1689.95 1479.74 1692.17 1478.52 1694.39 1475.74 1695.2 1473.52 1693.98ZM1457.41 1685.2 1457.41 1685.2C1455.19 1683.98 1454.37 1681.19 1455.59 1678.97 1456.8 1676.75 1459.59 1675.94 1461.81 1677.16L1461.82 1677.16C1464.04 1678.38 1464.85 1681.16 1463.64 1683.38 1462.42 1685.6 1459.64 1686.42 1457.41 1685.2ZM1441.31 1676.42 1441.3 1676.41C1439.08 1675.2 1438.27 1672.41 1439.49 1670.19 1440.7 1667.97 1443.49 1667.16 1445.71 1668.37L1445.72 1668.38C1447.94 1669.59 1448.75 1672.38 1447.53 1674.6 1446.32 1676.82 1443.53 1677.63 1441.31 1676.42ZM1425.21 1667.64 1425.2 1667.63C1422.98 1666.41 1422.17 1663.63 1423.38 1661.41 1424.6 1659.19 1427.38 1658.38 1429.6 1659.59L1429.61 1659.6C1431.83 1660.81 1432.65 1663.6 1431.43 1665.82 1430.21 1668.04 1427.43 1668.85 1425.21 1667.64ZM1409.11 1658.85 1409.1 1658.85C1406.88 1657.63 1406.06 1654.85 1407.28 1652.63 1408.5 1650.41 1411.28 1649.59 1413.5 1650.81L1413.51 1650.81C1415.73 1652.03 1416.54 1654.81 1415.33 1657.03 1414.11 1659.25 1411.33 1660.07 1409.11 1658.85ZM1393 1650.07 1392.99 1650.07C1390.77 1648.85 1389.96 1646.06 1391.18 1643.84 1392.39 1641.62 1395.18 1640.81 1397.4 1642.03L1397.41 1642.03C1399.63 1643.25 1400.44 1646.03 1399.22 1648.25 1398.01 1650.47 1395.22 1651.29 1393 1650.07ZM1376.9 1641.29 1376.89 1641.28C1374.67 1640.07 1373.86 1637.28 1375.07 1635.06 1376.29 1632.84 1379.07 1632.03 1381.29 1633.24L1381.3 1633.25C1383.52 1634.46 1384.34 1637.25 1383.12 1639.47 1381.9 1641.69 1379.12 1642.5 1376.9 1641.29ZM1360.8 1632.5 1360.79 1632.5C1358.57 1631.28 1357.75 1628.5 1358.97 1626.28 1360.19 1624.06 1362.97 1623.24 1365.19 1624.46L1365.2 1624.47C1367.42 1625.68 1368.23 1628.47 1367.02 1630.69 1365.8 1632.91 1363.02 1633.72 1360.8 1632.5ZM1344.69 1623.72 1344.68 1623.72C1342.46 1622.5 1341.65 1619.72 1342.87 1617.5 1344.08 1615.28 1346.87 1614.46 1349.09 1615.68L1349.1 1615.68C1351.32 1616.9 1352.13 1619.68 1350.91 1621.9 1349.7 1624.12 1346.91 1624.94 1344.69 1623.72ZM1328.59 1614.94 1328.58 1614.93C1326.36 1613.72 1325.55 1610.93 1326.76 1608.71 1327.98 1606.49 1330.77 1605.68 1332.99 1606.9L1332.99 1606.9C1335.21 1608.12 1336.03 1610.9 1334.81 1613.12 1333.59 1615.34 1330.81 1616.16 1328.59 1614.94ZM1312.49 1606.16 1312.48 1606.15C1310.26 1604.94 1309.44 1602.15 1310.66 1599.93 1311.88 1597.71 1314.66 1596.9 1316.88 1598.11L1316.89 1598.12C1319.11 1599.33 1319.92 1602.12 1318.71 1604.34 1317.49 1606.56 1314.71 1607.37 1312.49 1606.16ZM1296.38 1597.37 1296.38 1597.37C1294.15 1596.15 1293.34 1593.37 1294.56 1591.15 1295.77 1588.93 1298.56 1588.11 1300.78 1589.33L1300.79 1589.33C1303.01 1590.55 1303.82 1593.34 1302.6 1595.56 1301.39 1597.78 1298.6 1598.59 1296.38 1597.37ZM1280.28 1588.59 1280.27 1588.59C1278.05 1587.37 1277.24 1584.59 1278.45 1582.37 1279.67 1580.15 1282.46 1579.33 1284.68 1580.55L1284.68 1580.55C1286.9 1581.77 1287.72 1584.55 1286.5 1586.77 1285.29 1588.99 1282.5 1589.81 1280.28 1588.59ZM1264.18 1579.81 1264.17 1579.8C1261.95 1578.59 1261.13 1575.8 1262.35 1573.58 1263.57 1571.36 1266.35 1570.55 1268.57 1571.76L1268.58 1571.77C1270.8 1572.99 1271.61 1575.77 1270.4 1577.99 1269.18 1580.21 1266.4 1581.02 1264.18 1579.81ZM1248.07 1571.03 1248.07 1571.02C1245.85 1569.81 1245.03 1567.02 1246.25 1564.8 1247.46 1562.58 1250.25 1561.77 1252.47 1562.98L1252.48 1562.99C1254.7 1564.2 1255.51 1566.99 1254.3 1569.21 1253.08 1571.43 1250.29 1572.24 1248.07 1571.03ZM1231.98 1562.25 1231.97 1562.24C1229.75 1561.03 1228.93 1558.25 1230.14 1556.03 1231.35 1553.8 1234.13 1552.98 1236.36 1554.19L1236.37 1554.2C1238.59 1555.41 1239.41 1558.19 1238.2 1560.42 1236.99 1562.64 1234.2 1563.46 1231.98 1562.25ZM1215.88 1553.47 1215.87 1553.46C1213.65 1552.25 1212.83 1549.47 1214.04 1547.24 1215.25 1545.02 1218.03 1544.2 1220.25 1545.41L1220.26 1545.42C1222.48 1546.63 1223.3 1549.41 1222.09 1551.63 1220.88 1553.86 1218.1 1554.68 1215.88 1553.47ZM1199.77 1544.68 1199.76 1544.68C1197.54 1543.47 1196.72 1540.68 1197.93 1538.46 1199.14 1536.24 1201.93 1535.42 1204.15 1536.63L1204.16 1536.63C1206.38 1537.85 1207.2 1540.63 1205.99 1542.85 1204.78 1545.07 1202 1545.89 1199.77 1544.68ZM1183.67 1535.9 1183.66 1535.9C1181.44 1534.68 1180.62 1531.9 1181.83 1529.68 1183.04 1527.46 1185.82 1526.64 1188.05 1527.85L1188.06 1527.85C1190.28 1529.06 1191.1 1531.85 1189.89 1534.07 1188.68 1536.29 1185.89 1537.11 1183.67 1535.9ZM1167.57 1527.12 1167.56 1527.11C1165.34 1525.9 1164.52 1523.12 1165.73 1520.9 1166.94 1518.67 1169.72 1517.85 1171.94 1519.06L1171.95 1519.07C1174.18 1520.28 1175 1523.06 1173.78 1525.29 1172.57 1527.51 1169.79 1528.33 1167.57 1527.12ZM1151.46 1518.34 1151.45 1518.33C1149.23 1517.12 1148.41 1514.34 1149.62 1512.11 1150.83 1509.89 1153.62 1509.07 1155.84 1510.28L1155.85 1510.29C1158.07 1511.5 1158.89 1514.28 1157.68 1516.5 1156.47 1518.73 1153.69 1519.55 1151.46 1518.34ZM1135.36 1509.55 1135.35 1509.55C1133.13 1508.34 1132.31 1505.55 1133.52 1503.33 1134.73 1501.11 1137.52 1500.29 1139.74 1501.5L1139.75 1501.5C1141.97 1502.71 1142.79 1505.5 1141.58 1507.72 1140.37 1509.94 1137.58 1510.76 1135.36 1509.55ZM1901.35 1896 1930.62 1938.06 1879.41 1936.24Z" fill="#000000" fill-rule="nonzero" fill-opacity="1"/><path d="M1072.5 1627.5C1134.79 1620.28 1168.55 1643.46 1239.78 1627.5 1311.01 1611.54 1323.6 1635.48 1393.12 1627.5 1462.64 1619.52 1501.94 1647.15 1581.31 1627.5 1660.68 1607.85 1725.1 1645.69 1769.5 1627.5 1785.59 1683.12 1764.21 1726.67 1769.5 1779.89 1774.79 1833.11 1765.94 1892.26 1769.5 1938.5 1730.62 1942.91 1665.81 1919.56 1595.25 1938.5 1524.7 1957.44 1497.01 1919.39 1407.06 1938.5 1317.11 1957.61 1315.84 1933.79 1253.72 1938.5 1191.6 1943.21 1144 1931.31 1072.5 1938.5 1060.62 1879.83 1081.88 1828.78 1072.5 1783 1063.12 1737.22 1072.89 1674.06 1072.5 1627.5Z" fill="#F2F2F2" fill-rule="evenodd" fill-opacity="1"/><path d="M1072.5 1627.5C1148.58 1619.44 1194.76 1637.29 1239.78 1627.5 1284.8 1617.71 1370.03 1633.16 1414.03 1627.5 1458.03 1621.84 1554.77 1638.19 1595.25 1627.5 1635.73 1616.81 1702.36 1644.3 1769.5 1627.5 1780.07 1698.46 1763.27 1734.66 1769.5 1786.11 1775.73 1837.56 1769.32 1874.39 1769.5 1938.5 1676.49 1943.23 1625.8 1934.84 1581.31 1938.5 1536.82 1942.16 1485.43 1924.49 1393.12 1938.5 1300.81 1952.51 1207.03 1906.31 1072.5 1938.5 1061 1884.04 1075.57 1830.69 1072.5 1786.11 1069.43 1741.53 1082.38 1661.12 1072.5 1627.5Z" stroke="#7F6000" stroke-width="3.4375" stroke-linecap="butt" stroke-linejoin="round" stroke-miterlimit="10" stroke-opacity="1" fill="none" fill-rule="evenodd"/><text fill="#7F6000" fill-opacity="1" font-family="Candara,Candara_MSFontService,sans-serif" font-style="normal" font-variant="normal" font-weight="400" font-stretch="normal" font-size="46" text-anchor="start" direction="ltr" writing-mode="lr-tb" unicode-bidi="normal" text-decoration="none" transform="matrix(1 0 0 1 1104.7 1686)">If the primary delivery service is </text><text fill="#7F6000" fill-opacity="1" font-family="Candara,Candara_MSFontService,sans-serif" font-style="normal" font-variant="normal" font-weight="400" font-stretch="normal" font-size="46" text-anchor="start" direction="ltr" writing-mode="lr-tb" unicode-bidi="normal" text-decoration="none" transform="matrix(1 0 0 1 1104.7 1741)">not available, the sender sends </text><text fill="#7F6000" fill-opacity="1" font-family="Candara,Candara_MSFontService,sans-serif" font-style="normal" font-variant="normal" font-weight="400" font-stretch="normal" font-size="46" text-anchor="start" direction="ltr" writing-mode="lr-tb" unicode-bidi="normal" text-decoration="none" transform="matrix(1 0 0 1 1104.7 1796)">encrypted message to the </text><text fill="#7F6000" fill-opacity="1" font-family="Candara,Candara_MSFontService,sans-serif" font-style="normal" font-variant="normal" font-weight="400" font-stretch="normal" font-size="46" text-anchor="start" direction="ltr" writing-mode="lr-tb" unicode-bidi="normal" text-decoration="none" transform="matrix(1 0 0 1 1104.7 1851)">receivers fallback delivery </text><text fill="#7F6000" fill-opacity="1" font-family="Candara,Candara_MSFontService,sans-serif" font-style="normal" font-variant="normal" font-weight="400" font-stretch="normal" font-size="46" text-anchor="start" direction="ltr" writing-mode="lr-tb" unicode-bidi="normal" text-decoration="none" transform="matrix(1 0 0 1 1104.7 1906)">service</text><path d="M2606.5 1643.5C2668.79 1636.28 2702.55 1659.46 2773.78 1643.5 2845.01 1627.54 2857.6 1651.48 2927.12 1643.5 2996.64 1635.52 3035.94 1663.16 3115.31 1643.5 3194.68 1623.84 3259.1 1661.7 3303.5 1643.5 3327 1710.96 3298.06 1754.41 3303.5 1843.5 3247.34 1848.77 3185.98 1835.35 3143.19 1843.5 3100.4 1851.65 3029.73 1830.82 2982.88 1843.5 2936.03 1856.18 2884.64 1824.38 2794.69 1843.5 2704.74 1862.62 2663.3 1820.97 2606.5 1843.5 2595.95 1779.37 2630.15 1718.88 2606.5 1643.5Z" fill="#F2F2F2" fill-rule="evenodd" fill-opacity="1"/><path d="M2606.5 1643.5C2662.96 1635.02 2707.65 1661.32 2773.78 1643.5 2839.91 1625.68 2885.27 1651.22 2948.03 1643.5 3010.79 1635.78 3035.87 1651.21 3122.28 1643.5 3208.69 1635.79 3249.85 1651.32 3303.5 1643.5 3307.82 1737.08 3283.42 1769.11 3303.5 1843.5 3234.52 1857.33 3166.3 1824.71 3129.25 1843.5 3092.2 1862.29 3015.95 1840.41 2968.94 1843.5 2921.93 1846.59 2860.75 1827.81 2808.63 1843.5 2756.51 1859.19 2651.81 1829.72 2606.5 1843.5 2593.34 1779.1 2610.57 1701.01 2606.5 1643.5Z" stroke="#7F6000" stroke-width="3.4375" stroke-linecap="butt" stroke-linejoin="round" stroke-miterlimit="10" stroke-opacity="1" fill="none" fill-rule="evenodd"/><text fill="#7F6000" fill-opacity="1" font-family="Candara,Candara_MSFontService,sans-serif" font-style="normal" font-variant="normal" font-weight="400" font-stretch="normal" font-size="46" text-anchor="start" direction="ltr" writing-mode="lr-tb" unicode-bidi="normal" text-decoration="none" transform="matrix(1 0 0 1 2638.86 1703)">Receiver retrieves encrypted </text><text fill="#7F6000" fill-opacity="1" font-family="Candara,Candara_MSFontService,sans-serif" font-style="normal" font-variant="normal" font-weight="400" font-stretch="normal" font-size="46" text-anchor="start" direction="ltr" writing-mode="lr-tb" unicode-bidi="normal" text-decoration="none" transform="matrix(1 0 0 1 2638.86 1758)">message from his/her delivery </text><text fill="#7F6000" fill-opacity="1" font-family="Candara,Candara_MSFontService,sans-serif" font-style="normal" font-variant="normal" font-weight="400" font-stretch="normal" font-size="46" text-anchor="start" direction="ltr" writing-mode="lr-tb" unicode-bidi="normal" text-decoration="none" transform="matrix(1 0 0 1 2638.86 1813)">service</text></g></svg>