<svg width="3304" height="1865" xmlns="http://www.w3.org/2000/svg" xmlns:xlink="http://www.w3.org/1999/xlink" xml:space="preserve" overflow="hidden"><defs><clipPath id="clip0"><rect x="536" y="307" width="3304" height="1865"/></clipPath><clipPath id="clip1"><rect x="536" y="307" width="3304" height="1865"/></clipPath></defs><g clip-path="url(#clip0)" transform="translate(-536 -307)"><g clip-path="url(#clip1)"><rect x="538" y="309" width="702" height="1861" fill="#8B7FF4" fill-opacity="1"/><text fill="#FFFFFF" fill-opacity="1" font-family="Candara,Candara_MSFontService,sans-serif" font-style="normal" font-variant="normal" font-weight="400" font-stretch="normal" font-size="64" text-anchor="start" direction="ltr" writing-mode="lr-tb" unicode-bidi="normal" text-decoration="none" transform="matrix(1 0 0 1 759.226 463)">Main </text><text fill="#FFFFFF" fill-opacity="1" font-family="Candara,Candara_MSFontService,sans-serif" font-style="normal" font-variant="normal" font-weight="400" font-stretch="normal" font-size="64" text-anchor="start" direction="ltr" writing-mode="lr-tb" unicode-bidi="normal" text-decoration="none" transform="matrix(1 0 0 1 908.185 463)">App</text><rect x="1283.5" y="309.5" width="1811" height="1327" stroke="#544393" stroke-width="3.4375" stroke-linecap="butt" stroke-linejoin="round" stroke-miterlimit="10" stroke-opacity="1" fill="#544393" fill-opacity="0.207843"/><text fill="#000000" fill-opacity="1" font-family="Candara Light,Candara Light_MSFontService,sans-serif" font-style="normal" font-variant="normal" font-weight="300" font-stretch="normal" font-size="39" text-anchor="start" direction="ltr" writing-mode="lr-tb" unicode-bidi="normal" text-decoration="none" transform="matrix(1 0 0 1 1928.3 378)">1. Limited Scope Profile Creation</text><path d="M1419 455.277C1419 430.823 1438.82 411 1463.28 411L2991.72 411C3016.18 411 3036 430.823 3036 455.277L3036 758.723C3036 783.177 3016.18 803 2991.72 803L1463.28 803C1438.82 803 1419 783.177 1419 758.723Z" fill="#548235" fill-rule="evenodd" fill-opacity="0.329412"/><rect x="1283.5" y="1662.5" width="1811" height="508" stroke="#544393" stroke-width="3.4375" stroke-linecap="butt" stroke-linejoin="round" stroke-miterlimit="10" stroke-opacity="1" fill="#544393" fill-opacity="0.368627"/><text fill="#000000" fill-opacity="1" font-family="Candara Light,Candara Light_MSFontService,sans-serif" font-style="normal" font-variant="normal" font-weight="300" font-stretch="normal" font-size="39" text-anchor="start" direction="ltr" writing-mode="lr-tb" unicode-bidi="normal" text-decoration="none" transform="matrix(1 0 0 1 1924.29 1731)">2. Profile Link Creation (optional)</text><rect x="1368.5" y="1774.5" width="638" height="195" stroke="#44546A" stroke-width="3.4375" stroke-linecap="butt" stroke-linejoin="round" stroke-miterlimit="10" stroke-opacity="1" fill="#FFFFFF" fill-opacity="1"/><text fill="#535A61" fill-opacity="1" font-family="Candara Light,Candara Light_MSFontService,sans-serif" font-style="normal" font-variant="normal" font-weight="300" font-stretch="normal" font-size="39" text-anchor="start" direction="ltr" writing-mode="lr-tb" unicode-bidi="normal" text-decoration="none" transform="matrix(1 0 0 1 1401.28 1888)">Link Request</text><path d="M1419.5 869.539C1419.5 846.874 1437.87 828.5 1460.54 828.5L2995.46 828.5C3018.13 828.5 3036.5 846.874 3036.5 869.539L3036.5 983.461C3036.5 1006.13 3018.13 1024.5 2995.46 1024.5L1460.54 1024.5C1437.87 1024.5 1419.5 1006.13 1419.5 983.461Z" stroke="#CFE2F3" stroke-width="3.4375" stroke-linecap="butt" stroke-linejoin="round" stroke-miterlimit="10" stroke-opacity="1" fill="#004A7F" fill-rule="evenodd" fill-opacity="0.501961"/><rect x="2302.5" y="430.5" width="701" height="354" stroke="#44546A" stroke-width="3.4375" stroke-linecap="butt" stroke-linejoin="round" stroke-miterlimit="10" stroke-dasharray="3.4375 10.3125" stroke-opacity="1" fill="none"/><rect x="1442.5" y="1306.5" width="1580" height="281" stroke="#44546A" stroke-width="6.875" stroke-linecap="butt" stroke-linejoin="round" stroke-miterlimit="10" stroke-dasharray="6.875 6.875" stroke-opacity="1" fill="none"/><path d="M8.68302e-06-4.58333 167.58-4.58302 167.58 4.58365-8.68302e-06 4.58333ZM162.997-13.7497 190.497 0.000360892 162.997 13.7503Z" fill="#4472C4" fill-rule="nonzero" fill-opacity="1" transform="matrix(-1 0 0 1 3170 925.5)"/><rect x="2341.5" y="859.5" width="638" height="133" stroke="#44546A" stroke-width="3.4375" stroke-linecap="butt" stroke-linejoin="round" stroke-miterlimit="10" stroke-opacity="1" fill="#FFF2CC" fill-opacity="1"/><text fill="#535A61" fill-opacity="1" font-family="Candara Light,Candara Light_MSFontService,sans-serif" font-style="normal" font-variant="normal" font-weight="300" font-stretch="normal" font-size="39" text-anchor="start" direction="ltr" writing-mode="lr-tb" unicode-bidi="normal" text-decoration="none" transform="matrix(1 0 0 1 2541.82 938)">SIWE message</text><rect x="2342.5" y="1345.5" width="638" height="133" stroke="#44546A" stroke-width="3.4375" stroke-linecap="butt" stroke-linejoin="round" stroke-miterlimit="10" stroke-opacity="1" fill="#FFFFFF" fill-opacity="1"/><text fill="#535A61" fill-opacity="1" font-family="Candara Light,Candara Light_MSFontService,sans-serif" font-style="normal" font-variant="normal" font-weight="300" font-stretch="normal" font-size="39" text-anchor="start" direction="ltr" writing-mode="lr-tb" unicode-bidi="normal" text-decoration="none" transform="matrix(1 0 0 1 2419.64 1427)">SIWE Signature or ID Token</text><rect x="1480.5" y="1131.5" width="637" height="133" stroke="#44546A" stroke-width="3.4375" stroke-linecap="butt" stroke-linejoin="round" stroke-miterlimit="10" stroke-opacity="1" fill="#544393" fill-opacity="1"/><text fill="#FFFFFF" fill-opacity="1" font-family="Candara Light,Candara Light_MSFontService,sans-serif" font-style="normal" font-variant="normal" font-weight="300" font-stretch="normal" font-size="39" text-anchor="start" direction="ltr" writing-mode="lr-tb" unicode-bidi="normal" text-decoration="none" transform="matrix(1 0 0 1 1565.57 1213)">Key Pairs (in local storage)</text><rect x="1483.5" y="1345.5" width="637" height="209" stroke="#44546A" stroke-width="3.4375" stroke-linecap="butt" stroke-linejoin="round" stroke-miterlimit="10" stroke-opacity="1" fill="#FFFFFF" fill-opacity="1"/><text fill="#535A61" fill-opacity="1" font-family="Candara Light,Candara Light_MSFontService,sans-serif" font-style="normal" font-variant="normal" font-weight="300" font-stretch="normal" font-size="39" text-anchor="start" direction="ltr" writing-mode="lr-tb" unicode-bidi="normal" text-decoration="none" transform="matrix(1 0 0 1 1609.53 1441)">Limited Scope Profile</text><text fill="#535A61" fill-opacity="1" font-family="Candara Light,Candara Light_MSFontService,sans-serif" font-style="normal" font-variant="normal" font-weight="300" font-stretch="normal" font-size="30" text-anchor="start" direction="ltr" writing-mode="lr-tb" unicode-bidi="normal" text-decoration="none" transform="matrix(1 0 0 1 1665.38 1495)">alice.some</text><text fill="#535A61" fill-opacity="1" font-family="Candara Light,Candara Light_MSFontService,sans-serif" font-style="normal" font-variant="normal" font-weight="300" font-stretch="normal" font-size="30" text-anchor="start" direction="ltr" writing-mode="lr-tb" unicode-bidi="normal" text-decoration="none" transform="matrix(1 0 0 1 1797.72 1495)">-</text><text fill="#535A61" fill-opacity="1" font-family="Candara Light,Candara Light_MSFontService,sans-serif" font-style="normal" font-variant="normal" font-weight="300" font-stretch="normal" font-size="30" text-anchor="start" direction="ltr" writing-mode="lr-tb" unicode-bidi="normal" text-decoration="none" transform="matrix(1 0 0 1 1805.17 1495)">app.eth</text><path d="M1803.08 1264.33 1805.23 1322.64 1796.07 1322.97 1793.92 1264.67ZM1814.23 1317.72 1801.5 1345.71 1786.74 1318.73Z" fill="#44546A" fill-rule="nonzero" fill-opacity="1"/><path d="M3022.5 1441.92 3117.73 1441.92 3117.73 1451.08 3022.5 1451.08ZM3113.15 1432.75 3140.65 1446.5 3113.15 1460.25Z" fill="#44546A" fill-rule="nonzero" fill-opacity="1"/><path d="M2665.08 992.483 2666.28 1322.77 2657.12 1322.8 2655.92 992.516ZM2675.43 1318.15 2661.78 1345.7 2647.93 1318.25Z" fill="#4472C4" fill-rule="nonzero" fill-opacity="1"/><rect x="1480.5" y="862.5" width="637" height="133" stroke="#44546A" stroke-width="3.4375" stroke-linecap="butt" stroke-linejoin="round" stroke-miterlimit="10" stroke-opacity="1" fill="#544393" fill-opacity="1"/><text fill="#FFFFFF" fill-opacity="1" font-family="Candara Light,Candara Light_MSFontService,sans-serif" font-style="normal" font-variant="normal" font-weight="300" font-stretch="normal" font-size="39" text-anchor="start" direction="ltr" writing-mode="lr-tb" unicode-bidi="normal" text-decoration="none" transform="matrix(1 0 0 1 1663.82 945)">Random Seed</text><path d="M1803.08 995.5 1803.08 1108.69 1793.92 1108.69 1793.92 995.5ZM1812.25 1104.11 1798.5 1131.61 1784.75 1104.11Z" fill="#4472C4" fill-rule="nonzero" fill-opacity="1"/><path d="M1480.5 1202.08 1404 1202.08 1408.59 1197.5 1408.59 1731.39 1404 1726.81 1813.88 1726.81C1816.41 1726.81 1818.47 1728.86 1818.47 1731.39L1818.47 1810 1809.3 1810 1809.3 1731.39 1813.88 1735.97 1404 1735.97C1401.47 1735.97 1399.42 1733.92 1399.42 1731.39L1399.42 1197.5C1399.42 1194.97 1401.47 1192.92 1404 1192.92L1480.5 1192.92ZM1827.63 1805.42 1813.88 1832.92 1800.13 1805.42Z" fill="#4472C4" fill-rule="nonzero" fill-opacity="1"/><rect x="2117.5" y="1774.5" width="638" height="334" stroke="#44546A" stroke-width="3.4375" stroke-linecap="butt" stroke-linejoin="round" stroke-miterlimit="10" stroke-opacity="1" fill="#FFFFFF" fill-opacity="1"/><text fill="#535A61" fill-opacity="1" font-family="Candara Light,Candara Light_MSFontService,sans-serif" font-style="normal" font-variant="normal" font-weight="300" font-stretch="normal" font-size="39" text-anchor="start" direction="ltr" writing-mode="lr-tb" unicode-bidi="normal" text-decoration="none" transform="matrix(1 0 0 1 2186.78 1856)">Linked Limited Scope Profile</text><text fill="#535A61" fill-opacity="1" font-family="Candara Light,Candara Light_MSFontService,sans-serif" font-style="normal" font-variant="normal" font-weight="300" font-stretch="normal" font-size="30" text-anchor="start" direction="ltr" writing-mode="lr-tb" unicode-bidi="normal" text-decoration="none" transform="matrix(1 0 0 1 2163.01 1910)">…,</text><text fill="#535A61" fill-opacity="1" font-family="Candara Light,Candara Light_MSFontService,sans-serif" font-style="normal" font-variant="normal" font-weight="300" font-stretch="normal" font-size="30" text-anchor="start" direction="ltr" writing-mode="lr-tb" unicode-bidi="normal" text-decoration="none" transform="matrix(1 0 0 1 2163.01 1960)">“</text><text fill="#535A61" fill-opacity="1" font-family="Candara Light,Candara Light_MSFontService,sans-serif" font-style="normal" font-variant="normal" font-weight="300" font-stretch="normal" font-size="30" text-anchor="start" direction="ltr" writing-mode="lr-tb" unicode-bidi="normal" text-decoration="none" transform="matrix(1 0 0 1 2177.91 1960)">mainProfile</text><text fill="#535A61" fill-opacity="1" font-family="Candara Light,Candara Light_MSFontService,sans-serif" font-style="normal" font-variant="normal" font-weight="300" font-stretch="normal" font-size="30" text-anchor="start" direction="ltr" writing-mode="lr-tb" unicode-bidi="normal" text-decoration="none" transform="matrix(1 0 0 1 2318.27 1960)">“:{</text><text fill="#535A61" fill-opacity="1" font-family="Candara Light,Candara Light_MSFontService,sans-serif" font-style="normal" font-variant="normal" font-weight="300" font-stretch="normal" font-size="30" text-anchor="start" direction="ltr" writing-mode="lr-tb" unicode-bidi="normal" text-decoration="none" transform="matrix(1 0 0 1 2175.62 2010)">“</text><text fill="#535A61" fill-opacity="1" font-family="Candara Light,Candara Light_MSFontService,sans-serif" font-style="normal" font-variant="normal" font-weight="300" font-stretch="normal" font-size="30" text-anchor="start" direction="ltr" writing-mode="lr-tb" unicode-bidi="normal" text-decoration="none" transform="matrix(1 0 0 1 2190.51 2010)">ensName</text><text fill="#535A61" fill-opacity="1" font-family="Candara Light,Candara Light_MSFontService,sans-serif" font-style="normal" font-variant="normal" font-weight="300" font-stretch="normal" font-size="30" text-anchor="start" direction="ltr" writing-mode="lr-tb" unicode-bidi="normal" text-decoration="none" transform="matrix(1 0 0 1 2309.11 2010)">“: “</text><text fill="#535A61" fill-opacity="1" font-family="Candara Light,Candara Light_MSFontService,sans-serif" font-style="normal" font-variant="normal" font-weight="300" font-stretch="normal" font-size="30" text-anchor="start" direction="ltr" writing-mode="lr-tb" unicode-bidi="normal" text-decoration="none" transform="matrix(1 0 0 1 2352.65 2010)">alice.eth</text><text fill="#535A61" fill-opacity="1" font-family="Candara Light,Candara Light_MSFontService,sans-serif" font-style="normal" font-variant="normal" font-weight="300" font-stretch="normal" font-size="30" text-anchor="start" direction="ltr" writing-mode="lr-tb" unicode-bidi="normal" text-decoration="none" transform="matrix(1 0 0 1 2458.07 2010)">“,</text><text fill="#535A61" fill-opacity="1" font-family="Candara Light,Candara Light_MSFontService,sans-serif" font-style="normal" font-variant="normal" font-weight="300" font-stretch="normal" font-size="30" text-anchor="start" direction="ltr" writing-mode="lr-tb" unicode-bidi="normal" text-decoration="none" transform="matrix(1 0 0 1 2175.62 2060)">“sig“: “df34sdvedf“</text><text fill="#535A61" fill-opacity="1" font-family="Candara Light,Candara Light_MSFontService,sans-serif" font-style="normal" font-variant="normal" font-weight="300" font-stretch="normal" font-size="30" text-anchor="start" direction="ltr" writing-mode="lr-tb" unicode-bidi="normal" text-decoration="none" transform="matrix(1 0 0 1 2163.01 2110)">}</text><path d="M2755.5 1936.92 3117.37 1936.92 3117.37 1946.08 2755.5 1946.08ZM3112.78 1927.75 3140.28 1941.5 3112.78 1955.25Z" fill="#44546A" fill-rule="nonzero" fill-opacity="1"/><rect x="624.5" y="1789.5" width="537" height="165" stroke="#44546A" stroke-width="3.4375" stroke-linecap="butt" stroke-linejoin="round" stroke-miterlimit="10" stroke-opacity="1" fill="#FFFFFF" fill-opacity="1"/><text fill="#535A61" fill-opacity="1" font-family="Candara Light,Candara Light_MSFontService,sans-serif" font-style="normal" font-variant="normal" font-weight="300" font-stretch="normal" font-size="39" text-anchor="start" direction="ltr" writing-mode="lr-tb" unicode-bidi="normal" text-decoration="none" transform="matrix(1 0 0 1 658.502 1855)">Accept and store key pairs </text><text fill="#535A61" fill-opacity="1" font-family="Candara Light,Candara Light_MSFontService,sans-serif" font-style="normal" font-variant="normal" font-weight="300" font-stretch="normal" font-size="39" text-anchor="start" direction="ltr" writing-mode="lr-tb" unicode-bidi="normal" text-decoration="none" transform="matrix(1 0 0 1 791.419 1921)">in storage</text><rect x="1647.5" y="1833.5" width="332" height="102" stroke="#4472C4" stroke-width="3.4375" stroke-linecap="butt" stroke-linejoin="round" stroke-miterlimit="10" stroke-opacity="1" fill="#544393" fill-opacity="1"/><text fill="#FFFFFF" fill-opacity="1" font-family="Candara Light,Candara Light_MSFontService,sans-serif" font-style="normal" font-variant="normal" font-weight="300" font-stretch="normal" font-size="39" text-anchor="start" direction="ltr" writing-mode="lr-tb" unicode-bidi="normal" text-decoration="none" transform="matrix(1 0 0 1 1719.79 1900)">Key Pairs</text><rect x="2340.5" y="460.5" width="638" height="133" stroke="#44546A" stroke-width="3.4375" stroke-linecap="butt" stroke-linejoin="round" stroke-miterlimit="10" stroke-opacity="1" fill="#FFF2CC" fill-opacity="1"/><text fill="#535A61" fill-opacity="1" font-family="Candara Light,Candara Light_MSFontService,sans-serif" font-style="normal" font-variant="normal" font-weight="300" font-stretch="normal" font-size="39" text-anchor="start" direction="ltr" writing-mode="lr-tb" unicode-bidi="normal" text-decoration="none" transform="matrix(1 0 0 1 2439.55 539)">dm3 scoped seed message</text><rect x="1480.5" y="460.5" width="637" height="133" stroke="#44546A" stroke-width="3.4375" stroke-linecap="butt" stroke-linejoin="round" stroke-miterlimit="10" stroke-opacity="1" fill="#544393" fill-opacity="1"/><text fill="#FFFFFF" fill-opacity="1" font-family="Candara Light,Candara Light_MSFontService,sans-serif" font-style="normal" font-variant="normal" font-weight="300" font-stretch="normal" font-size="39" text-anchor="start" direction="ltr" writing-mode="lr-tb" unicode-bidi="normal" text-decoration="none" transform="matrix(1 0 0 1 1636.04 542)">Signature as seed</text><path d="M3187.84 614.266 3026.36 612.354 3026.47 603.188 3187.95 605.1ZM3030.83 621.575 3003.5 607.5 3031.16 594.076Z" fill="#548235" fill-rule="nonzero" fill-opacity="1"/><path d="M2339.77 531.083 2140.42 531.083 2140.42 521.916 2339.77 521.917ZM2145 540.25 2117.5 526.5 2145 512.75Z" fill="#548235" fill-rule="nonzero" fill-opacity="1"/><path d="M1480.5 531.083 1350 531.083 1354.59 526.5 1354.59 1069.03 1350 1064.45 2200.92 1064.45C2203.45 1064.45 2205.5 1066.5 2205.5 1069.03L2205.5 1197.56C2205.5 1200.09 2203.45 1202.14 2200.92 1202.14L2141.33 1202.14 2141.33 1192.97 2200.92 1192.97 2196.33 1197.56 2196.33 1069.03 2200.92 1073.61 1350 1073.61C1347.47 1073.61 1345.42 1071.56 1345.42 1069.03L1345.42 526.5C1345.42 523.969 1347.47 521.917 1350 521.917L1480.5 521.917ZM2145.91 1211.31 2118.41 1197.56 2145.91 1183.81Z" fill="#548235" fill-rule="nonzero" fill-opacity="1"/><rect x="2341.5" y="622.5" width="638" height="133" stroke="#44546A" stroke-width="3.4375" stroke-linecap="butt" stroke-linejoin="round" stroke-miterlimit="10" stroke-opacity="1" fill="#FFFFFF" fill-opacity="1"/><text fill="#535A61" fill-opacity="1" font-family="Candara Light,Candara Light_MSFontService,sans-serif" font-style="normal" font-variant="normal" font-weight="300" font-stretch="normal" font-size="39" text-anchor="start" direction="ltr" writing-mode="lr-tb" unicode-bidi="normal" text-decoration="none" transform="matrix(1 0 0 1 2567.03 705)">ID Token</text><path d="M2341.5 694.083 2259 694.083 2263.58 689.5 2263.58 1412.02 2259 1407.43 2319.87 1407.43 2319.87 1416.6 2259 1416.6C2256.47 1416.6 2254.42 1414.55 2254.42 1412.02L2254.42 689.5C2254.42 686.969 2256.47 684.917 2259 684.917L2341.5 684.917ZM2315.29 1398.27 2342.79 1412.02 2315.29 1425.77Z" fill="#548235" fill-rule="nonzero" fill-opacity="1"/><path d="M897.083 1954.49 897.083 2036.99 892.5 2032.41 2050.28 2032.41 2045.7 2036.99 2045.7 1941.5C2045.7 1938.97 2047.75 1936.92 2050.28 1936.92L2094.75 1936.92 2094.75 1946.08 2050.28 1946.08 2054.86 1941.5 2054.86 2036.99C2054.86 2039.52 2052.81 2041.57 2050.28 2041.57L892.5 2041.57C889.969 2041.57 887.917 2039.52 887.917 2036.99L887.917 1954.49ZM2090.16 1927.75 2117.66 1941.5 2090.16 1955.25Z" fill="#44546A" fill-rule="nonzero" fill-opacity="1"/><path d="M7.96547e-06-4.58333 184.741-4.58301 184.741 4.58365-7.96547e-06 4.58333ZM180.158-13.7497 207.657 0.000360892 180.157 13.7503Z" fill="#44546A" fill-rule="nonzero" fill-opacity="1" transform="matrix(-1 0 0 1 1369.16 1871.5)"/><text fill="#FFFFFF" fill-opacity="1" font-family="Arial,Arial_MSFontService,sans-serif" font-style="normal" font-variant="normal" font-weight="400" font-stretch="normal" font-size="55" text-anchor="start" direction="ltr" writing-mode="lr-tb" unicode-bidi="normal" text-decoration="none" transform="matrix(1 0 0 1 666.922 721)">•</text><text fill="#FFFFFF" fill-opacity="1" font-family="Candara Light,Candara Light_MSFontService,sans-serif" font-style="normal" font-variant="normal" font-weight="300" font-stretch="normal" font-size="55" text-anchor="start" direction="ltr" writing-mode="lr-tb" unicode-bidi="normal" text-decoration="none" transform="matrix(1 0 0 1 715.734 721)">manages main </text><text fill="#FFFFFF" fill-opacity="1" font-family="Candara Light,Candara Light_MSFontService,sans-serif" font-style="normal" font-variant="normal" font-weight="300" font-stretch="normal" font-size="55" text-anchor="start" direction="ltr" writing-mode="lr-tb" unicode-bidi="normal" text-decoration="none" transform="matrix(1 0 0 1 715.734 787)">profile</text><text fill="#FFFFFF" fill-opacity="1" font-family="Arial,Arial_MSFontService,sans-serif" font-style="normal" font-variant="normal" font-weight="400" font-stretch="normal" font-size="55" text-anchor="start" direction="ltr" writing-mode="lr-tb" unicode-bidi="normal" text-decoration="none" transform="matrix(1 0 0 1 666.922 853)">•</text><text fill="#FFFFFF" fill-opacity="1" font-family="Candara Light,Candara Light_MSFontService,sans-serif" font-style="normal" font-variant="normal" font-weight="300" font-stretch="normal" font-size="55" text-anchor="start" direction="ltr" writing-mode="lr-tb" unicode-bidi="normal" text-decoration="none" transform="matrix(1 0 0 1 715.734 853)">Can be any dm3 </text><text fill="#FFFFFF" fill-opacity="1" font-family="Candara Light,Candara Light_MSFontService,sans-serif" font-style="normal" font-variant="normal" font-weight="300" font-stretch="normal" font-size="55" text-anchor="start" direction="ltr" writing-mode="lr-tb" unicode-bidi="normal" text-decoration="none" transform="matrix(1 0 0 1 715.734 919)">interoperable app</text><rect x="3137" y="309" width="701" height="1863" fill="#8B7FF4" fill-opacity="1"/><text fill="#FFFFFF" fill-opacity="1" font-family="Candara,Candara_MSFontService,sans-serif" font-style="normal" font-variant="normal" font-weight="400" font-stretch="normal" font-size="64" text-anchor="start" direction="ltr" writing-mode="lr-tb" unicode-bidi="normal" text-decoration="none" transform="matrix(1 0 0 1 3347.45 463)">dApp</text><text fill="#FFFFFF" fill-opacity="1" font-family="Candara,Candara_MSFontService,sans-serif" font-style="normal" font-variant="normal" font-weight="400" font-stretch="normal" font-size="64" text-anchor="start" direction="ltr" writing-mode="lr-tb" unicode-bidi="normal" text-decoration="none" transform="matrix(1 0 0 1 3507.3 463)">with </text><text fill="#FFFFFF" fill-opacity="1" font-family="Candara,Candara_MSFontService,sans-serif" font-style="normal" font-variant="normal" font-weight="400" font-stretch="normal" font-size="64" text-anchor="start" direction="ltr" writing-mode="lr-tb" unicode-bidi="normal" text-decoration="none" transform="matrix(1 0 0 1 3274.97 540)">dm3 embedded</text><text fill="#FFFFFF" fill-opacity="1" font-family="Arial,Arial_MSFontService,sans-serif" font-style="normal" font-variant="normal" font-weight="400" font-stretch="normal" font-size="55" text-anchor="start" direction="ltr" writing-mode="lr-tb" unicode-bidi="normal" text-decoration="none" transform="matrix(1 0 0 1 3198.2 721)">•</text><text fill="#FFFFFF" fill-opacity="1" font-family="Candara Light,Candara Light_MSFontService,sans-serif" font-style="normal" font-variant="normal" font-weight="300" font-stretch="normal" font-size="55" text-anchor="start" direction="ltr" writing-mode="lr-tb" unicode-bidi="normal" text-decoration="none" transform="matrix(1 0 0 1 3264.65 721)">Uses dm3 embedded </text><text fill="#FFFFFF" fill-opacity="1" font-family="Candara Light,Candara Light_MSFontService,sans-serif" font-style="normal" font-variant="normal" font-weight="300" font-stretch="normal" font-size="55" text-anchor="start" direction="ltr" writing-mode="lr-tb" unicode-bidi="normal" text-decoration="none" transform="matrix(1 0 0 1 3264.65 787)">widget (or 3rd party </text><text fill="#FFFFFF" fill-opacity="1" font-family="Candara Light,Candara Light_MSFontService,sans-serif" font-style="normal" font-variant="normal" font-weight="300" font-stretch="normal" font-size="55" text-anchor="start" direction="ltr" writing-mode="lr-tb" unicode-bidi="normal" text-decoration="none" transform="matrix(1 0 0 1 3264.65 853)">widget based on </text><text fill="#FFFFFF" fill-opacity="1" font-family="Candara Light,Candara Light_MSFontService,sans-serif" font-style="normal" font-variant="normal" font-weight="300" font-stretch="normal" font-size="55" text-anchor="start" direction="ltr" writing-mode="lr-tb" unicode-bidi="normal" text-decoration="none" transform="matrix(1 0 0 1 3264.65 919)">dm3)</text><text fill="#FFFFFF" fill-opacity="1" font-family="Arial,Arial_MSFontService,sans-serif" font-style="normal" font-variant="normal" font-weight="400" font-stretch="normal" font-size="55" text-anchor="start" direction="ltr" writing-mode="lr-tb" unicode-bidi="normal" text-decoration="none" transform="matrix(1 0 0 1 3198.2 985)">•</text><text fill="#FFFFFF" fill-opacity="1" font-family="Candara Light,Candara Light_MSFontService,sans-serif" font-style="normal" font-variant="normal" font-weight="300" font-stretch="normal" font-size="55" text-anchor="start" direction="ltr" writing-mode="lr-tb" unicode-bidi="normal" text-decoration="none" transform="matrix(1 0 0 1 3264.65 985)">Can be any dm3 </text><text fill="#FFFFFF" fill-opacity="1" font-family="Candara Light,Candara Light_MSFontService,sans-serif" font-style="normal" font-variant="normal" font-weight="300" font-stretch="normal" font-size="55" text-anchor="start" direction="ltr" writing-mode="lr-tb" unicode-bidi="normal" text-decoration="none" transform="matrix(1 0 0 1 3264.65 1051)">interoperable app</text></g></g></svg>