<svg width="4193" height="1590" xmlns="http://www.w3.org/2000/svg" xmlns:xlink="http://www.w3.org/1999/xlink" xml:space="preserve" overflow="hidden"><defs><clipPath id="clip0"><rect x="64" y="174" width="4193" height="1590"/></clipPath></defs><g clip-path="url(#clip0)" transform="translate(-64 -174)"><rect x="90.0001" y="1087" width="4167" height="676" fill="#D6D2F0" fill-opacity="1"/><rect x="90.0001" y="637" width="4167" height="371" fill="#D6D2F0" fill-opacity="1"/><rect x="90.0001" y="187" width="4167" height="371" fill="#D6D2F0" fill-opacity="1"/><rect x="1672.5" y="256.5" width="1109" height="232" stroke="#544393" stroke-width="4.58333" stroke-linecap="butt" stroke-linejoin="miter" stroke-miterlimit="8" stroke-opacity="1" fill="#FFFFFF" fill-opacity="1"/><text fill="#544393" fill-opacity="1" font-family="Candara,Candara_MSFontService,sans-serif" font-style="normal" font-variant="normal" font-weight="400" font-stretch="normal" font-size="48" text-anchor="start" direction="ltr" writing-mode="lr-tb" unicode-bidi="normal" text-decoration="none" transform="matrix(1 0 0 1 1704.95 317)">n</text><text fill="#544393" fill-opacity="1" font-family="Candara,Candara_MSFontService,sans-serif" font-style="normal" font-variant="normal" font-weight="400" font-stretch="normal" font-size="48" text-anchor="start" direction="ltr" writing-mode="lr-tb" unicode-bidi="normal" text-decoration="none" transform="matrix(1 0 0 1 1730.73 317)">ame:</text><text fill="#544393" fill-opacity="1" font-family="Candara,Candara_MSFontService,sans-serif" font-style="normal" font-variant="normal" font-weight="400" font-stretch="normal" font-size="48" text-anchor="start" direction="ltr" writing-mode="lr-tb" unicode-bidi="normal" text-decoration="none" transform="matrix(1 0 0 1 2034.95 317)">hash(sig($</text><text fill="#544393" fill-opacity="1" font-family="Candara,Candara_MSFontService,sans-serif" font-style="normal" font-variant="normal" font-weight="400" font-stretch="normal" font-size="48" text-anchor="start" direction="ltr" writing-mode="lr-tb" unicode-bidi="normal" text-decoration="none" transform="matrix(1 0 0 1 2241.78 317)">own_ens_name</text><text fill="#544393" fill-opacity="1" font-family="Candara,Candara_MSFontService,sans-serif" font-style="normal" font-variant="normal" font-weight="400" font-stretch="normal" font-size="48" text-anchor="start" direction="ltr" writing-mode="lr-tb" unicode-bidi="normal" text-decoration="none" transform="matrix(1 0 0 1 2563.18 317)">))</text><text fill="#544393" fill-opacity="1" font-family="Candara,Candara_MSFontService,sans-serif" font-style="normal" font-variant="normal" font-weight="400" font-stretch="normal" font-size="48" text-anchor="start" direction="ltr" writing-mode="lr-tb" unicode-bidi="normal" text-decoration="none" transform="matrix(1 0 0 1 1704.95 375)">conversations*:</text><text fill="#544393" fill-opacity="1" font-family="Candara,Candara_MSFontService,sans-serif" font-style="normal" font-variant="normal" font-weight="400" font-stretch="normal" font-size="48" text-anchor="start" direction="ltr" writing-mode="lr-tb" unicode-bidi="normal" text-decoration="none" transform="matrix(1 0 0 1 2034.95 375)">[…]  // </text><text fill="#544393" fill-opacity="1" font-family="Candara,Candara_MSFontService,sans-serif" font-style="normal" font-variant="normal" font-weight="400" font-stretch="normal" font-size="48" text-anchor="start" direction="ltr" writing-mode="lr-tb" unicode-bidi="normal" text-decoration="none" transform="matrix(1 0 0 1 2173.6 375)">ens</text><text fill="#544393" fill-opacity="1" font-family="Candara,Candara_MSFontService,sans-serif" font-style="normal" font-variant="normal" font-weight="400" font-stretch="normal" font-size="48" text-anchor="start" direction="ltr" writing-mode="lr-tb" unicode-bidi="normal" text-decoration="none" transform="matrix(1 0 0 1 2254.38 375)">names</text><rect x="931.5" y="705.5" width="1102" height="233" stroke="#544393" stroke-width="4.58333" stroke-linecap="butt" stroke-linejoin="miter" stroke-miterlimit="8" stroke-opacity="1" fill="#FFFFFF" fill-opacity="1"/><text fill="#544393" fill-opacity="1" font-family="Candara,Candara_MSFontService,sans-serif" font-style="normal" font-variant="normal" font-weight="400" font-stretch="normal" font-size="48" text-anchor="start" direction="ltr" writing-mode="lr-tb" unicode-bidi="normal" text-decoration="none" transform="matrix(1 0 0 1 964.07 767)">n</text><text fill="#544393" fill-opacity="1" font-family="Candara,Candara_MSFontService,sans-serif" font-style="normal" font-variant="normal" font-weight="400" font-stretch="normal" font-size="48" text-anchor="start" direction="ltr" writing-mode="lr-tb" unicode-bidi="normal" text-decoration="none" transform="matrix(1 0 0 1 989.851 767)">ame:</text><text fill="#544393" fill-opacity="1" font-family="Candara,Candara_MSFontService,sans-serif" font-style="normal" font-variant="normal" font-weight="400" font-stretch="normal" font-size="48" text-anchor="start" direction="ltr" writing-mode="lr-tb" unicode-bidi="normal" text-decoration="none" transform="matrix(1 0 0 1 1156.11 767)">hash(</text><text fill="#544393" fill-opacity="1" font-family="Candara,Candara_MSFontService,sans-serif" font-style="normal" font-variant="normal" font-weight="400" font-stretch="normal" font-size="48" text-anchor="start" direction="ltr" writing-mode="lr-tb" unicode-bidi="normal" text-decoration="none" transform="matrix(1 0 0 1 1268.4 767)">root.name+root.conversations</text><text fill="#544393" fill-opacity="1" font-family="Candara,Candara_MSFontService,sans-serif" font-style="normal" font-variant="normal" font-weight="400" font-stretch="normal" font-size="48" text-anchor="start" direction="ltr" writing-mode="lr-tb" unicode-bidi="normal" text-decoration="none" transform="matrix(1 0 0 1 1889.44 767)">[0</text><text fill="#544393" fill-opacity="1" font-family="Candara,Candara_MSFontService,sans-serif" font-style="normal" font-variant="normal" font-weight="400" font-stretch="normal" font-size="48" text-anchor="start" direction="ltr" writing-mode="lr-tb" unicode-bidi="normal" text-decoration="none" transform="matrix(1 0 0 1 1932.99 767)">]</text><text fill="#544393" fill-opacity="1" font-family="Candara,Candara_MSFontService,sans-serif" font-style="normal" font-variant="normal" font-weight="400" font-stretch="normal" font-size="48" text-anchor="start" direction="ltr" writing-mode="lr-tb" unicode-bidi="normal" text-decoration="none" transform="matrix(1 0 0 1 1950.17 767)">))</text><text fill="#544393" fill-opacity="1" font-family="Candara,Candara_MSFontService,sans-serif" font-style="normal" font-variant="normal" font-weight="400" font-stretch="normal" font-size="48" text-anchor="start" direction="ltr" writing-mode="lr-tb" unicode-bidi="normal" text-decoration="none" transform="matrix(1 0 0 1 964.07 825)">c</text><text fill="#544393" fill-opacity="1" font-family="Candara,Candara_MSFontService,sans-serif" font-style="normal" font-variant="normal" font-weight="400" font-stretch="normal" font-size="48" text-anchor="start" direction="ltr" writing-mode="lr-tb" unicode-bidi="normal" text-decoration="none" transform="matrix(1 0 0 1 985.841 825)">hunks*:</text><text fill="#544393" fill-opacity="1" font-family="Candara,Candara_MSFontService,sans-serif" font-style="normal" font-variant="normal" font-weight="400" font-stretch="normal" font-size="48" text-anchor="start" direction="ltr" writing-mode="lr-tb" unicode-bidi="normal" text-decoration="none" transform="matrix(1 0 0 1 1156.11 825)">[…]  // chunk identifier</text><rect x="2121.5" y="705.5" width="1102" height="233" stroke="#544393" stroke-width="4.58333" stroke-linecap="butt" stroke-linejoin="miter" stroke-miterlimit="8" stroke-opacity="1" fill="#FFFFFF" fill-opacity="1"/><text fill="#544393" fill-opacity="1" font-family="Candara,Candara_MSFontService,sans-serif" font-style="normal" font-variant="normal" font-weight="400" font-stretch="normal" font-size="48" text-anchor="start" direction="ltr" writing-mode="lr-tb" unicode-bidi="normal" text-decoration="none" transform="matrix(1 0 0 1 2154.43 767)">name:</text><text fill="#544393" fill-opacity="1" font-family="Candara,Candara_MSFontService,sans-serif" font-style="normal" font-variant="normal" font-weight="400" font-stretch="normal" font-size="48" text-anchor="start" direction="ltr" writing-mode="lr-tb" unicode-bidi="normal" text-decoration="none" transform="matrix(1 0 0 1 2346.47 767)">hash(</text><text fill="#544393" fill-opacity="1" font-family="Candara,Candara_MSFontService,sans-serif" font-style="normal" font-variant="normal" font-weight="400" font-stretch="normal" font-size="48" text-anchor="start" direction="ltr" writing-mode="lr-tb" unicode-bidi="normal" text-decoration="none" transform="matrix(1 0 0 1 2458.76 767)">root.name+root.conversations</text><text fill="#544393" fill-opacity="1" font-family="Candara,Candara_MSFontService,sans-serif" font-style="normal" font-variant="normal" font-weight="400" font-stretch="normal" font-size="48" text-anchor="start" direction="ltr" writing-mode="lr-tb" unicode-bidi="normal" text-decoration="none" transform="matrix(1 0 0 1 3079.8 767)">[1]))</text><text fill="#544393" fill-opacity="1" font-family="Candara,Candara_MSFontService,sans-serif" font-style="normal" font-variant="normal" font-weight="400" font-stretch="normal" font-size="48" text-anchor="start" direction="ltr" writing-mode="lr-tb" unicode-bidi="normal" text-decoration="none" transform="matrix(1 0 0 1 2154.43 825)">chunks*:</text><text fill="#544393" fill-opacity="1" font-family="Candara,Candara_MSFontService,sans-serif" font-style="normal" font-variant="normal" font-weight="400" font-stretch="normal" font-size="48" text-anchor="start" direction="ltr" writing-mode="lr-tb" unicode-bidi="normal" text-decoration="none" transform="matrix(1 0 0 1 2346.47 825)">[…]  </text><rect x="433.5" y="1155.5" width="1407" height="232" stroke="#544393" stroke-width="4.58333" stroke-linecap="butt" stroke-linejoin="miter" stroke-miterlimit="8" stroke-opacity="1" fill="#FFFFFF" fill-opacity="1"/><text fill="#544393" fill-opacity="1" font-family="Candara,Candara_MSFontService,sans-serif" font-style="normal" font-variant="normal" font-weight="400" font-stretch="normal" font-size="48" text-anchor="start" direction="ltr" writing-mode="lr-tb" unicode-bidi="normal" text-decoration="none" transform="matrix(1 0 0 1 466.18 1217)">n</text><text fill="#544393" fill-opacity="1" font-family="Candara,Candara_MSFontService,sans-serif" font-style="normal" font-variant="normal" font-weight="400" font-stretch="normal" font-size="48" text-anchor="start" direction="ltr" writing-mode="lr-tb" unicode-bidi="normal" text-decoration="none" transform="matrix(1 0 0 1 491.961 1217)">ame:</text><text fill="#544393" fill-opacity="1" font-family="Candara,Candara_MSFontService,sans-serif" font-style="normal" font-variant="normal" font-weight="400" font-stretch="normal" font-size="48" text-anchor="start" direction="ltr" writing-mode="lr-tb" unicode-bidi="normal" text-decoration="none" transform="matrix(1 0 0 1 736.138 1217)">hash($</text><text fill="#544393" fill-opacity="1" font-family="Candara,Candara_MSFontService,sans-serif" font-style="normal" font-variant="normal" font-weight="400" font-stretch="normal" font-size="48" text-anchor="start" direction="ltr" writing-mode="lr-tb" unicode-bidi="normal" text-decoration="none" transform="matrix(1 0 0 1 869.628 1217)">conversation.name</text><text fill="#544393" fill-opacity="1" font-family="Candara,Candara_MSFontService,sans-serif" font-style="normal" font-variant="normal" font-weight="400" font-stretch="normal" font-size="48" text-anchor="start" direction="ltr" writing-mode="lr-tb" unicode-bidi="normal" text-decoration="none" transform="matrix(1 0 0 1 1258.07 1217)">+$</text><text fill="#544393" fill-opacity="1" font-family="Candara,Candara_MSFontService,sans-serif" font-style="normal" font-variant="normal" font-weight="400" font-stretch="normal" font-size="48" text-anchor="start" direction="ltr" writing-mode="lr-tb" unicode-bidi="normal" text-decoration="none" transform="matrix(1 0 0 1 1303.33 1217)">conversation.chunks</text><text fill="#544393" fill-opacity="1" font-family="Candara,Candara_MSFontService,sans-serif" font-style="normal" font-variant="normal" font-weight="400" font-stretch="normal" font-size="48" text-anchor="start" direction="ltr" writing-mode="lr-tb" unicode-bidi="normal" text-decoration="none" transform="matrix(1 0 0 1 1720.98 1217)">[0])</text><text fill="#544393" fill-opacity="1" font-family="Candara,Candara_MSFontService,sans-serif" font-style="normal" font-variant="normal" font-weight="400" font-stretch="normal" font-size="48" text-anchor="start" direction="ltr" writing-mode="lr-tb" unicode-bidi="normal" text-decoration="none" transform="matrix(1 0 0 1 466.18 1275)">m</text><text fill="#544393" fill-opacity="1" font-family="Candara,Candara_MSFontService,sans-serif" font-style="normal" font-variant="normal" font-weight="400" font-stretch="normal" font-size="48" text-anchor="start" direction="ltr" writing-mode="lr-tb" unicode-bidi="normal" text-decoration="none" transform="matrix(1 0 0 1 505.711 1275)">essages*:</text><text fill="#544393" fill-opacity="1" font-family="Candara,Candara_MSFontService,sans-serif" font-style="normal" font-variant="normal" font-weight="400" font-stretch="normal" font-size="48" text-anchor="start" direction="ltr" writing-mode="lr-tb" unicode-bidi="normal" text-decoration="none" transform="matrix(1 0 0 1 736.138 1275)">[…]  // message envelopes</text><text fill="#000000" fill-opacity="1" font-family="Arial,Arial_MSFontService,sans-serif" font-style="normal" font-variant="normal" font-weight="400" font-stretch="normal" font-size="83" text-anchor="start" direction="ltr" writing-mode="lr-tb" unicode-bidi="normal" text-decoration="none" transform="matrix(1 0 0 1 124.331 284)">root</text><text fill="#000000" fill-opacity="1" font-family="Arial,Arial_MSFontService,sans-serif" font-style="normal" font-variant="normal" font-weight="400" font-stretch="normal" font-size="83" text-anchor="start" direction="ltr" writing-mode="lr-tb" unicode-bidi="normal" text-decoration="none" transform="matrix(1 0 0 1 115.213 735)">conversations:</text><text fill="#000000" fill-opacity="1" font-family="Arial,Arial_MSFontService,sans-serif" font-style="normal" font-variant="normal" font-weight="400" font-stretch="normal" font-size="83" text-anchor="start" direction="ltr" writing-mode="lr-tb" unicode-bidi="normal" text-decoration="none" transform="matrix(1 0 0 1 123.357 1195)">chunks:</text><path d="M40.8775 7.17765 745.686 213.269 743.113 222.067 38.3048 15.9759ZM37.5595 34.859 0 0 50.4229-9.13222Z" fill="#000000" fill-rule="nonzero" fill-opacity="0.501961" transform="matrix(1 0 0 -1 1482.5 706.168)"/><rect x="3314.5" y="705.5" width="240" height="233" stroke="#544393" stroke-width="4.58333" stroke-linecap="butt" stroke-linejoin="miter" stroke-miterlimit="8" stroke-opacity="1" fill="#FFFFFF" fill-opacity="1"/><text fill="#544393" fill-opacity="1" font-family="Candara,Candara_MSFontService,sans-serif" font-style="normal" font-variant="normal" font-weight="400" font-stretch="normal" font-size="50" text-anchor="start" direction="ltr" writing-mode="lr-tb" unicode-bidi="normal" text-decoration="none" transform="matrix(1 0 0 1 3379.51 769)">…[2]</text><rect x="3645.5" y="708.5" width="240" height="232" stroke="#544393" stroke-width="4.58333" stroke-linecap="butt" stroke-linejoin="miter" stroke-miterlimit="8" stroke-opacity="1" fill="#FFFFFF" fill-opacity="1"/><text fill="#544393" fill-opacity="1" font-family="Candara,Candara_MSFontService,sans-serif" font-style="normal" font-variant="normal" font-weight="400" font-stretch="normal" font-size="50" text-anchor="start" direction="ltr" writing-mode="lr-tb" unicode-bidi="normal" text-decoration="none" transform="matrix(1 0 0 1 3709.55 771)">…[3]</text><rect x="3961.5" y="712.5" width="239" height="232" stroke="#544393" stroke-width="4.58333" stroke-linecap="butt" stroke-linejoin="miter" stroke-miterlimit="8" stroke-opacity="1" fill="#FFFFFF" fill-opacity="1"/><text fill="#544393" fill-opacity="1" font-family="Candara,Candara_MSFontService,sans-serif" font-style="normal" font-variant="normal" font-weight="400" font-stretch="normal" font-size="50" text-anchor="start" direction="ltr" writing-mode="lr-tb" unicode-bidi="normal" text-decoration="none" transform="matrix(1 0 0 1 4055.09 775)">…</text><rect x="3495.5" y="1143.5" width="240" height="232" stroke="#544393" stroke-width="4.58333" stroke-linecap="butt" stroke-linejoin="miter" stroke-miterlimit="8" stroke-opacity="1" fill="#FFFFFF" fill-opacity="1"/><text fill="#544393" fill-opacity="1" font-family="Candara,Candara_MSFontService,sans-serif" font-style="normal" font-variant="normal" font-weight="400" font-stretch="normal" font-size="50" text-anchor="start" direction="ltr" writing-mode="lr-tb" unicode-bidi="normal" text-decoration="none" transform="matrix(1 0 0 1 3589.68 1207)">…</text><rect x="3568.5" y="1305.5" width="239" height="233" stroke="#544393" stroke-width="4.58333" stroke-linecap="butt" stroke-linejoin="miter" stroke-miterlimit="8" stroke-opacity="1" fill="#FFFFFF" fill-opacity="1"/><text fill="#544393" fill-opacity="1" font-family="Candara,Candara_MSFontService,sans-serif" font-style="normal" font-variant="normal" font-weight="400" font-stretch="normal" font-size="50" text-anchor="start" direction="ltr" writing-mode="lr-tb" unicode-bidi="normal" text-decoration="none" transform="matrix(1 0 0 1 3662.08 1369)">…</text><rect x="3639.5" y="1457.5" width="240" height="232" stroke="#544393" stroke-width="4.58333" stroke-linecap="butt" stroke-linejoin="miter" stroke-miterlimit="8" stroke-opacity="1" fill="#FFFFFF" fill-opacity="1"/><text fill="#544393" fill-opacity="1" font-family="Candara,Candara_MSFontService,sans-serif" font-style="normal" font-variant="normal" font-weight="400" font-stretch="normal" font-size="50" text-anchor="start" direction="ltr" writing-mode="lr-tb" unicode-bidi="normal" text-decoration="none" transform="matrix(1 0 0 1 3734.02 1521)">…</text><path d="M37.3444 18.1103 347.941 213.79 343.055 221.546 32.4581 25.8661ZM26.5634 43.8207 0 0 50.9946 5.04176Z" fill="#000000" fill-rule="nonzero" fill-opacity="0.501961" transform="matrix(1 0 0 -1 1133.5 1156.17)"/><path d="M28.7861 29.8991 34.3758 37.1643 27.1105 42.754 21.5209 35.4887ZM39.9654 44.4296 45.555 51.6949 38.2898 57.2845 32.7002 50.0192ZM51.1447 58.9601 56.7343 66.2253 49.469 71.815 43.8794 64.5497ZM62.3239 73.4906 67.9135 80.7558 60.6483 86.3455 55.0587 79.0802ZM73.5032 88.0211 79.0928 95.2863 71.8275 100.876 66.2379 93.6107ZM84.6824 102.552 90.272 109.817 83.0068 115.406 77.4172 108.141ZM95.8617 117.082 101.451 124.347 94.186 129.937 88.5964 122.672ZM107.041 131.613 112.631 138.878 105.365 144.467 99.7757 137.202ZM118.22 146.143 123.81 153.408 116.545 158.998 110.955 151.733ZM129.399 160.674 134.989 167.939 127.724 173.528 122.134 166.263ZM140.579 175.204 146.168 182.469 138.903 188.059 133.313 180.794ZM151.758 189.735 157.348 197 150.082 202.589 144.493 195.324ZM162.937 204.265 168.527 211.53 161.262 217.12 155.672 209.855ZM174.116 218.796 179.706 226.061 172.441 231.651 166.851 224.385ZM185.296 233.326 190.885 240.591 183.62 246.181 178.03 238.916ZM196.475 247.857 202.065 255.122 194.799 260.712 189.21 253.446ZM207.654 262.387 213.244 269.652 205.979 275.242 200.389 267.977ZM218.833 276.918 224.423 284.183 217.158 289.773 211.568 282.507ZM230.013 291.448 235.602 298.713 228.337 304.303 222.747 297.038ZM241.192 305.979 246.782 313.244 239.516 318.833 233.927 311.568ZM252.371 320.509 257.961 327.774 250.696 333.364 245.106 326.099ZM263.55 335.04 269.14 342.305 261.875 347.895 256.285 340.629ZM274.73 349.57 280.319 356.835 273.054 362.425 267.464 355.16ZM285.909 364.101 291.499 371.366 284.233 376.956 278.644 369.69ZM9.78499 50.3003 0 0 46.1112 22.3522Z" fill="#000000" fill-rule="nonzero" fill-opacity="0.501961" transform="matrix(1 0 0 -1 1190.5 1312.98)"/><path d="M2633.38 692.193 2625.14 688.173 2629.16 679.935 2637.4 683.956ZM2616.9 684.152 2608.66 680.131 2612.69 671.893 2620.92 675.914ZM2600.43 676.11 2592.19 672.089 2596.21 663.852 2604.45 667.872ZM2583.95 668.069 2575.71 664.048 2579.73 655.81 2587.97 659.831ZM2567.48 660.027 2559.24 656.006 2563.26 647.769 2571.5 651.789ZM2551 651.986 2542.76 647.965 2546.78 639.727 2555.02 643.748ZM2534.52 643.944 2526.29 639.923 2530.31 631.685 2538.55 635.706ZM2518.05 635.902 2509.81 631.882 2513.83 623.644 2522.07 627.665ZM2501.57 627.861 2493.34 623.84 2497.36 615.602 2505.59 619.623ZM2485.1 619.819 2476.86 615.799 2480.88 607.561 2489.12 611.581ZM2468.62 611.778 2460.38 607.757 2464.41 599.519 2472.64 603.54ZM2452.15 603.736 2443.91 599.715 2447.93 591.478 2456.17 595.498ZM2435.67 595.695 2427.43 591.674 2431.45 583.436 2439.69 587.457ZM2419.2 587.653 2410.96 583.632 2414.98 575.394 2423.22 579.415ZM2402.72 579.612 2394.48 575.591 2398.5 567.353 2406.74 571.374ZM2386.24 571.57 2378.01 567.549 2382.03 559.311 2390.27 563.332ZM2369.77 563.528 2361.53 559.508 2365.55 551.27 2373.79 555.291ZM2353.29 555.487 2345.06 551.466 2349.08 543.228 2357.31 547.249ZM2336.82 547.445 2328.58 543.424 2332.6 535.187 2340.84 539.207ZM2320.34 539.404 2312.1 535.383 2316.13 527.145 2324.36 531.166ZM2303.87 531.362 2295.63 527.341 2299.65 519.104 2307.89 523.124ZM2287.39 523.321 2279.15 519.3 2283.17 511.062 2291.41 515.083ZM2270.92 515.279 2262.68 511.258 2266.7 503.02 2274.94 507.041ZM2254.44 507.237 2246.2 503.217 2250.22 494.979 2258.46 499ZM2237.96 499.196 2229.73 495.175 2233.75 486.937 2241.99 490.958ZM2641.32 665.47 2672.46 706.168 2621.22 706.659Z" fill="#000000" fill-rule="nonzero" fill-opacity="0.501961"/><rect x="496.5" y="1312.5" width="1396" height="232" stroke="#544393" stroke-width="4.58333" stroke-linecap="butt" stroke-linejoin="miter" stroke-miterlimit="8" stroke-opacity="1" fill="#FFFFFF" fill-opacity="1"/><text fill="#544393" fill-opacity="1" font-family="Candara,Candara_MSFontService,sans-serif" font-style="normal" font-variant="normal" font-weight="400" font-stretch="normal" font-size="48" text-anchor="start" direction="ltr" writing-mode="lr-tb" unicode-bidi="normal" text-decoration="none" transform="matrix(1 0 0 1 529.15 1373)">n</text><text fill="#544393" fill-opacity="1" font-family="Candara,Candara_MSFontService,sans-serif" font-style="normal" font-variant="normal" font-weight="400" font-stretch="normal" font-size="48" text-anchor="start" direction="ltr" writing-mode="lr-tb" unicode-bidi="normal" text-decoration="none" transform="matrix(1 0 0 1 554.931 1373)">ame:</text><text fill="#544393" fill-opacity="1" font-family="Candara,Candara_MSFontService,sans-serif" font-style="normal" font-variant="normal" font-weight="400" font-stretch="normal" font-size="48" text-anchor="start" direction="ltr" writing-mode="lr-tb" unicode-bidi="normal" text-decoration="none" transform="matrix(1 0 0 1 799.108 1373)">hash($</text><text fill="#544393" fill-opacity="1" font-family="Candara,Candara_MSFontService,sans-serif" font-style="normal" font-variant="normal" font-weight="400" font-stretch="normal" font-size="48" text-anchor="start" direction="ltr" writing-mode="lr-tb" unicode-bidi="normal" text-decoration="none" transform="matrix(1 0 0 1 932.598 1373)">conversation.name</text><text fill="#544393" fill-opacity="1" font-family="Candara,Candara_MSFontService,sans-serif" font-style="normal" font-variant="normal" font-weight="400" font-stretch="normal" font-size="48" text-anchor="start" direction="ltr" writing-mode="lr-tb" unicode-bidi="normal" text-decoration="none" transform="matrix(1 0 0 1 1321.04 1373)">+$</text><text fill="#544393" fill-opacity="1" font-family="Candara,Candara_MSFontService,sans-serif" font-style="normal" font-variant="normal" font-weight="400" font-stretch="normal" font-size="48" text-anchor="start" direction="ltr" writing-mode="lr-tb" unicode-bidi="normal" text-decoration="none" transform="matrix(1 0 0 1 1366.3 1373)">conversation.chunks</text><text fill="#544393" fill-opacity="1" font-family="Candara,Candara_MSFontService,sans-serif" font-style="normal" font-variant="normal" font-weight="400" font-stretch="normal" font-size="48" text-anchor="start" direction="ltr" writing-mode="lr-tb" unicode-bidi="normal" text-decoration="none" transform="matrix(1 0 0 1 1783.95 1373)">[1])</text><text fill="#544393" fill-opacity="1" font-family="Candara,Candara_MSFontService,sans-serif" font-style="normal" font-variant="normal" font-weight="400" font-stretch="normal" font-size="48" text-anchor="start" direction="ltr" writing-mode="lr-tb" unicode-bidi="normal" text-decoration="none" transform="matrix(1 0 0 1 529.15 1431)">m</text><text fill="#544393" fill-opacity="1" font-family="Candara,Candara_MSFontService,sans-serif" font-style="normal" font-variant="normal" font-weight="400" font-stretch="normal" font-size="48" text-anchor="start" direction="ltr" writing-mode="lr-tb" unicode-bidi="normal" text-decoration="none" transform="matrix(1 0 0 1 568.681 1431)">essages*:</text><text fill="#544393" fill-opacity="1" font-family="Candara,Candara_MSFontService,sans-serif" font-style="normal" font-variant="normal" font-weight="400" font-stretch="normal" font-size="48" text-anchor="start" direction="ltr" writing-mode="lr-tb" unicode-bidi="normal" text-decoration="none" transform="matrix(1 0 0 1 799.108 1431)">[…]</text><rect x="559.5" y="1469.5" width="1396" height="232" stroke="#544393" stroke-width="4.58333" stroke-linecap="butt" stroke-linejoin="miter" stroke-miterlimit="8" stroke-opacity="1" fill="#FFFFFF" fill-opacity="1"/><text fill="#544393" fill-opacity="1" font-family="Candara,Candara_MSFontService,sans-serif" font-style="normal" font-variant="normal" font-weight="400" font-stretch="normal" font-size="48" text-anchor="start" direction="ltr" writing-mode="lr-tb" unicode-bidi="normal" text-decoration="none" transform="matrix(1 0 0 1 592.119 1530)">n</text><text fill="#544393" fill-opacity="1" font-family="Candara,Candara_MSFontService,sans-serif" font-style="normal" font-variant="normal" font-weight="400" font-stretch="normal" font-size="48" text-anchor="start" direction="ltr" writing-mode="lr-tb" unicode-bidi="normal" text-decoration="none" transform="matrix(1 0 0 1 617.901 1530)">ame:</text><text fill="#544393" fill-opacity="1" font-family="Candara,Candara_MSFontService,sans-serif" font-style="normal" font-variant="normal" font-weight="400" font-stretch="normal" font-size="48" text-anchor="start" direction="ltr" writing-mode="lr-tb" unicode-bidi="normal" text-decoration="none" transform="matrix(1 0 0 1 862.078 1530)">hash($</text><text fill="#544393" fill-opacity="1" font-family="Candara,Candara_MSFontService,sans-serif" font-style="normal" font-variant="normal" font-weight="400" font-stretch="normal" font-size="48" text-anchor="start" direction="ltr" writing-mode="lr-tb" unicode-bidi="normal" text-decoration="none" transform="matrix(1 0 0 1 995.567 1530)">conversation.name</text><text fill="#544393" fill-opacity="1" font-family="Candara,Candara_MSFontService,sans-serif" font-style="normal" font-variant="normal" font-weight="400" font-stretch="normal" font-size="48" text-anchor="start" direction="ltr" writing-mode="lr-tb" unicode-bidi="normal" text-decoration="none" transform="matrix(1 0 0 1 1384 1530)">+$</text><text fill="#544393" fill-opacity="1" font-family="Candara,Candara_MSFontService,sans-serif" font-style="normal" font-variant="normal" font-weight="400" font-stretch="normal" font-size="48" text-anchor="start" direction="ltr" writing-mode="lr-tb" unicode-bidi="normal" text-decoration="none" transform="matrix(1 0 0 1 1429.27 1530)">conversation.chunks</text><text fill="#544393" fill-opacity="1" font-family="Candara,Candara_MSFontService,sans-serif" font-style="normal" font-variant="normal" font-weight="400" font-stretch="normal" font-size="48" text-anchor="start" direction="ltr" writing-mode="lr-tb" unicode-bidi="normal" text-decoration="none" transform="matrix(1 0 0 1 1846.92 1530)">[2])</text><text fill="#544393" fill-opacity="1" font-family="Candara,Candara_MSFontService,sans-serif" font-style="normal" font-variant="normal" font-weight="400" font-stretch="normal" font-size="48" text-anchor="start" direction="ltr" writing-mode="lr-tb" unicode-bidi="normal" text-decoration="none" transform="matrix(1 0 0 1 592.119 1588)">m</text><text fill="#544393" fill-opacity="1" font-family="Candara,Candara_MSFontService,sans-serif" font-style="normal" font-variant="normal" font-weight="400" font-stretch="normal" font-size="48" text-anchor="start" direction="ltr" writing-mode="lr-tb" unicode-bidi="normal" text-decoration="none" transform="matrix(1 0 0 1 631.651 1588)">essages*:</text><text fill="#544393" fill-opacity="1" font-family="Candara,Candara_MSFontService,sans-serif" font-style="normal" font-variant="normal" font-weight="400" font-stretch="normal" font-size="48" text-anchor="start" direction="ltr" writing-mode="lr-tb" unicode-bidi="normal" text-decoration="none" transform="matrix(1 0 0 1 862.078 1588)">[…]</text><path d="M20.3147 36.1919 23.8913 44.632 15.4512 48.2086 11.8746 39.7685ZM27.4679 53.0721 31.0445 61.5122 22.6044 65.0888 19.0278 56.6487ZM34.6211 69.9523 38.1978 78.3924 29.7576 81.9691 26.181 73.5289ZM41.7744 86.8326 45.351 95.2727 36.9109 98.8493 33.3343 90.4092ZM48.9276 103.713 52.5042 112.153 44.0641 115.73 40.4875 107.289ZM56.0808 120.593 59.6575 129.033 51.2173 132.61 47.6407 124.17ZM63.2341 137.473 66.8107 145.913 58.3706 149.49 54.7939 141.05ZM70.3873 154.354 73.9639 162.794 65.5238 166.37 61.9472 157.93ZM77.5405 171.234 81.1172 179.674 72.677 183.251 69.1004 174.81ZM84.6938 188.114 88.2704 196.554 79.8303 200.131 76.2536 191.691ZM91.847 204.994 95.4236 213.434 86.9835 217.011 83.4069 208.571ZM99.0002 221.875 102.577 230.315 94.1367 233.891 90.5601 225.451ZM106.153 238.755 109.73 247.195 101.29 250.772 97.7133 242.331ZM113.307 255.635 116.883 264.075 108.443 267.652 104.867 259.212ZM120.46 272.515 124.037 280.955 115.596 284.532 112.02 276.092ZM127.613 289.396 131.19 297.836 122.75 301.412 119.173 292.972ZM134.766 306.276 138.343 314.716 129.903 318.292 126.326 309.852ZM141.92 323.156 145.496 331.596 137.056 335.173 133.479 326.733ZM149.073 340.036 152.649 348.476 144.209 352.053 140.633 343.613ZM156.226 356.916 159.803 365.357 151.363 368.933 147.786 360.493ZM163.379 373.797 166.956 382.237 158.516 385.813 154.939 377.373ZM170.533 390.677 174.109 399.117 165.669 402.694 162.092 394.254ZM177.686 407.557 181.262 415.997 172.822 419.574 169.246 411.134ZM184.839 424.437 188.416 432.877 179.975 436.454 176.399 428.014ZM191.992 441.318 195.569 449.758 187.129 453.334 183.552 444.894ZM199.145 458.198 202.722 466.638 194.282 470.215 190.705 461.774ZM206.299 475.078 209.875 483.518 201.435 487.095 197.859 478.655ZM213.452 491.958 217.029 500.398 208.588 503.975 205.012 495.535ZM220.605 508.838 224.182 517.279 215.742 520.855 212.165 512.415ZM227.758 525.719 229.361 529.501 220.921 533.077 219.318 529.295ZM-3.2172 51.1421 0 0 38.9834 33.259Z" fill="#000000" fill-rule="nonzero" fill-opacity="0.501961" transform="matrix(1 0 0 -1 1253.5 1469.79)"/><rect x="3890.5" y="1143.5" width="240" height="232" stroke="#544393" stroke-width="4.58333" stroke-linecap="butt" stroke-linejoin="miter" stroke-miterlimit="8" stroke-opacity="1" fill="#FFFFFF" fill-opacity="1"/><text fill="#544393" fill-opacity="1" font-family="Candara,Candara_MSFontService,sans-serif" font-style="normal" font-variant="normal" font-weight="400" font-stretch="normal" font-size="50" text-anchor="start" direction="ltr" writing-mode="lr-tb" unicode-bidi="normal" text-decoration="none" transform="matrix(1 0 0 1 3984.95 1207)">…</text><rect x="3963.5" y="1305.5" width="239" height="233" stroke="#544393" stroke-width="4.58333" stroke-linecap="butt" stroke-linejoin="miter" stroke-miterlimit="8" stroke-opacity="1" fill="#FFFFFF" fill-opacity="1"/><text fill="#544393" fill-opacity="1" font-family="Candara,Candara_MSFontService,sans-serif" font-style="normal" font-variant="normal" font-weight="400" font-stretch="normal" font-size="50" text-anchor="start" direction="ltr" writing-mode="lr-tb" unicode-bidi="normal" text-decoration="none" transform="matrix(1 0 0 1 4057.34 1369)">…</text><rect x="1964.5" y="1145.5" width="1407" height="232" stroke="#544393" stroke-width="4.58333" stroke-linecap="butt" stroke-linejoin="miter" stroke-miterlimit="8" stroke-opacity="1" fill="#FFFFFF" fill-opacity="1"/><text fill="#544393" fill-opacity="1" font-family="Candara,Candara_MSFontService,sans-serif" font-style="normal" font-variant="normal" font-weight="400" font-stretch="normal" font-size="48" text-anchor="start" direction="ltr" writing-mode="lr-tb" unicode-bidi="normal" text-decoration="none" transform="matrix(1 0 0 1 1997.15 1206)">n</text><text fill="#544393" fill-opacity="1" font-family="Candara,Candara_MSFontService,sans-serif" font-style="normal" font-variant="normal" font-weight="400" font-stretch="normal" font-size="48" text-anchor="start" direction="ltr" writing-mode="lr-tb" unicode-bidi="normal" text-decoration="none" transform="matrix(1 0 0 1 2022.93 1206)">ame:</text><text fill="#544393" fill-opacity="1" font-family="Candara,Candara_MSFontService,sans-serif" font-style="normal" font-variant="normal" font-weight="400" font-stretch="normal" font-size="48" text-anchor="start" direction="ltr" writing-mode="lr-tb" unicode-bidi="normal" text-decoration="none" transform="matrix(1 0 0 1 2267.1 1206)">hash($</text><text fill="#544393" fill-opacity="1" font-family="Candara,Candara_MSFontService,sans-serif" font-style="normal" font-variant="normal" font-weight="400" font-stretch="normal" font-size="48" text-anchor="start" direction="ltr" writing-mode="lr-tb" unicode-bidi="normal" text-decoration="none" transform="matrix(1 0 0 1 2400.59 1206)">conversation.name</text><text fill="#544393" fill-opacity="1" font-family="Candara,Candara_MSFontService,sans-serif" font-style="normal" font-variant="normal" font-weight="400" font-stretch="normal" font-size="48" text-anchor="start" direction="ltr" writing-mode="lr-tb" unicode-bidi="normal" text-decoration="none" transform="matrix(1 0 0 1 2789.03 1206)">+$</text><text fill="#544393" fill-opacity="1" font-family="Candara,Candara_MSFontService,sans-serif" font-style="normal" font-variant="normal" font-weight="400" font-stretch="normal" font-size="48" text-anchor="start" direction="ltr" writing-mode="lr-tb" unicode-bidi="normal" text-decoration="none" transform="matrix(1 0 0 1 2834.29 1206)">conversation.chunks</text><text fill="#544393" fill-opacity="1" font-family="Candara,Candara_MSFontService,sans-serif" font-style="normal" font-variant="normal" font-weight="400" font-stretch="normal" font-size="48" text-anchor="start" direction="ltr" writing-mode="lr-tb" unicode-bidi="normal" text-decoration="none" transform="matrix(1 0 0 1 3251.95 1206)">[0])</text><text fill="#544393" fill-opacity="1" font-family="Candara,Candara_MSFontService,sans-serif" font-style="normal" font-variant="normal" font-weight="400" font-stretch="normal" font-size="48" text-anchor="start" direction="ltr" writing-mode="lr-tb" unicode-bidi="normal" text-decoration="none" transform="matrix(1 0 0 1 1997.15 1264)">m</text><text fill="#544393" fill-opacity="1" font-family="Candara,Candara_MSFontService,sans-serif" font-style="normal" font-variant="normal" font-weight="400" font-stretch="normal" font-size="48" text-anchor="start" direction="ltr" writing-mode="lr-tb" unicode-bidi="normal" text-decoration="none" transform="matrix(1 0 0 1 2036.68 1264)">essages*:</text><text fill="#544393" fill-opacity="1" font-family="Candara,Candara_MSFontService,sans-serif" font-style="normal" font-variant="normal" font-weight="400" font-stretch="normal" font-size="48" text-anchor="start" direction="ltr" writing-mode="lr-tb" unicode-bidi="normal" text-decoration="none" transform="matrix(1 0 0 1 2267.1 1264)">[…]  // message envelopes</text><rect x="2027.5" y="1302.5" width="1396" height="232" stroke="#544393" stroke-width="4.58333" stroke-linecap="butt" stroke-linejoin="miter" stroke-miterlimit="8" stroke-opacity="1" fill="#FFFFFF" fill-opacity="1"/><text fill="#544393" fill-opacity="1" font-family="Candara,Candara_MSFontService,sans-serif" font-style="normal" font-variant="normal" font-weight="400" font-stretch="normal" font-size="48" text-anchor="start" direction="ltr" writing-mode="lr-tb" unicode-bidi="normal" text-decoration="none" transform="matrix(1 0 0 1 2060.12 1363)">n</text><text fill="#544393" fill-opacity="1" font-family="Candara,Candara_MSFontService,sans-serif" font-style="normal" font-variant="normal" font-weight="400" font-stretch="normal" font-size="48" text-anchor="start" direction="ltr" writing-mode="lr-tb" unicode-bidi="normal" text-decoration="none" transform="matrix(1 0 0 1 2085.9 1363)">ame:</text><text fill="#544393" fill-opacity="1" font-family="Candara,Candara_MSFontService,sans-serif" font-style="normal" font-variant="normal" font-weight="400" font-stretch="normal" font-size="48" text-anchor="start" direction="ltr" writing-mode="lr-tb" unicode-bidi="normal" text-decoration="none" transform="matrix(1 0 0 1 2330.07 1363)">hash($</text><text fill="#544393" fill-opacity="1" font-family="Candara,Candara_MSFontService,sans-serif" font-style="normal" font-variant="normal" font-weight="400" font-stretch="normal" font-size="48" text-anchor="start" direction="ltr" writing-mode="lr-tb" unicode-bidi="normal" text-decoration="none" transform="matrix(1 0 0 1 2463.56 1363)">conversation.name</text><text fill="#544393" fill-opacity="1" font-family="Candara,Candara_MSFontService,sans-serif" font-style="normal" font-variant="normal" font-weight="400" font-stretch="normal" font-size="48" text-anchor="start" direction="ltr" writing-mode="lr-tb" unicode-bidi="normal" text-decoration="none" transform="matrix(1 0 0 1 2852 1363)">+$</text><text fill="#544393" fill-opacity="1" font-family="Candara,Candara_MSFontService,sans-serif" font-style="normal" font-variant="normal" font-weight="400" font-stretch="normal" font-size="48" text-anchor="start" direction="ltr" writing-mode="lr-tb" unicode-bidi="normal" text-decoration="none" transform="matrix(1 0 0 1 2897.26 1363)">conversation.chunks</text><text fill="#544393" fill-opacity="1" font-family="Candara,Candara_MSFontService,sans-serif" font-style="normal" font-variant="normal" font-weight="400" font-stretch="normal" font-size="48" text-anchor="start" direction="ltr" writing-mode="lr-tb" unicode-bidi="normal" text-decoration="none" transform="matrix(1 0 0 1 3314.92 1363)">[1])</text><text fill="#544393" fill-opacity="1" font-family="Candara,Candara_MSFontService,sans-serif" font-style="normal" font-variant="normal" font-weight="400" font-stretch="normal" font-size="48" text-anchor="start" direction="ltr" writing-mode="lr-tb" unicode-bidi="normal" text-decoration="none" transform="matrix(1 0 0 1 2060.12 1421)">m</text><text fill="#544393" fill-opacity="1" font-family="Candara,Candara_MSFontService,sans-serif" font-style="normal" font-variant="normal" font-weight="400" font-stretch="normal" font-size="48" text-anchor="start" direction="ltr" writing-mode="lr-tb" unicode-bidi="normal" text-decoration="none" transform="matrix(1 0 0 1 2099.65 1421)">essages*:</text><text fill="#544393" fill-opacity="1" font-family="Candara,Candara_MSFontService,sans-serif" font-style="normal" font-variant="normal" font-weight="400" font-stretch="normal" font-size="48" text-anchor="start" direction="ltr" writing-mode="lr-tb" unicode-bidi="normal" text-decoration="none" transform="matrix(1 0 0 1 2330.07 1421)">[…]</text><rect x="2110.5" y="1493.5" width="1374" height="120" stroke="#544393" stroke-width="4.58333" stroke-linecap="butt" stroke-linejoin="miter" stroke-miterlimit="8" stroke-opacity="1" fill="#FFFFFF" fill-opacity="1"/><text fill="#544393" fill-opacity="1" font-family="Candara,Candara_MSFontService,sans-serif" font-style="normal" font-variant="normal" font-weight="400" font-stretch="normal" font-size="50" text-anchor="start" direction="ltr" writing-mode="lr-tb" unicode-bidi="normal" text-decoration="none" transform="matrix(1 0 0 1 2771.86 1556)">…</text><path d="M2601.5 374.5C2640.47 360.624 2692.14 385.546 2754.44 374.5 2816.73 363.454 2837.96 376.778 2897.91 374.5 2957.86 372.221 3019.55 394.475 3074.5 374.5 3080.68 430.782 3059.8 480.766 3074.5 518.5 3028.05 531.969 2988.51 504.955 2926.29 518.5 2864.08 532.044 2827.81 503.65 2759.17 518.5 2690.52 533.349 2655.18 501.466 2601.5 518.5 2599.62 487.898 2612.97 403.919 2601.5 374.5Z" fill="#F2F2F2" fill-rule="evenodd" fill-opacity="1"/><path d="M2601.5 374.5C2676.6 362.257 2708.75 388.053 2768.63 374.5 2828.51 360.946 2860.11 376.323 2931.02 374.5 3001.94 372.677 3033.64 389.824 3074.5 374.5 3076.7 440.249 3065.57 447.219 3074.5 518.5 3019.27 530.552 2963.25 507.988 2926.29 518.5 2889.34 529.012 2808.06 501.929 2768.63 518.5 2729.19 535.071 2667.15 502.385 2601.5 518.5 2591.54 474.431 2607.35 443.062 2601.5 374.5Z" stroke="#7F6000" stroke-width="3.4375" stroke-linecap="butt" stroke-linejoin="round" stroke-miterlimit="10" stroke-opacity="1" fill="none" fill-rule="evenodd"/><text fill="#7F6000" fill-opacity="1" font-family="Candara,Candara_MSFontService,sans-serif" font-style="normal" font-variant="normal" font-weight="400" font-stretch="normal" font-size="46" text-anchor="start" direction="ltr" writing-mode="lr-tb" unicode-bidi="normal" text-decoration="none" transform="matrix(1 0 0 1 2634.2 433)">list of ENS</text><text fill="#7F6000" fill-opacity="1" font-family="Candara,Candara_MSFontService,sans-serif" font-style="normal" font-variant="normal" font-weight="400" font-stretch="normal" font-size="46" text-anchor="start" direction="ltr" writing-mode="lr-tb" unicode-bidi="normal" text-decoration="none" transform="matrix(1 0 0 1 2829.56 433)">-</text><text fill="#7F6000" fill-opacity="1" font-family="Candara,Candara_MSFontService,sans-serif" font-style="normal" font-variant="normal" font-weight="400" font-stretch="normal" font-size="46" text-anchor="start" direction="ltr" writing-mode="lr-tb" unicode-bidi="normal" text-decoration="none" transform="matrix(1 0 0 1 2841.02 433)">names, </text><text fill="#7F6000" fill-opacity="1" font-family="Candara,Candara_MSFontService,sans-serif" font-style="normal" font-variant="normal" font-weight="400" font-stretch="normal" font-size="46" text-anchor="start" direction="ltr" writing-mode="lr-tb" unicode-bidi="normal" text-decoration="none" transform="matrix(1 0 0 1 2634.2 488)">encrypted</text><path d="M1568.5 842.5C1653.44 833.34 1655.36 860.284 1739.14 842.5 1822.92 824.716 1850.31 845.58 1895.56 842.5 1940.81 839.42 2011.57 843.11 2087.53 842.5 2163.49 841.89 2193.61 851.003 2279.5 842.5 2285.13 874.477 2264.4 954.82 2279.5 987.5 2210.29 993.052 2190.82 983.021 2115.97 987.5 2041.12 991.979 2031.18 973.384 1952.44 987.5 1873.7 1001.62 1847.2 984.044 1760.47 987.5 1673.74 990.956 1619.62 982.28 1568.5 987.5 1557.07 925.239 1570.66 895.116 1568.5 842.5Z" fill="#F2F2F2" fill-rule="evenodd" fill-opacity="1"/><path d="M1568.5 842.5C1614.15 825.859 1686.95 855.975 1739.14 842.5 1791.33 829.025 1836.43 862.172 1916.89 842.5 1997.35 822.828 2030.64 849.724 2094.64 842.5 2158.64 835.276 2201.41 861.914 2279.5 842.5 2288.01 897.425 2270.5 956.099 2279.5 987.5 2196.94 1006.24 2150.89 968.647 2101.75 987.5 2052.61 1006.35 2003.59 984.815 1938.22 987.5 1872.85 990.185 1840.78 977.96 1774.69 987.5 1708.6 997.041 1637.95 986.996 1568.5 987.5 1566.53 951.025 1569.68 883.445 1568.5 842.5Z" stroke="#7F6000" stroke-width="3.4375" stroke-linecap="butt" stroke-linejoin="round" stroke-miterlimit="10" stroke-opacity="1" fill="none" fill-rule="evenodd"/><text fill="#7F6000" fill-opacity="1" font-family="Candara,Candara_MSFontService,sans-serif" font-style="normal" font-variant="normal" font-weight="400" font-stretch="normal" font-size="46" text-anchor="start" direction="ltr" writing-mode="lr-tb" unicode-bidi="normal" text-decoration="none" transform="matrix(1 0 0 1 1600.51 902)">list of chunks (id, timestamp) , </text><text fill="#7F6000" fill-opacity="1" font-family="Candara,Candara_MSFontService,sans-serif" font-style="normal" font-variant="normal" font-weight="400" font-stretch="normal" font-size="46" text-anchor="start" direction="ltr" writing-mode="lr-tb" unicode-bidi="normal" text-decoration="none" transform="matrix(1 0 0 1 1600.51 957)">encrypted</text><path d="M1050.5 1591.5C1134.53 1577.73 1185.39 1611.92 1244.9 1591.5 1304.41 1571.08 1384.26 1610.65 1423.1 1591.5 1461.94 1572.35 1546.64 1617.3 1641.8 1591.5 1736.96 1565.7 1789.38 1617.15 1860.5 1591.5 1866.14 1623.48 1845.39 1703.82 1860.5 1736.5 1778.94 1749.97 1738.38 1719.64 1674.2 1736.5 1610.02 1753.36 1543.8 1725.48 1487.9 1736.5 1432 1747.52 1321.88 1716.5 1269.2 1736.5 1216.52 1756.5 1134.96 1731.21 1050.5 1736.5 1039.06 1674.24 1052.66 1644.12 1050.5 1591.5Z" fill="#F2F2F2" fill-rule="evenodd" fill-opacity="1"/><path d="M1050.5 1591.5C1115.42 1590.44 1163.09 1594.49 1244.9 1591.5 1326.71 1588.51 1404.43 1605.32 1447.4 1591.5 1490.37 1577.68 1586.47 1593.39 1649.9 1591.5 1713.33 1589.61 1781.13 1607.02 1860.5 1591.5 1869.01 1646.43 1851.49 1705.1 1860.5 1736.5 1809.41 1744.24 1743.56 1716.5 1658 1736.5 1572.44 1756.5 1522.09 1735.08 1471.7 1736.5 1421.31 1737.92 1362.55 1730.34 1285.4 1736.5 1208.25 1742.66 1155.58 1720.23 1050.5 1736.5 1048.53 1700.02 1051.68 1632.44 1050.5 1591.5Z" stroke="#7F6000" stroke-width="3.4375" stroke-linecap="butt" stroke-linejoin="round" stroke-miterlimit="10" stroke-opacity="1" fill="none" fill-rule="evenodd"/><text fill="#7F6000" fill-opacity="1" font-family="Candara,Candara_MSFontService,sans-serif" font-style="normal" font-variant="normal" font-weight="400" font-stretch="normal" font-size="46" text-anchor="start" direction="ltr" writing-mode="lr-tb" unicode-bidi="normal" text-decoration="none" transform="matrix(1 0 0 1 1083.04 1651)">list of messages (crypted envelopes), </text><text fill="#7F6000" fill-opacity="1" font-family="Candara,Candara_MSFontService,sans-serif" font-style="normal" font-variant="normal" font-weight="400" font-stretch="normal" font-size="46" text-anchor="start" direction="ltr" writing-mode="lr-tb" unicode-bidi="normal" text-decoration="none" transform="matrix(1 0 0 1 1083.04 1706)">encrypted</text></g></svg>