<svg width="4199" height="1586" xmlns="http://www.w3.org/2000/svg" xmlns:xlink="http://www.w3.org/1999/xlink" xml:space="preserve" overflow="hidden"><defs><clipPath id="clip0"><rect x="91" y="183" width="4199" height="1586"/></clipPath></defs><g clip-path="url(#clip0)" transform="translate(-91 -183)"><rect x="121" y="1093" width="4166" height="676" fill="#544393" fill-opacity="0.501961"/><rect x="121" y="643" width="4166" height="371" fill="#544393" fill-opacity="0.301961"/><rect x="121" y="193" width="4166" height="371" fill="#544393" fill-opacity="0.2"/><rect x="1703.5" y="262.5" width="1109" height="232" stroke="#544393" stroke-width="4.58333" stroke-linecap="butt" stroke-linejoin="miter" stroke-miterlimit="8" stroke-opacity="1" fill="#FFFFFF" fill-opacity="1"/><text fill="#544393" fill-opacity="1" font-family="Candara,Candara_MSFontService,sans-serif" font-style="normal" font-variant="normal" font-weight="400" font-stretch="normal" font-size="48" text-anchor="start" direction="ltr" writing-mode="lr-tb" unicode-bidi="normal" text-decoration="none" transform="matrix(1 0 0 1 1735.54 323)">key:</text><text fill="#544393" fill-opacity="1" font-family="Candara,Candara_MSFontService,sans-serif" font-style="normal" font-variant="normal" font-weight="400" font-stretch="normal" font-size="48" text-anchor="start" direction="ltr" writing-mode="lr-tb" unicode-bidi="normal" text-decoration="none" transform="matrix(1 0 0 1 2065.54 323)">sha256(sig($</text><text fill="#544393" fill-opacity="1" font-family="Candara,Candara_MSFontService,sans-serif" font-style="normal" font-variant="normal" font-weight="400" font-stretch="normal" font-size="48" text-anchor="start" direction="ltr" writing-mode="lr-tb" unicode-bidi="normal" text-decoration="none" transform="matrix(1 0 0 1 2318.77 323)">own_ens_name</text><text fill="#544393" fill-opacity="1" font-family="Candara,Candara_MSFontService,sans-serif" font-style="normal" font-variant="normal" font-weight="400" font-stretch="normal" font-size="48" text-anchor="start" direction="ltr" writing-mode="lr-tb" unicode-bidi="normal" text-decoration="none" transform="matrix(1 0 0 1 2640.18 323)">))</text><text fill="#544393" fill-opacity="1" font-family="Candara,Candara_MSFontService,sans-serif" font-style="normal" font-variant="normal" font-weight="400" font-stretch="normal" font-size="48" text-anchor="start" direction="ltr" writing-mode="lr-tb" unicode-bidi="normal" text-decoration="none" transform="matrix(1 0 0 1 1735.54 381)">conversations*:</text><text fill="#544393" fill-opacity="1" font-family="Candara,Candara_MSFontService,sans-serif" font-style="normal" font-variant="normal" font-weight="400" font-stretch="normal" font-size="48" text-anchor="start" direction="ltr" writing-mode="lr-tb" unicode-bidi="normal" text-decoration="none" transform="matrix(1 0 0 1 2065.54 381)">[…]  // </text><text fill="#544393" fill-opacity="1" font-family="Candara,Candara_MSFontService,sans-serif" font-style="normal" font-variant="normal" font-weight="400" font-stretch="normal" font-size="48" text-anchor="start" direction="ltr" writing-mode="lr-tb" unicode-bidi="normal" text-decoration="none" transform="matrix(1 0 0 1 2204.19 381)">ens</text><text fill="#544393" fill-opacity="1" font-family="Candara,Candara_MSFontService,sans-serif" font-style="normal" font-variant="normal" font-weight="400" font-stretch="normal" font-size="48" text-anchor="start" direction="ltr" writing-mode="lr-tb" unicode-bidi="normal" text-decoration="none" transform="matrix(1 0 0 1 2284.97 381)">names</text><rect x="962.5" y="711.5" width="1102" height="233" stroke="#544393" stroke-width="4.58333" stroke-linecap="butt" stroke-linejoin="miter" stroke-miterlimit="8" stroke-opacity="1" fill="#FFFFFF" fill-opacity="1"/><text fill="#544393" fill-opacity="1" font-family="Candara,Candara_MSFontService,sans-serif" font-style="normal" font-variant="normal" font-weight="400" font-stretch="normal" font-size="48" text-anchor="start" direction="ltr" writing-mode="lr-tb" unicode-bidi="normal" text-decoration="none" transform="matrix(1 0 0 1 994.66 773)">key:</text><text fill="#544393" fill-opacity="1" font-family="Candara,Candara_MSFontService,sans-serif" font-style="normal" font-variant="normal" font-weight="400" font-stretch="normal" font-size="48" text-anchor="start" direction="ltr" writing-mode="lr-tb" unicode-bidi="normal" text-decoration="none" transform="matrix(1 0 0 1 1186.7 773)">sha256(</text><text fill="#544393" fill-opacity="1" font-family="Candara,Candara_MSFontService,sans-serif" font-style="normal" font-variant="normal" font-weight="400" font-stretch="normal" font-size="48" text-anchor="start" direction="ltr" writing-mode="lr-tb" unicode-bidi="normal" text-decoration="none" transform="matrix(1 0 0 1 1345.4 773)">root</text><text fill="#544393" fill-opacity="1" font-family="Candara,Candara_MSFontService,sans-serif" font-style="normal" font-variant="normal" font-weight="400" font-stretch="normal" font-size="48" text-anchor="start" direction="ltr" writing-mode="lr-tb" unicode-bidi="normal" text-decoration="none" transform="matrix(1 0 0 1 1433.63 773)">.key+</text><text fill="#544393" fill-opacity="1" font-family="Candara,Candara_MSFontService,sans-serif" font-style="normal" font-variant="normal" font-weight="400" font-stretch="normal" font-size="48" text-anchor="start" direction="ltr" writing-mode="lr-tb" unicode-bidi="normal" text-decoration="none" transform="matrix(1 0 0 1 1540.19 773)">root.conversations</text><text fill="#544393" fill-opacity="1" font-family="Candara,Candara_MSFontService,sans-serif" font-style="normal" font-variant="normal" font-weight="400" font-stretch="normal" font-size="48" text-anchor="start" direction="ltr" writing-mode="lr-tb" unicode-bidi="normal" text-decoration="none" transform="matrix(1 0 0 1 1923.47 773)">[0]))</text><text fill="#544393" fill-opacity="1" font-family="Candara,Candara_MSFontService,sans-serif" font-style="normal" font-variant="normal" font-weight="400" font-stretch="normal" font-size="48" text-anchor="start" direction="ltr" writing-mode="lr-tb" unicode-bidi="normal" text-decoration="none" transform="matrix(1 0 0 1 994.66 831)">chunks*:</text><text fill="#544393" fill-opacity="1" font-family="Candara,Candara_MSFontService,sans-serif" font-style="normal" font-variant="normal" font-weight="400" font-stretch="normal" font-size="48" text-anchor="start" direction="ltr" writing-mode="lr-tb" unicode-bidi="normal" text-decoration="none" transform="matrix(1 0 0 1 1186.7 831)">[…]  // chunk identifier</text><rect x="2152.5" y="711.5" width="1102" height="233" stroke="#544393" stroke-width="4.58333" stroke-linecap="butt" stroke-linejoin="miter" stroke-miterlimit="8" stroke-opacity="1" fill="#FFFFFF" fill-opacity="1"/><text fill="#544393" fill-opacity="1" font-family="Candara,Candara_MSFontService,sans-serif" font-style="normal" font-variant="normal" font-weight="400" font-stretch="normal" font-size="48" text-anchor="start" direction="ltr" writing-mode="lr-tb" unicode-bidi="normal" text-decoration="none" transform="matrix(1 0 0 1 2185.02 773)">key:</text><text fill="#544393" fill-opacity="1" font-family="Candara,Candara_MSFontService,sans-serif" font-style="normal" font-variant="normal" font-weight="400" font-stretch="normal" font-size="48" text-anchor="start" direction="ltr" writing-mode="lr-tb" unicode-bidi="normal" text-decoration="none" transform="matrix(1 0 0 1 2377.06 773)">sha256(</text><text fill="#544393" fill-opacity="1" font-family="Candara,Candara_MSFontService,sans-serif" font-style="normal" font-variant="normal" font-weight="400" font-stretch="normal" font-size="48" text-anchor="start" direction="ltr" writing-mode="lr-tb" unicode-bidi="normal" text-decoration="none" transform="matrix(1 0 0 1 2535.76 773)">root</text><text fill="#544393" fill-opacity="1" font-family="Candara,Candara_MSFontService,sans-serif" font-style="normal" font-variant="normal" font-weight="400" font-stretch="normal" font-size="48" text-anchor="start" direction="ltr" writing-mode="lr-tb" unicode-bidi="normal" text-decoration="none" transform="matrix(1 0 0 1 2623.99 773)">.key+</text><text fill="#544393" fill-opacity="1" font-family="Candara,Candara_MSFontService,sans-serif" font-style="normal" font-variant="normal" font-weight="400" font-stretch="normal" font-size="48" text-anchor="start" direction="ltr" writing-mode="lr-tb" unicode-bidi="normal" text-decoration="none" transform="matrix(1 0 0 1 2730.55 773)">root.conversations</text><text fill="#544393" fill-opacity="1" font-family="Candara,Candara_MSFontService,sans-serif" font-style="normal" font-variant="normal" font-weight="400" font-stretch="normal" font-size="48" text-anchor="start" direction="ltr" writing-mode="lr-tb" unicode-bidi="normal" text-decoration="none" transform="matrix(1 0 0 1 3113.83 773)">[1]))</text><text fill="#544393" fill-opacity="1" font-family="Candara,Candara_MSFontService,sans-serif" font-style="normal" font-variant="normal" font-weight="400" font-stretch="normal" font-size="48" text-anchor="start" direction="ltr" writing-mode="lr-tb" unicode-bidi="normal" text-decoration="none" transform="matrix(1 0 0 1 2185.02 831)">chunks*:</text><text fill="#544393" fill-opacity="1" font-family="Candara,Candara_MSFontService,sans-serif" font-style="normal" font-variant="normal" font-weight="400" font-stretch="normal" font-size="48" text-anchor="start" direction="ltr" writing-mode="lr-tb" unicode-bidi="normal" text-decoration="none" transform="matrix(1 0 0 1 2377.06 831)">[…]  </text><rect x="464.5" y="1161.5" width="1407" height="232" stroke="#544393" stroke-width="4.58333" stroke-linecap="butt" stroke-linejoin="miter" stroke-miterlimit="8" stroke-opacity="1" fill="#FFFFFF" fill-opacity="1"/><text fill="#544393" fill-opacity="1" font-family="Candara,Candara_MSFontService,sans-serif" font-style="normal" font-variant="normal" font-weight="400" font-stretch="normal" font-size="48" text-anchor="start" direction="ltr" writing-mode="lr-tb" unicode-bidi="normal" text-decoration="none" transform="matrix(1 0 0 1 496.77 1223)">key:</text><text fill="#544393" fill-opacity="1" font-family="Candara,Candara_MSFontService,sans-serif" font-style="normal" font-variant="normal" font-weight="400" font-stretch="normal" font-size="48" text-anchor="start" direction="ltr" writing-mode="lr-tb" unicode-bidi="normal" text-decoration="none" transform="matrix(1 0 0 1 766.728 1223)">hash($</text><text fill="#544393" fill-opacity="1" font-family="Candara,Candara_MSFontService,sans-serif" font-style="normal" font-variant="normal" font-weight="400" font-stretch="normal" font-size="48" text-anchor="start" direction="ltr" writing-mode="lr-tb" unicode-bidi="normal" text-decoration="none" transform="matrix(1 0 0 1 900.218 1223)">conversation</text><text fill="#544393" fill-opacity="1" font-family="Candara,Candara_MSFontService,sans-serif" font-style="normal" font-variant="normal" font-weight="400" font-stretch="normal" font-size="48" text-anchor="start" direction="ltr" writing-mode="lr-tb" unicode-bidi="normal" text-decoration="none" transform="matrix(1 0 0 1 1163.19 1223)">.key</text><text fill="#544393" fill-opacity="1" font-family="Candara,Candara_MSFontService,sans-serif" font-style="normal" font-variant="normal" font-weight="400" font-stretch="normal" font-size="48" text-anchor="start" direction="ltr" writing-mode="lr-tb" unicode-bidi="normal" text-decoration="none" transform="matrix(1 0 0 1 1245.69 1223)">+$</text><text fill="#544393" fill-opacity="1" font-family="Candara,Candara_MSFontService,sans-serif" font-style="normal" font-variant="normal" font-weight="400" font-stretch="normal" font-size="48" text-anchor="start" direction="ltr" writing-mode="lr-tb" unicode-bidi="normal" text-decoration="none" transform="matrix(1 0 0 1 1290.95 1223)">conversation.chunks</text><text fill="#544393" fill-opacity="1" font-family="Candara,Candara_MSFontService,sans-serif" font-style="normal" font-variant="normal" font-weight="400" font-stretch="normal" font-size="48" text-anchor="start" direction="ltr" writing-mode="lr-tb" unicode-bidi="normal" text-decoration="none" transform="matrix(1 0 0 1 1708.6 1223)">[0])</text><text fill="#544393" fill-opacity="1" font-family="Candara,Candara_MSFontService,sans-serif" font-style="normal" font-variant="normal" font-weight="400" font-stretch="normal" font-size="48" text-anchor="start" direction="ltr" writing-mode="lr-tb" unicode-bidi="normal" text-decoration="none" transform="matrix(1 0 0 1 496.77 1281)">messages*:</text><text fill="#544393" fill-opacity="1" font-family="Candara,Candara_MSFontService,sans-serif" font-style="normal" font-variant="normal" font-weight="400" font-stretch="normal" font-size="48" text-anchor="start" direction="ltr" writing-mode="lr-tb" unicode-bidi="normal" text-decoration="none" transform="matrix(1 0 0 1 766.728 1281)">[…]  // message envelopes</text><text fill="#000000" fill-opacity="1" font-family="Arial,Arial_MSFontService,sans-serif" font-style="normal" font-variant="normal" font-weight="400" font-stretch="normal" font-size="83" text-anchor="start" direction="ltr" writing-mode="lr-tb" unicode-bidi="normal" text-decoration="none" transform="matrix(1 0 0 1 154.921 290)">root</text><text fill="#000000" fill-opacity="1" font-family="Arial,Arial_MSFontService,sans-serif" font-style="normal" font-variant="normal" font-weight="400" font-stretch="normal" font-size="83" text-anchor="start" direction="ltr" writing-mode="lr-tb" unicode-bidi="normal" text-decoration="none" transform="matrix(1 0 0 1 145.803 741)">conversations:</text><text fill="#000000" fill-opacity="1" font-family="Arial,Arial_MSFontService,sans-serif" font-style="normal" font-variant="normal" font-weight="400" font-stretch="normal" font-size="83" text-anchor="start" direction="ltr" writing-mode="lr-tb" unicode-bidi="normal" text-decoration="none" transform="matrix(1 0 0 1 153.947 1201)">chunks:</text><path d="M40.8775 7.17765 745.686 213.269 743.113 222.067 38.3048 15.9759ZM37.5595 34.859 0 0 50.4229-9.13222Z" fill="#000000" fill-rule="nonzero" fill-opacity="0.501961" transform="matrix(1 0 0 -1 1513.5 712.168)"/><rect x="3345.5" y="711.5" width="240" height="233" stroke="#544393" stroke-width="4.58333" stroke-linecap="butt" stroke-linejoin="miter" stroke-miterlimit="8" stroke-opacity="1" fill="#FFFFFF" fill-opacity="1"/><text fill="#544393" fill-opacity="1" font-family="Candara,Candara_MSFontService,sans-serif" font-style="normal" font-variant="normal" font-weight="400" font-stretch="normal" font-size="50" text-anchor="start" direction="ltr" writing-mode="lr-tb" unicode-bidi="normal" text-decoration="none" transform="matrix(1 0 0 1 3410.1 775)">…[2]</text><rect x="3676.5" y="714.5" width="239" height="232" stroke="#544393" stroke-width="4.58333" stroke-linecap="butt" stroke-linejoin="miter" stroke-miterlimit="8" stroke-opacity="1" fill="#FFFFFF" fill-opacity="1"/><text fill="#544393" fill-opacity="1" font-family="Candara,Candara_MSFontService,sans-serif" font-style="normal" font-variant="normal" font-weight="400" font-stretch="normal" font-size="50" text-anchor="start" direction="ltr" writing-mode="lr-tb" unicode-bidi="normal" text-decoration="none" transform="matrix(1 0 0 1 3740.14 778)">…[3]</text><rect x="3991.5" y="718.5" width="240" height="232" stroke="#544393" stroke-width="4.58333" stroke-linecap="butt" stroke-linejoin="miter" stroke-miterlimit="8" stroke-opacity="1" fill="#FFFFFF" fill-opacity="1"/><text fill="#544393" fill-opacity="1" font-family="Candara,Candara_MSFontService,sans-serif" font-style="normal" font-variant="normal" font-weight="400" font-stretch="normal" font-size="50" text-anchor="start" direction="ltr" writing-mode="lr-tb" unicode-bidi="normal" text-decoration="none" transform="matrix(1 0 0 1 4085.68 781)">…</text><rect x="3526.5" y="1149.5" width="239" height="233" stroke="#544393" stroke-width="4.58333" stroke-linecap="butt" stroke-linejoin="miter" stroke-miterlimit="8" stroke-opacity="1" fill="#FFFFFF" fill-opacity="1"/><text fill="#544393" fill-opacity="1" font-family="Candara,Candara_MSFontService,sans-serif" font-style="normal" font-variant="normal" font-weight="400" font-stretch="normal" font-size="50" text-anchor="start" direction="ltr" writing-mode="lr-tb" unicode-bidi="normal" text-decoration="none" transform="matrix(1 0 0 1 3620.27 1213)">…</text><rect x="3598.5" y="1312.5" width="240" height="232" stroke="#544393" stroke-width="4.58333" stroke-linecap="butt" stroke-linejoin="miter" stroke-miterlimit="8" stroke-opacity="1" fill="#FFFFFF" fill-opacity="1"/><text fill="#544393" fill-opacity="1" font-family="Candara,Candara_MSFontService,sans-serif" font-style="normal" font-variant="normal" font-weight="400" font-stretch="normal" font-size="50" text-anchor="start" direction="ltr" writing-mode="lr-tb" unicode-bidi="normal" text-decoration="none" transform="matrix(1 0 0 1 3692.67 1375)">…</text><rect x="3670.5" y="1463.5" width="240" height="232" stroke="#544393" stroke-width="4.58333" stroke-linecap="butt" stroke-linejoin="miter" stroke-miterlimit="8" stroke-opacity="1" fill="#FFFFFF" fill-opacity="1"/><text fill="#544393" fill-opacity="1" font-family="Candara,Candara_MSFontService,sans-serif" font-style="normal" font-variant="normal" font-weight="400" font-stretch="normal" font-size="50" text-anchor="start" direction="ltr" writing-mode="lr-tb" unicode-bidi="normal" text-decoration="none" transform="matrix(1 0 0 1 3764.61 1527)">…</text><path d="M37.3444 18.1103 347.941 213.79 343.055 221.546 32.4581 25.8661ZM26.5634 43.8207 0 0 50.9946 5.04176Z" fill="#000000" fill-rule="nonzero" fill-opacity="0.501961" transform="matrix(1 0 0 -1 1163.5 1162.17)"/><path d="M28.7861 29.8991 34.3758 37.1643 27.1105 42.754 21.5209 35.4887ZM39.9654 44.4296 45.555 51.6949 38.2898 57.2845 32.7002 50.0192ZM51.1447 58.9601 56.7343 66.2253 49.469 71.815 43.8794 64.5497ZM62.3239 73.4906 67.9135 80.7558 60.6483 86.3455 55.0587 79.0802ZM73.5032 88.0211 79.0928 95.2863 71.8275 100.876 66.2379 93.6107ZM84.6824 102.552 90.272 109.817 83.0068 115.406 77.4172 108.141ZM95.8617 117.082 101.451 124.347 94.186 129.937 88.5964 122.672ZM107.041 131.613 112.631 138.878 105.365 144.467 99.7757 137.202ZM118.22 146.143 123.81 153.408 116.545 158.998 110.955 151.733ZM129.399 160.674 134.989 167.939 127.724 173.528 122.134 166.263ZM140.579 175.204 146.168 182.469 138.903 188.059 133.313 180.794ZM151.758 189.735 157.348 197 150.082 202.589 144.493 195.324ZM162.937 204.265 168.527 211.53 161.262 217.12 155.672 209.855ZM174.116 218.796 179.706 226.061 172.441 231.651 166.851 224.385ZM185.296 233.326 190.885 240.591 183.62 246.181 178.03 238.916ZM196.475 247.857 202.065 255.122 194.799 260.712 189.21 253.446ZM207.654 262.387 213.244 269.652 205.979 275.242 200.389 267.977ZM218.833 276.918 224.423 284.183 217.158 289.773 211.568 282.507ZM230.013 291.448 235.602 298.713 228.337 304.303 222.747 297.038ZM241.192 305.979 246.782 313.244 239.516 318.833 233.927 311.568ZM252.371 320.509 257.961 327.774 250.696 333.364 245.106 326.099ZM263.55 335.04 269.14 342.305 261.875 347.895 256.285 340.629ZM274.73 349.57 280.319 356.835 273.054 362.425 267.464 355.16ZM285.909 364.101 291.499 371.366 284.233 376.956 278.644 369.69ZM9.78499 50.3003 0 0 46.1112 22.3522Z" fill="#000000" fill-rule="nonzero" fill-opacity="0.501961" transform="matrix(1 0 0 -1 1221.5 1318.98)"/><path d="M2664.38 698.194 2656.14 694.173 2660.16 685.935 2668.4 689.956ZM2647.9 690.152 2639.66 686.131 2643.69 677.893 2651.92 681.914ZM2631.43 682.11 2623.19 678.09 2627.21 669.852 2635.45 673.873ZM2614.95 674.069 2606.71 670.048 2610.73 661.81 2618.97 665.831ZM2598.48 666.027 2590.24 662.007 2594.26 653.769 2602.5 657.79ZM2582 657.986 2573.76 653.965 2577.78 645.727 2586.02 649.748ZM2565.52 649.944 2557.29 645.923 2561.31 637.686 2569.55 641.706ZM2549.05 641.903 2540.81 637.882 2544.83 629.644 2553.07 633.665ZM2532.57 633.861 2524.34 629.84 2528.36 621.603 2536.59 625.623ZM2516.1 625.82 2507.86 621.799 2511.88 613.561 2520.12 617.582ZM2499.62 617.778 2491.38 613.757 2495.41 605.519 2503.64 609.54ZM2483.15 609.736 2474.91 605.716 2478.93 597.478 2487.17 601.499ZM2466.67 601.695 2458.43 597.674 2462.45 589.436 2470.69 593.457ZM2450.2 593.653 2441.96 589.633 2445.98 581.395 2454.22 585.416ZM2433.72 585.612 2425.48 581.591 2429.5 573.353 2437.74 577.374ZM2417.24 577.57 2409.01 573.549 2413.03 565.312 2421.27 569.332ZM2400.77 569.529 2392.53 565.508 2396.55 557.27 2404.79 561.291ZM2384.29 561.487 2376.06 557.466 2380.08 549.228 2388.31 553.249ZM2367.82 553.445 2359.58 549.425 2363.6 541.187 2371.84 545.208ZM2351.34 545.404 2343.1 541.383 2347.13 533.145 2355.36 537.166ZM2334.87 537.362 2326.63 533.342 2330.65 525.104 2338.89 529.125ZM2318.39 529.321 2310.15 525.3 2314.17 517.062 2322.41 521.083ZM2301.92 521.279 2293.68 517.258 2297.7 509.021 2305.94 513.041ZM2285.44 513.238 2277.2 509.217 2281.22 500.979 2289.46 505ZM2268.96 505.196 2260.73 501.175 2264.75 492.938 2272.99 496.958ZM2672.32 671.47 2703.46 712.168 2652.22 712.659Z" fill="#000000" fill-rule="nonzero" fill-opacity="0.501961"/><rect x="527.5" y="1318.5" width="1395" height="232" stroke="#544393" stroke-width="4.58333" stroke-linecap="butt" stroke-linejoin="miter" stroke-miterlimit="8" stroke-opacity="1" fill="#FFFFFF" fill-opacity="1"/><text fill="#544393" fill-opacity="1" font-family="Candara,Candara_MSFontService,sans-serif" font-style="normal" font-variant="normal" font-weight="400" font-stretch="normal" font-size="48" text-anchor="start" direction="ltr" writing-mode="lr-tb" unicode-bidi="normal" text-decoration="none" transform="matrix(1 0 0 1 559.74 1380)">key:</text><text fill="#544393" fill-opacity="1" font-family="Candara,Candara_MSFontService,sans-serif" font-style="normal" font-variant="normal" font-weight="400" font-stretch="normal" font-size="48" text-anchor="start" direction="ltr" writing-mode="lr-tb" unicode-bidi="normal" text-decoration="none" transform="matrix(1 0 0 1 829.698 1380)">hash($</text><text fill="#544393" fill-opacity="1" font-family="Candara,Candara_MSFontService,sans-serif" font-style="normal" font-variant="normal" font-weight="400" font-stretch="normal" font-size="48" text-anchor="start" direction="ltr" writing-mode="lr-tb" unicode-bidi="normal" text-decoration="none" transform="matrix(1 0 0 1 963.188 1380)">conversation</text><text fill="#544393" fill-opacity="1" font-family="Candara,Candara_MSFontService,sans-serif" font-style="normal" font-variant="normal" font-weight="400" font-stretch="normal" font-size="48" text-anchor="start" direction="ltr" writing-mode="lr-tb" unicode-bidi="normal" text-decoration="none" transform="matrix(1 0 0 1 1226.16 1380)">.key</text><text fill="#544393" fill-opacity="1" font-family="Candara,Candara_MSFontService,sans-serif" font-style="normal" font-variant="normal" font-weight="400" font-stretch="normal" font-size="48" text-anchor="start" direction="ltr" writing-mode="lr-tb" unicode-bidi="normal" text-decoration="none" transform="matrix(1 0 0 1 1308.66 1380)">+$</text><text fill="#544393" fill-opacity="1" font-family="Candara,Candara_MSFontService,sans-serif" font-style="normal" font-variant="normal" font-weight="400" font-stretch="normal" font-size="48" text-anchor="start" direction="ltr" writing-mode="lr-tb" unicode-bidi="normal" text-decoration="none" transform="matrix(1 0 0 1 1353.92 1380)">conversation.chunks</text><text fill="#544393" fill-opacity="1" font-family="Candara,Candara_MSFontService,sans-serif" font-style="normal" font-variant="normal" font-weight="400" font-stretch="normal" font-size="48" text-anchor="start" direction="ltr" writing-mode="lr-tb" unicode-bidi="normal" text-decoration="none" transform="matrix(1 0 0 1 1771.57 1380)">[1])</text><text fill="#544393" fill-opacity="1" font-family="Candara,Candara_MSFontService,sans-serif" font-style="normal" font-variant="normal" font-weight="400" font-stretch="normal" font-size="48" text-anchor="start" direction="ltr" writing-mode="lr-tb" unicode-bidi="normal" text-decoration="none" transform="matrix(1 0 0 1 559.74 1438)">messages*:</text><text fill="#544393" fill-opacity="1" font-family="Candara,Candara_MSFontService,sans-serif" font-style="normal" font-variant="normal" font-weight="400" font-stretch="normal" font-size="48" text-anchor="start" direction="ltr" writing-mode="lr-tb" unicode-bidi="normal" text-decoration="none" transform="matrix(1 0 0 1 829.698 1438)">[…]</text><rect x="590.5" y="1475.5" width="1395" height="232" stroke="#544393" stroke-width="4.58333" stroke-linecap="butt" stroke-linejoin="miter" stroke-miterlimit="8" stroke-opacity="1" fill="#FFFFFF" fill-opacity="1"/><text fill="#544393" fill-opacity="1" font-family="Candara,Candara_MSFontService,sans-serif" font-style="normal" font-variant="normal" font-weight="400" font-stretch="normal" font-size="48" text-anchor="start" direction="ltr" writing-mode="lr-tb" unicode-bidi="normal" text-decoration="none" transform="matrix(1 0 0 1 622.709 1536)">key:</text><text fill="#544393" fill-opacity="1" font-family="Candara,Candara_MSFontService,sans-serif" font-style="normal" font-variant="normal" font-weight="400" font-stretch="normal" font-size="48" text-anchor="start" direction="ltr" writing-mode="lr-tb" unicode-bidi="normal" text-decoration="none" transform="matrix(1 0 0 1 892.668 1536)">hash($</text><text fill="#544393" fill-opacity="1" font-family="Candara,Candara_MSFontService,sans-serif" font-style="normal" font-variant="normal" font-weight="400" font-stretch="normal" font-size="48" text-anchor="start" direction="ltr" writing-mode="lr-tb" unicode-bidi="normal" text-decoration="none" transform="matrix(1 0 0 1 1026.16 1536)">conversation</text><text fill="#544393" fill-opacity="1" font-family="Candara,Candara_MSFontService,sans-serif" font-style="normal" font-variant="normal" font-weight="400" font-stretch="normal" font-size="48" text-anchor="start" direction="ltr" writing-mode="lr-tb" unicode-bidi="normal" text-decoration="none" transform="matrix(1 0 0 1 1289.13 1536)">.key</text><text fill="#544393" fill-opacity="1" font-family="Candara,Candara_MSFontService,sans-serif" font-style="normal" font-variant="normal" font-weight="400" font-stretch="normal" font-size="48" text-anchor="start" direction="ltr" writing-mode="lr-tb" unicode-bidi="normal" text-decoration="none" transform="matrix(1 0 0 1 1371.63 1536)">+$</text><text fill="#544393" fill-opacity="1" font-family="Candara,Candara_MSFontService,sans-serif" font-style="normal" font-variant="normal" font-weight="400" font-stretch="normal" font-size="48" text-anchor="start" direction="ltr" writing-mode="lr-tb" unicode-bidi="normal" text-decoration="none" transform="matrix(1 0 0 1 1416.89 1536)">conversation.chunks</text><text fill="#544393" fill-opacity="1" font-family="Candara,Candara_MSFontService,sans-serif" font-style="normal" font-variant="normal" font-weight="400" font-stretch="normal" font-size="48" text-anchor="start" direction="ltr" writing-mode="lr-tb" unicode-bidi="normal" text-decoration="none" transform="matrix(1 0 0 1 1834.54 1536)">[2])</text><text fill="#544393" fill-opacity="1" font-family="Candara,Candara_MSFontService,sans-serif" font-style="normal" font-variant="normal" font-weight="400" font-stretch="normal" font-size="48" text-anchor="start" direction="ltr" writing-mode="lr-tb" unicode-bidi="normal" text-decoration="none" transform="matrix(1 0 0 1 622.709 1594)">messages*:</text><text fill="#544393" fill-opacity="1" font-family="Candara,Candara_MSFontService,sans-serif" font-style="normal" font-variant="normal" font-weight="400" font-stretch="normal" font-size="48" text-anchor="start" direction="ltr" writing-mode="lr-tb" unicode-bidi="normal" text-decoration="none" transform="matrix(1 0 0 1 892.668 1594)">[…]</text><path d="M20.3147 36.1919 23.8913 44.632 15.4512 48.2086 11.8746 39.7685ZM27.4679 53.0721 31.0445 61.5122 22.6044 65.0888 19.0278 56.6487ZM34.6211 69.9523 38.1978 78.3924 29.7576 81.9691 26.181 73.5289ZM41.7744 86.8326 45.351 95.2727 36.9109 98.8493 33.3343 90.4092ZM48.9276 103.713 52.5042 112.153 44.0641 115.73 40.4875 107.289ZM56.0808 120.593 59.6575 129.033 51.2173 132.61 47.6407 124.17ZM63.2341 137.473 66.8107 145.913 58.3706 149.49 54.7939 141.05ZM70.3873 154.354 73.9639 162.794 65.5238 166.37 61.9472 157.93ZM77.5405 171.234 81.1172 179.674 72.677 183.251 69.1004 174.81ZM84.6938 188.114 88.2704 196.554 79.8303 200.131 76.2536 191.691ZM91.847 204.994 95.4236 213.434 86.9835 217.011 83.4069 208.571ZM99.0002 221.875 102.577 230.315 94.1367 233.891 90.5601 225.451ZM106.153 238.755 109.73 247.195 101.29 250.772 97.7133 242.331ZM113.307 255.635 116.883 264.075 108.443 267.652 104.867 259.212ZM120.46 272.515 124.037 280.955 115.596 284.532 112.02 276.092ZM127.613 289.396 131.19 297.836 122.75 301.412 119.173 292.972ZM134.766 306.276 138.343 314.716 129.903 318.292 126.326 309.852ZM141.92 323.156 145.496 331.596 137.056 335.173 133.479 326.733ZM149.073 340.036 152.649 348.476 144.209 352.053 140.633 343.613ZM156.226 356.916 159.803 365.357 151.363 368.933 147.786 360.493ZM163.379 373.797 166.956 382.237 158.516 385.813 154.939 377.373ZM170.533 390.677 174.109 399.117 165.669 402.694 162.092 394.254ZM177.686 407.557 181.262 415.997 172.822 419.574 169.246 411.134ZM184.839 424.437 188.416 432.877 179.975 436.454 176.399 428.014ZM191.992 441.318 195.569 449.758 187.129 453.334 183.552 444.894ZM199.145 458.198 202.722 466.638 194.282 470.215 190.705 461.774ZM206.299 475.078 209.875 483.518 201.435 487.095 197.859 478.655ZM213.452 491.958 217.029 500.398 208.588 503.975 205.012 495.535ZM220.605 508.838 224.182 517.279 215.742 520.855 212.165 512.415ZM227.758 525.719 229.361 529.501 220.921 533.077 219.318 529.295ZM-3.2172 51.1421 0 0 38.9834 33.259Z" fill="#000000" fill-rule="nonzero" fill-opacity="0.501961" transform="matrix(1 0 0 -1 1284.5 1475.79)"/><rect x="3921.5" y="1149.5" width="240" height="233" stroke="#544393" stroke-width="4.58333" stroke-linecap="butt" stroke-linejoin="miter" stroke-miterlimit="8" stroke-opacity="1" fill="#FFFFFF" fill-opacity="1"/><text fill="#544393" fill-opacity="1" font-family="Candara,Candara_MSFontService,sans-serif" font-style="normal" font-variant="normal" font-weight="400" font-stretch="normal" font-size="50" text-anchor="start" direction="ltr" writing-mode="lr-tb" unicode-bidi="normal" text-decoration="none" transform="matrix(1 0 0 1 4015.54 1213)">…</text><rect x="3993.5" y="1312.5" width="240" height="232" stroke="#544393" stroke-width="4.58333" stroke-linecap="butt" stroke-linejoin="miter" stroke-miterlimit="8" stroke-opacity="1" fill="#FFFFFF" fill-opacity="1"/><text fill="#544393" fill-opacity="1" font-family="Candara,Candara_MSFontService,sans-serif" font-style="normal" font-variant="normal" font-weight="400" font-stretch="normal" font-size="50" text-anchor="start" direction="ltr" writing-mode="lr-tb" unicode-bidi="normal" text-decoration="none" transform="matrix(1 0 0 1 4087.93 1375)">…</text><rect x="1995.5" y="1151.5" width="1406" height="232" stroke="#544393" stroke-width="4.58333" stroke-linecap="butt" stroke-linejoin="miter" stroke-miterlimit="8" stroke-opacity="1" fill="#FFFFFF" fill-opacity="1"/><text fill="#544393" fill-opacity="1" font-family="Candara,Candara_MSFontService,sans-serif" font-style="normal" font-variant="normal" font-weight="400" font-stretch="normal" font-size="48" text-anchor="start" direction="ltr" writing-mode="lr-tb" unicode-bidi="normal" text-decoration="none" transform="matrix(1 0 0 1 2027.74 1212)">key:</text><text fill="#544393" fill-opacity="1" font-family="Candara,Candara_MSFontService,sans-serif" font-style="normal" font-variant="normal" font-weight="400" font-stretch="normal" font-size="48" text-anchor="start" direction="ltr" writing-mode="lr-tb" unicode-bidi="normal" text-decoration="none" transform="matrix(1 0 0 1 2297.69 1212)">hash($</text><text fill="#544393" fill-opacity="1" font-family="Candara,Candara_MSFontService,sans-serif" font-style="normal" font-variant="normal" font-weight="400" font-stretch="normal" font-size="48" text-anchor="start" direction="ltr" writing-mode="lr-tb" unicode-bidi="normal" text-decoration="none" transform="matrix(1 0 0 1 2431.18 1212)">conversation</text><text fill="#544393" fill-opacity="1" font-family="Candara,Candara_MSFontService,sans-serif" font-style="normal" font-variant="normal" font-weight="400" font-stretch="normal" font-size="48" text-anchor="start" direction="ltr" writing-mode="lr-tb" unicode-bidi="normal" text-decoration="none" transform="matrix(1 0 0 1 2694.15 1212)">.key</text><text fill="#544393" fill-opacity="1" font-family="Candara,Candara_MSFontService,sans-serif" font-style="normal" font-variant="normal" font-weight="400" font-stretch="normal" font-size="48" text-anchor="start" direction="ltr" writing-mode="lr-tb" unicode-bidi="normal" text-decoration="none" transform="matrix(1 0 0 1 2776.65 1212)">+$</text><text fill="#544393" fill-opacity="1" font-family="Candara,Candara_MSFontService,sans-serif" font-style="normal" font-variant="normal" font-weight="400" font-stretch="normal" font-size="48" text-anchor="start" direction="ltr" writing-mode="lr-tb" unicode-bidi="normal" text-decoration="none" transform="matrix(1 0 0 1 2821.91 1212)">conversation.chunks</text><text fill="#544393" fill-opacity="1" font-family="Candara,Candara_MSFontService,sans-serif" font-style="normal" font-variant="normal" font-weight="400" font-stretch="normal" font-size="48" text-anchor="start" direction="ltr" writing-mode="lr-tb" unicode-bidi="normal" text-decoration="none" transform="matrix(1 0 0 1 3239.57 1212)">[0])</text><text fill="#544393" fill-opacity="1" font-family="Candara,Candara_MSFontService,sans-serif" font-style="normal" font-variant="normal" font-weight="400" font-stretch="normal" font-size="48" text-anchor="start" direction="ltr" writing-mode="lr-tb" unicode-bidi="normal" text-decoration="none" transform="matrix(1 0 0 1 2027.74 1270)">messages*:</text><text fill="#544393" fill-opacity="1" font-family="Candara,Candara_MSFontService,sans-serif" font-style="normal" font-variant="normal" font-weight="400" font-stretch="normal" font-size="48" text-anchor="start" direction="ltr" writing-mode="lr-tb" unicode-bidi="normal" text-decoration="none" transform="matrix(1 0 0 1 2297.69 1270)">[…]  // message envelopes</text><rect x="2058.5" y="1308.5" width="1395" height="232" stroke="#544393" stroke-width="4.58333" stroke-linecap="butt" stroke-linejoin="miter" stroke-miterlimit="8" stroke-opacity="1" fill="#FFFFFF" fill-opacity="1"/><text fill="#544393" fill-opacity="1" font-family="Candara,Candara_MSFontService,sans-serif" font-style="normal" font-variant="normal" font-weight="400" font-stretch="normal" font-size="48" text-anchor="start" direction="ltr" writing-mode="lr-tb" unicode-bidi="normal" text-decoration="none" transform="matrix(1 0 0 1 2090.71 1369)">key:</text><text fill="#544393" fill-opacity="1" font-family="Candara,Candara_MSFontService,sans-serif" font-style="normal" font-variant="normal" font-weight="400" font-stretch="normal" font-size="48" text-anchor="start" direction="ltr" writing-mode="lr-tb" unicode-bidi="normal" text-decoration="none" transform="matrix(1 0 0 1 2360.66 1369)">hash($</text><text fill="#544393" fill-opacity="1" font-family="Candara,Candara_MSFontService,sans-serif" font-style="normal" font-variant="normal" font-weight="400" font-stretch="normal" font-size="48" text-anchor="start" direction="ltr" writing-mode="lr-tb" unicode-bidi="normal" text-decoration="none" transform="matrix(1 0 0 1 2494.15 1369)">conversation</text><text fill="#544393" fill-opacity="1" font-family="Candara,Candara_MSFontService,sans-serif" font-style="normal" font-variant="normal" font-weight="400" font-stretch="normal" font-size="48" text-anchor="start" direction="ltr" writing-mode="lr-tb" unicode-bidi="normal" text-decoration="none" transform="matrix(1 0 0 1 2757.12 1369)">.key</text><text fill="#544393" fill-opacity="1" font-family="Candara,Candara_MSFontService,sans-serif" font-style="normal" font-variant="normal" font-weight="400" font-stretch="normal" font-size="48" text-anchor="start" direction="ltr" writing-mode="lr-tb" unicode-bidi="normal" text-decoration="none" transform="matrix(1 0 0 1 2839.62 1369)">+$</text><text fill="#544393" fill-opacity="1" font-family="Candara,Candara_MSFontService,sans-serif" font-style="normal" font-variant="normal" font-weight="400" font-stretch="normal" font-size="48" text-anchor="start" direction="ltr" writing-mode="lr-tb" unicode-bidi="normal" text-decoration="none" transform="matrix(1 0 0 1 2884.88 1369)">conversation.chunks</text><text fill="#544393" fill-opacity="1" font-family="Candara,Candara_MSFontService,sans-serif" font-style="normal" font-variant="normal" font-weight="400" font-stretch="normal" font-size="48" text-anchor="start" direction="ltr" writing-mode="lr-tb" unicode-bidi="normal" text-decoration="none" transform="matrix(1 0 0 1 3302.54 1369)">[1])</text><text fill="#544393" fill-opacity="1" font-family="Candara,Candara_MSFontService,sans-serif" font-style="normal" font-variant="normal" font-weight="400" font-stretch="normal" font-size="48" text-anchor="start" direction="ltr" writing-mode="lr-tb" unicode-bidi="normal" text-decoration="none" transform="matrix(1 0 0 1 2090.71 1427)">messages*:</text><text fill="#544393" fill-opacity="1" font-family="Candara,Candara_MSFontService,sans-serif" font-style="normal" font-variant="normal" font-weight="400" font-stretch="normal" font-size="48" text-anchor="start" direction="ltr" writing-mode="lr-tb" unicode-bidi="normal" text-decoration="none" transform="matrix(1 0 0 1 2360.66 1427)">[…]</text><rect x="2141.5" y="1499.5" width="1373" height="120" stroke="#544393" stroke-width="4.58333" stroke-linecap="butt" stroke-linejoin="miter" stroke-miterlimit="8" stroke-opacity="1" fill="#FFFFFF" fill-opacity="1"/><text fill="#544393" fill-opacity="1" font-family="Candara,Candara_MSFontService,sans-serif" font-style="normal" font-variant="normal" font-weight="400" font-stretch="normal" font-size="50" text-anchor="start" direction="ltr" writing-mode="lr-tb" unicode-bidi="normal" text-decoration="none" transform="matrix(1 0 0 1 2802.45 1562)">…</text><path d="M2632.5 380.5C2676.31 362.785 2746.11 397.689 2829.54 380.5 2912.97 363.311 2937.65 382.844 3010.16 380.5 3082.67 378.156 3178.25 402.099 3231.83 380.5 3285.41 358.901 3372.67 405.497 3453.5 380.5 3459.13 412.256 3438.4 492.045 3453.5 524.5 3399.24 528.173 3338.36 507.583 3264.67 524.5 3190.98 541.417 3150.98 504.82 3075.84 524.5 3000.7 544.181 2946.36 506.708 2854.17 524.5 2761.98 542.292 2726.61 507.784 2632.5 524.5 2621.07 462.669 2634.66 432.753 2632.5 380.5Z" fill="#F2F2F2" fill-rule="evenodd" fill-opacity="1"/><path d="M2632.5 380.5C2704.78 376.827 2733.87 401.28 2829.54 380.5 2925.21 359.72 2989.31 380.772 3034.79 380.5 3080.27 380.228 3138.88 395.856 3240.04 380.5 3341.2 365.144 3401.26 392.135 3453.5 380.5 3462.01 435.046 3444.5 493.315 3453.5 524.5 3409.57 534.012 3294.47 518.872 3248.25 524.5 3202.03 530.128 3114.39 506.035 3059.42 524.5 3004.45 542.966 2942.22 510.913 2870.59 524.5 2798.96 538.087 2683.14 498.986 2632.5 524.5 2630.53 488.276 2633.68 421.162 2632.5 380.5Z" stroke="#7F6000" stroke-width="3.4375" stroke-linecap="butt" stroke-linejoin="round" stroke-miterlimit="10" stroke-opacity="1" fill="none" fill-rule="evenodd"/><text fill="#7F6000" fill-opacity="1" font-family="Candara,Candara_MSFontService,sans-serif" font-style="normal" font-variant="normal" font-weight="400" font-stretch="normal" font-size="46" text-anchor="start" direction="ltr" writing-mode="lr-tb" unicode-bidi="normal" text-decoration="none" transform="matrix(1 0 0 1 2664.79 439)">list of </text><text fill="#7F6000" fill-opacity="1" font-family="Candara,Candara_MSFontService,sans-serif" font-style="normal" font-variant="normal" font-weight="400" font-stretch="normal" font-size="46" text-anchor="start" direction="ltr" writing-mode="lr-tb" unicode-bidi="normal" text-decoration="none" transform="matrix(1 0 0 1 2781.66 439)">conversation IDs (=ENS</text><text fill="#7F6000" fill-opacity="1" font-family="Candara,Candara_MSFontService,sans-serif" font-style="normal" font-variant="normal" font-weight="400" font-stretch="normal" font-size="46" text-anchor="start" direction="ltr" writing-mode="lr-tb" unicode-bidi="normal" text-decoration="none" transform="matrix(1 0 0 1 3230.83 439)">-</text><text fill="#7F6000" fill-opacity="1" font-family="Candara,Candara_MSFontService,sans-serif" font-style="normal" font-variant="normal" font-weight="400" font-stretch="normal" font-size="46" text-anchor="start" direction="ltr" writing-mode="lr-tb" unicode-bidi="normal" text-decoration="none" transform="matrix(1 0 0 1 3242.29 439)">names), </text><text fill="#7F6000" fill-opacity="1" font-family="Candara,Candara_MSFontService,sans-serif" font-style="normal" font-variant="normal" font-weight="400" font-stretch="normal" font-size="46" text-anchor="start" direction="ltr" writing-mode="lr-tb" unicode-bidi="normal" text-decoration="none" transform="matrix(1 0 0 1 2664.79 494)">encrypted</text><path d="M1598.5 848.5C1683.56 839.339 1685.49 866.284 1769.38 848.5 1853.27 830.716 1880.71 851.58 1926.02 848.5 1971.33 845.42 2042.19 849.11 2118.26 848.5 2194.33 847.89 2224.49 857.003 2310.5 848.5 2316.14 880.477 2295.38 960.819 2310.5 993.5 2241.19 999.052 2221.69 989.021 2146.74 993.5 2071.79 997.979 2061.83 979.384 1982.98 993.5 1904.13 1007.62 1877.59 990.044 1790.74 993.5 1703.89 996.956 1649.69 988.28 1598.5 993.5 1587.05 931.239 1600.66 901.115 1598.5 848.5Z" fill="#F2F2F2" fill-rule="evenodd" fill-opacity="1"/><path d="M1598.5 848.5C1644.22 831.859 1717.11 861.975 1769.38 848.5 1821.65 835.025 1866.81 868.172 1947.38 848.5 2027.95 828.828 2061.29 855.724 2125.38 848.5 2189.47 841.276 2232.3 867.913 2310.5 848.5 2319.02 903.425 2301.48 962.098 2310.5 993.5 2227.82 1012.24 2181.71 974.647 2132.5 993.5 2083.29 1012.35 2034.2 990.815 1968.74 993.5 1903.28 996.185 1871.16 983.959 1804.98 993.5 1738.8 1003.04 1668.05 992.996 1598.5 993.5 1596.53 957.025 1599.68 889.445 1598.5 848.5Z" stroke="#7F6000" stroke-width="3.4375" stroke-linecap="butt" stroke-linejoin="round" stroke-miterlimit="10" stroke-opacity="1" fill="none" fill-rule="evenodd"/><text fill="#7F6000" fill-opacity="1" font-family="Candara,Candara_MSFontService,sans-serif" font-style="normal" font-variant="normal" font-weight="400" font-stretch="normal" font-size="46" text-anchor="start" direction="ltr" writing-mode="lr-tb" unicode-bidi="normal" text-decoration="none" transform="matrix(1 0 0 1 1631.1 908)">list of chunks (id, timestamp) , </text><text fill="#7F6000" fill-opacity="1" font-family="Candara,Candara_MSFontService,sans-serif" font-style="normal" font-variant="normal" font-weight="400" font-stretch="normal" font-size="46" text-anchor="start" direction="ltr" writing-mode="lr-tb" unicode-bidi="normal" text-decoration="none" transform="matrix(1 0 0 1 1631.1 963)">encrypted</text><path d="M1081.5 1597.5C1165.53 1583.73 1216.39 1617.92 1275.9 1597.5 1335.41 1577.08 1415.26 1616.65 1454.1 1597.5 1492.94 1578.35 1577.64 1623.3 1672.8 1597.5 1767.96 1571.7 1820.38 1623.15 1891.5 1597.5 1897.14 1629.48 1876.39 1709.82 1891.5 1742.5 1809.94 1755.97 1769.38 1725.64 1705.2 1742.5 1641.02 1759.36 1574.8 1731.48 1518.9 1742.5 1463 1753.52 1352.88 1722.5 1300.2 1742.5 1247.52 1762.5 1165.96 1737.21 1081.5 1742.5 1070.06 1680.24 1083.66 1650.12 1081.5 1597.5Z" fill="#F2F2F2" fill-rule="evenodd" fill-opacity="1"/><path d="M1081.5 1597.5C1146.42 1596.44 1194.09 1600.49 1275.9 1597.5 1357.71 1594.51 1435.43 1611.32 1478.4 1597.5 1521.37 1583.68 1617.47 1599.39 1680.9 1597.5 1744.33 1595.61 1812.13 1613.02 1891.5 1597.5 1900.01 1652.42 1882.49 1711.1 1891.5 1742.5 1840.41 1750.24 1774.56 1722.5 1689 1742.5 1603.44 1762.5 1553.09 1741.08 1502.7 1742.5 1452.31 1743.92 1393.55 1736.34 1316.4 1742.5 1239.25 1748.66 1186.58 1726.23 1081.5 1742.5 1079.53 1706.02 1082.68 1638.44 1081.5 1597.5Z" stroke="#7F6000" stroke-width="3.4375" stroke-linecap="butt" stroke-linejoin="round" stroke-miterlimit="10" stroke-opacity="1" fill="none" fill-rule="evenodd"/><text fill="#7F6000" fill-opacity="1" font-family="Candara,Candara_MSFontService,sans-serif" font-style="normal" font-variant="normal" font-weight="400" font-stretch="normal" font-size="46" text-anchor="start" direction="ltr" writing-mode="lr-tb" unicode-bidi="normal" text-decoration="none" transform="matrix(1 0 0 1 1113.63 1657)">list of messages (crypted envelopes), </text><text fill="#7F6000" fill-opacity="1" font-family="Candara,Candara_MSFontService,sans-serif" font-style="normal" font-variant="normal" font-weight="400" font-stretch="normal" font-size="46" text-anchor="start" direction="ltr" writing-mode="lr-tb" unicode-bidi="normal" text-decoration="none" transform="matrix(1 0 0 1 1113.63 1712)">encrypted</text></g></svg>